<?xml version="1.0" standalone="no"?>
<!DOCTYPE svg PUBLIC "-//W3C//DTD SVG 1.1//EN" "http://www.w3.org/Graphics/SVG/1.1/DTD/svg11.dtd" >
<!--
2013-9-30: Created.
-->
<svg>
<metadata>
Created by iconfont
</metadata>
<defs>

<font id="iconfont" horiz-adv-x="1024" >
  <font-face
    font-family="iconfont"
    font-weight="500"
    font-stretch="normal"
    units-per-em="1024"
    ascent="896"
    descent="-128"
  />
    <missing-glyph />
    
    <glyph glyph-name="excel" unicode="&#59078;" d="M912 72.96h-373.333333a26.666667 26.666667 0 0 0-26.666667 26.709333v533.333334c0 14.72 11.946667 26.666667 26.666667 26.666666h373.333333c14.72 0 26.666667-11.946667 26.666667-26.666666v-533.333334c0-14.72-11.946667-26.666667-26.666667-26.666666zM645.333333 499.626667h-106.666666a26.666667 26.666667 0 0 0 0 53.333333h106.666666a26.666667 26.666667 0 0 0 0-53.333333zM645.333333 392.96h-106.666666a26.666667 26.666667 0 0 0 0 53.333333h106.666666a26.666667 26.666667 0 0 0 0-53.333333zM645.333333 286.293333h-106.666666a26.666667 26.666667 0 0 0 0 53.333334h106.666666a26.666667 26.666667 0 0 0 0-53.333334zM645.333333 179.626667h-106.666666a26.666667 26.666667 0 0 0 0 53.333333h106.666666a26.666667 26.666667 0 0 0 0-53.333333zM805.333333 499.626667h-53.333333a26.666667 26.666667 0 0 0 0 53.333333h53.333333a26.666667 26.666667 0 0 0 0-53.333333zM805.333333 392.96h-53.333333a26.666667 26.666667 0 0 0 0 53.333333h53.333333a26.666667 26.666667 0 0 0 0-53.333333zM805.333333 286.293333h-53.333333a26.666667 26.666667 0 0 0 0 53.333334h53.333333a26.666667 26.666667 0 0 0 0-53.333334zM805.333333 179.626667h-53.333333a26.666667 26.666667 0 0 0 0 53.333333h53.333333a26.666667 26.666667 0 0 0 0-53.333333zM555.690667 760.192a26.197333 26.197333 0 0 1-21.930667 5.632l-426.666667-80a26.581333 26.581333 0 0 1-21.76-26.154667v-586.666666c0-12.8 9.130667-23.893333 21.76-26.197334l426.666667-80a26.538667 26.538667 0 0 1 31.573333 26.197334v746.666666a26.581333 26.581333 0 0 1-9.642666 20.48zM452.053333 277.205333l-84.309333 96.384 85.248 109.653334a26.709333 26.709333 0 0 1-42.069333 32.768l-78.976-101.546667-66.56 76.074667a26.624 26.624 0 1 1-40.106667-35.072l73.344-83.882667-74.368-95.573333a26.709333 26.709333 0 1 1 42.154667-32.725334l68.010666 87.466667 77.525334-88.576a26.453333 26.453333 0 0 1 37.589333-2.56 26.624 26.624 0 0 1 2.517333 37.546667z"  horiz-adv-x="1024" />

    
    <glyph glyph-name="gantanhao" unicode="&#59055;" d="M520.533333 85.333333a51.2 51.2 0 1 0 0-102.4 51.2 51.2 0 0 0 0 102.4z m0 674.133334a42.666667 42.666667 0 0 0 42.666667-42.666667v-512a42.666667 42.666667 0 0 0-85.333333 0v512a42.666667 42.666667 0 0 0 42.666666 42.666667z"  horiz-adv-x="1024" />

    
    <glyph glyph-name="xialajiantou_shuang" unicode="&#59056;" d="M217.856 364.608a32 32 0 0 0 45.248 45.248L512 160.896l248.896 248.96a32 32 0 1 0 45.248-45.248L512 70.4 217.856 364.608zM217.856 620.608a32 32 0 0 0 45.248 45.248L512 416.896l248.896 248.96a32 32 0 0 0 45.248-45.248L512 326.4 217.856 620.608z"  horiz-adv-x="1024" />

    
    <glyph glyph-name="zhankai" unicode="&#59057;" d="M319.808 512c-35.2 0-46.208-22.016-23.808-49.984L512 192l216 270.016c22.08 27.584 11.008 49.984-23.808 49.984H319.808z"  horiz-adv-x="1024" />

    
    <glyph glyph-name="gouxuan" unicode="&#59058;" d="M201.642667 412.416a42.666667 42.666667 0 0 0 54.442666 4.949333l5.973334-4.949333 189.610666-184.405333L783.530667 559.786667a42.666667 42.666667 0 0 0 54.442666 4.949333l5.973334-4.949333a42.666667 42.666667 0 0 0 4.864-54.442667l-4.949334-5.973333-392.192-392.106667-250.026666 244.736a42.666667 42.666667 0 0 0 0 60.330667z"  horiz-adv-x="1024" />

    
    <glyph glyph-name="shanchu" unicode="&#59059;" d="M512 768a384 384 0 1 0 0-768A384 384 0 0 0 512 768zM376.256 564.992a32 32 0 0 1-45.312 0l-3.712-4.48a32 32 0 0 1 3.712-40.768L466.752 384l-135.808-135.744-3.712-4.48a32 32 0 0 1 3.712-40.832l4.48-3.712a32 32 0 0 1 40.832 3.712L512 338.752l135.68-135.808 4.48-3.712a32 32 0 0 1 40.832 49.024L557.248 384l135.744 135.68 3.712 4.48a32 32 0 0 1-3.712 40.832l-4.48 3.712a32 32 0 0 1-40.768-3.712L512 429.248z"  horiz-adv-x="1024" />

    
    <glyph glyph-name="xialajiantou" unicode="&#59060;" d="M217.856 457.344a32 32 0 0 0 45.248 45.312L512 253.696l248.896 248.96a32 32 0 1 0 45.248-45.312L512 163.2 217.856 457.344z"  horiz-adv-x="1024" />

    
    <glyph glyph-name="shanchu1" unicode="&#59061;" d="M285.696 610.304a48 48 0 0 0 67.904 0L512 451.84l158.4 158.4a48 48 0 1 0 67.84-67.904L579.968 384l158.4-158.4a48 48 0 1 0-67.904-67.84L512 316.032l-158.4-158.4a48 48 0 0 0-67.84 67.904L444.032 384 285.696 542.4a48 48 0 0 0 0 67.84z"  horiz-adv-x="1024" />

    
    <glyph glyph-name="shangchuan" unicode="&#59062;" d="M198.592 242.88v-173.312h626.624l0.064 173.248a35.328 35.328 0 0 0 70.72 0V64a64 64 0 0 0-64-64H192a64 64 0 0 0-64 64v178.88a35.328 35.328 0 0 0 70.592 0z m313.728 528.64l156.864-153.792a34.496 34.496 0 0 0 0.128-49.152 35.52 35.52 0 0 0-49.92 0L548.16 638.912v-465.792a35.328 35.328 0 0 0-70.72 0V638.848L406.4 568.576a35.52 35.52 0 0 0-49.92 0 34.56 34.56 0 0 0 0 49.28l155.904 153.6z"  horiz-adv-x="1024" />

    
    <glyph glyph-name="rili" unicode="&#59063;" d="M736 832a32 32 0 0 0 32-32V768h128a64 64 0 0 0 64-64v-704a64 64 0 0 0-64-64H128a64 64 0 0 0-64 64V704a64 64 0 0 0 64 64h128v32a32 32 0 0 0 64 0V768h384v32a32 32 0 0 0 32 32zM896 512H127.936L128 32a32 32 0 0 1 32-32h704a32 32 0 0 1 32 32V512z m-544-320a32 32 0 1 0 0-64h-64a32 32 0 1 0 0 64h64z m192 0a32 32 0 1 0 0-64h-64a32 32 0 1 0 0 64h64z m192 0a32 32 0 1 0 0-64h-64a32 32 0 1 0 0 64h64z m-384 192a32 32 0 0 0 0-64h-64a32 32 0 0 0 0 64h64z m192 0a32 32 0 0 0 0-64h-64a32 32 0 0 0 0 64h64z m192 0a32 32 0 1 0 0-64h-64a32 32 0 1 0 0 64h64zM256 704H160a32 32 0 0 1-32-32L127.936 576H896V672a32 32 0 0 1-32 32H768v-32a32 32 0 1 0-64 0V704H320v-32a32 32 0 0 0-64 0V704z"  horiz-adv-x="1024" />

    
    <glyph glyph-name="jian" unicode="&#59064;" d="M192 432m48 0l544 0q48 0 48-48l0 0q0-48-48-48l-544 0q-48 0-48 48l0 0q0 48 48 48Z"  horiz-adv-x="1024" />

    
    <glyph glyph-name="jiantou" unicode="&#59065;" d="M588.16 384L334.08 625.92a44.16 44.16 0 0 0 0 64.64 49.728 49.728 0 0 0 67.84 0l288-274.24a44.16 44.16 0 0 0 0-64.64l-288-274.304a49.728 49.728 0 0 0-67.84 0 44.16 44.16 0 0 0 0 64.64L588.16 384z"  horiz-adv-x="1024" />

    
    <glyph glyph-name="jia" unicode="&#59067;" d="M512 704a48 48 0 0 0 48-48v-224h224a48 48 0 1 0 0-96h-224v-224a48 48 0 1 0-96 0v224h-224a48 48 0 0 0 0 96h224v224A48 48 0 0 0 512 704z"  horiz-adv-x="1024" />

    
    <glyph glyph-name="shuangjiantou" unicode="&#59068;" d="M319.808 320c-35.2 0-46.208-22.016-23.808-49.984L512 0l216 270.016c22.08 27.584 11.008 49.984-23.808 49.984H319.808zM319.808 448c-35.2 0-46.208 22.016-23.808 49.984L512 768l216-270.016c22.08-27.584 11.008-49.984-23.808-49.984H319.808z"  horiz-adv-x="1024" />

    
    <glyph glyph-name="queding" unicode="&#59070;" d="M210.88 438.272a44.8 44.8 0 0 0 58.752 4.032l4.608-4.032 194.56-194.56 330.368 330.304a44.8 44.8 0 0 0 58.816 4.032l4.544-4.032a44.8 44.8 0 0 0 4.032-58.752l-4.032-4.544-393.728-393.728-257.92 257.92a44.8 44.8 0 0 0 0 63.36z"  horiz-adv-x="1024" />

    
    <glyph glyph-name="erweima" unicode="&#59071;" d="M434.389333 263.722667V0H203.605333A32.938667 32.938667 0 0 0 170.666667 32.938667v230.826666h263.722666z m131.968-131.84V0h-65.962666v131.84h65.962666zM896 263.68v-230.784a32.938667 32.938667 0 0 0-32.938667-32.938667h-230.826666v65.962667h197.802666v197.76H896z m-131.84 0v-131.84h-131.882667v131.84h131.84z m-197.888 263.765333v-329.642666h-65.877333v131.84h-131.84v65.92h131.84v131.84h65.877333z m-263.722667-131.84v-66.005333H170.666667v65.962667h131.84z m593.450667 0v-66.005333h-197.845333v65.962667H896zM434.389333 725.333333v-263.722666H170.666667V692.394667C170.666667 710.613333 185.386667 725.333333 203.605333 725.333333h230.826667z m428.672 0c18.218667 0 32.938667-14.72 32.938667-32.938666v-230.826667h-263.722667V725.333333zM336.213333 626.56H270.250667V560.64H336.213333V626.56zM566.357333 725.333333v-131.84h-65.962666V725.333333h65.962666z"  horiz-adv-x="1024" />

    
    <glyph glyph-name="baocun" unicode="&#59072;" d="M704 682.666667a85.333333 85.333333 0 0 0 85.333333-85.333334v-426.666666a85.333333 85.333333 0 0 0-85.333333-85.333334h-384a85.333333 85.333333 0 0 0-85.333333 85.333334V597.333333a85.333333 85.333333 0 0 0 85.333333 85.333334zM341.504 640h-21.333333C296.533333 640 277.333333 620.928 277.333333 597.333333v-426.709333c0-11.434667 4.48-22.101333 12.544-30.165333 8.106667-8.106667 18.858667-12.458667 30.293334-12.458667h384c23.552 0 42.581333 19.114667 42.581333 42.624V597.290667a42.666667 42.666667 0 0 1-42.666667 42.752h-21.290666v-170.794667a42.666667 42.666667 0 0 0-42.666667-42.624H384a42.581333 42.581333 0 0 0-42.496 42.666667V640z m295.68-1.408H384v-167.893333h253.141333V638.592z m-103.765333-40.618667c12.16 0 22.058667-9.856 22.058666-22.016v-42.666666a22.058667 22.058667 0 0 0-44.117333 0v42.666666c0 12.16 9.898667 22.016 22.058667 22.016z"  horiz-adv-x="1024" />

    
    <glyph glyph-name="bianji" unicode="&#59073;" d="M832 146.56a32 32 0 0 0 5.76-63.424l-5.76-0.512H192a32 32 0 0 0-5.76 63.488L192 146.56h640zM252.352 290.816l72.32-72.32-22.528-22.656-84.8-12.48 12.48 84.864 22.528 22.592z m316.8 316.8l72.32-72.32L369.92 263.68 297.6 336l271.552 271.488z m149.376 76.928a51.2 51.2 0 0 0 0-72.32l-31.808-31.68L614.4 652.8l31.744 31.68a51.2 51.2 0 0 0 72.32 0z"  horiz-adv-x="1024" />

    
    <glyph glyph-name="quxiaojiedageng" unicode="&#59075;" d="M853.333333 503.338667V34.133333a34.133333 34.133333 0 0 0-34.133333-34.133333H204.8a34.133333 34.133333 0 0 0-34.133333 34.133333V503.338667h682.666666z m-430.250666-114.346667a29.738667 29.738667 0 0 1-41.130667-0.426667c-11.52-11.52-11.264-30.336 0.426667-42.069333l87.210666-87.210667-81.152-81.152-0.853333-0.896a29.781333 29.781333 0 0 1 1.322667-41.173333c11.733333-11.733333 30.592-11.946667 42.069333-0.426667l81.152 81.109334 83.882667-83.84a29.738667 29.738667 0 0 1 41.130666 0.426666 29.738667 29.738667 0 0 1-0.426666 42.112l-82.986667 82.944 86.186667 86.186667a29.781333 29.781333 0 0 1-1.28 41.173333 29.738667 29.738667 0 0 1-42.112 0.426667l-85.333334-85.248-87.168 87.168zM388.992 768c9.429333 0 17.066667-7.68 17.066667-17.066667v-61.098666h211.114666V750.933333c0 9.386667 7.68 17.066667 17.066667 17.066667h54.186667c9.386667 0 17.066667-7.68 17.066666-17.066667l-0.042666-61.098666H819.2a34.133333 34.133333 0 0 0 34.133333-34.133334V581.546667H170.666667V655.658667a34.133333 34.133333 0 0 0 34.133333 34.133333l112.981333 0.042667V750.933333c0 9.386667 7.68 17.066667 17.066667 17.066667h54.186667z"  horiz-adv-x="1024" />

    
    <glyph glyph-name="shuaxin" unicode="&#59076;" d="M511.957333 636.8c70.698667 0 138.24-29.653333 186.026667-80.469333h-61.525333a23.04 23.04 0 0 1-23.168-22.954667 23.04 23.04 0 0 1 23.168-22.912h112.64c12.8 0 23.168 10.24 23.168 22.912V650.538667a23.04 23.04 0 0 1-23.168 22.912 23.04 23.04 0 0 1-23.168-22.912v-56.832A301.952 301.952 0 0 1 412.586667 665.898667a297.813333 297.813333 0 0 1-199.082667-250.453334 22.869333 22.869333 0 0 1 9.514667-20.906666 23.338667 23.338667 0 0 1 23.04-2.304 22.954667 22.954667 0 0 1 13.482666 18.602666C272.64 539.648 381.098667 636.8 512 636.8z m277.76-255.018667a23.082667 23.082667 0 0 1-25.258666-20.650666C751.957333 231.637333 643.413333 133.973333 512 133.973333a255.829333 255.829333 0 0 0-173.952 68.437334h61.952c12.8 0 23.125333 10.282667 23.125333 22.954666a23.04 23.04 0 0 1-23.125333 22.912h-112.64a23.04 23.04 0 0 1-23.168-22.912v-117.12a23.04 23.04 0 0 1 23.168-22.954666c12.8 0 23.125333 10.24 23.125333 22.954666v57.002667a302.08 302.08 0 0 1 309.632-57.088 297.642667 297.642667 0 0 1 190.506667 248.533333 22.997333 22.997333 0 0 1-20.864 25.045334z"  horiz-adv-x="1024" />

    
    <glyph glyph-name="quanbulichang" unicode="&#59077;" d="M657.706667 725.333333c17.749333 0 34.816-7.082667 47.36-19.84 12.629333-12.714667 19.712-29.994667 19.754666-48.042666l0.213334-28.842667h-358.826667a23.04 23.04 0 0 1-23.04-23.04v-485.802667c0-12.757333 10.282667-23.04 23.04-23.04h358.826667l-0.213334-28.842666A67.498667 67.498667 0 0 0 657.706667 0H195.114667A67.498667 67.498667 0 0 0 128 67.84V657.493333c0 18.048 7.125333 35.328 19.712 48.042667A66.432 66.432 0 0 0 195.072 725.333333h462.634667z m-81.493334-200.789333c6.357333 0 12.501333-2.133333 17.536-5.973333l210.688-161.706667-210.688-161.706667a28.8 28.8 0 0 0-46.336 22.826667v95.402667l-85.248-0.042667a48.938667 48.938667 0 0 0-48.981333 48.981333v0.725334c0 27.008 21.930667 48.938667 48.981333 48.938666h85.248V495.744c0 15.914667 12.928 28.8 28.8 28.8z m153.728-11.52l0.896-0.682667L938.666667 353.962667l-207.786667-158.378667a19.84 19.84 0 0 0-28.074667 4.053333 20.608 20.608 0 0 0 3.114667 27.818667l0.853333 0.682667 165.12 125.824-165.12 125.824a20.608 20.608 0 0 0-4.650666 27.562666l0.682666 0.938667c6.4 8.704 18.346667 10.666667 27.136 4.736z"  horiz-adv-x="1024" />

    
    <glyph glyph-name="mima" unicode="&#59079;" d="M397.482667 593.706667a143.36 143.36 0 0 0 143.104 143.36 143.445333 143.445333 0 0 0 143.189333-143.36v-114.304h-286.293333v114.346666z m172.202666-445.568a36.821333 36.821333 0 0 0-73.6 0v147.2a36.821333 36.821333 0 0 0 73.6 0v-147.2z m294.741334 331.264h-107.008v114.346666A217.088 217.088 0 0 1 540.586667 810.666667a217.045333 217.045333 0 0 1-216.704-216.96v-114.304H201.301333A73.6 73.6 0 0 1 128 405.674667v-367.872a73.6 73.6 0 0 1 73.301333-73.685334H864.426667a73.6 73.6 0 0 1 73.344 73.685334v367.872a73.6 73.6 0 0 1-73.344 73.728z"  horiz-adv-x="1024" />

    
    <glyph glyph-name="jiedageng" unicode="&#59080;" d="M853.333333 503.338667V34.133333a34.133333 34.133333 0 0 0-34.133333-34.133333H204.8a34.133333 34.133333 0 0 0-34.133333 34.133333V503.338667h682.666666z m-145.408-105.088a29.013333 29.013333 0 0 1-41.642666 0.128l-192.298667-195.413334-88.362667 89.770667-1.066666 1.024a28.970667 28.970667 0 0 1-40.533334-1.152 30.549333 30.549333 0 0 1 0.085334-42.496l129.877333-132.010667 233.813333 237.653334 1.024 1.066666a30.549333 30.549333 0 0 1-0.896 41.429334zM388.992 768c9.429333 0 17.066667-7.68 17.066667-17.066667v-61.098666h211.114666V750.933333c0 9.386667 7.68 17.066667 17.066667 17.066667h54.186667c9.386667 0 17.066667-7.68 17.066666-17.066667l-0.042666-61.098666H819.2a34.133333 34.133333 0 0 0 34.133333-34.133334V581.546667H170.666667V655.658667a34.133333 34.133333 0 0 0 34.133333 34.133333l112.981333 0.042667V750.933333c0 9.386667 7.68 17.066667 17.066667 17.066667h54.186667z"  horiz-adv-x="1024" />

    
    <glyph glyph-name="dayin-xian" unicode="&#59081;" d="M773.546667 585.813333h-78.506667V659.029333c0 36.394667-29.610667 66.005333-65.962667 66.005334H423.765333c-36.352 0-65.962667-29.610667-65.962666-66.005334V585.813333h-78.506667C242.986667 585.813333 213.333333 556.16 213.333333 519.808v-211.413333c0-36.352 29.610667-65.962667 66.005334-65.962667h78.464v-121.728c0-36.352 29.610667-66.005333 65.962666-66.005333h205.312c36.352 0 66.005333 29.653333 66.005334 66.005333v121.728h78.464c36.352 0 65.962667 29.610667 65.962666 65.962667V519.808c0 36.352-29.610667 66.005333-65.962666 66.005333zM401.792 658.986667c0 12.074667 9.898667 21.973333 21.973333 21.973333h205.312c12.117333 0 22.016-9.898667 22.016-21.973333v-73.258667H401.792V658.986667z m249.301333-538.368a22.058667 22.058667 0 0 0-22.016-21.973334H423.765333a22.058667 22.058667 0 0 0-21.973333 21.973334v213.248h249.301333v-213.248z m144.426667 187.733333a22.058667 22.058667 0 0 0-21.973333-22.016h-78.506667v91.52H357.845333v-91.52h-78.506666a22.058667 22.058667 0 0 0-21.973334 22.016V519.808c0 12.117333 9.898667 22.016 22.016 22.016H773.546667c12.074667 0 21.973333-9.898667 21.973333-22.016v-211.456zM437.333333 242.346667h176a21.973333 21.973333 0 1 1 0 43.989333H437.333333a21.973333 21.973333 0 1 1 0-43.989333z m0-83.370667h176a21.973333 21.973333 0 1 1 0 43.989333H437.333333a21.973333 21.973333 0 1 1 0-43.946666zM708.565333 487.68a22.016 22.016 0 1 1 43.989334 0 22.016 22.016 0 0 1-43.989334 0z"  horiz-adv-x="1024" />

    
    <glyph glyph-name="tongbu" unicode="&#59082;" d="M896 351.573333a502.101333 502.101333 0 0 0-36.266667-114.773333c-54.314667-115.541333-147.114667-176.213333-278.4-181.930667a468.608 468.608 0 0 0-176.384 25.429334V81.066667l-24.533333-60.074667a42.325333 42.325333 0 0 0-15.786667-16.938667 31.530667 31.530667 0 0 0-16.213333-4.053333 40.192 40.192 0 0 0-15.061333 4.053333 74.112 74.112 0 0 0-10.282667 5.376 40.106667 40.106667 0 0 0-4.181333 3.498667l-124.458667 205.226667a42.368 42.368 0 0 0-5.546667 16.170666 34.389333 34.389333 0 0 0 0.810667 13.098667 26.794667 26.794667 0 0 0 5.504 10.026667c2.389333 2.816 5.034667 5.418667 7.936 7.722666 2.645333 2.133333 5.546667 4.010667 8.661333 5.546667a39.424 39.424 0 0 0 6.314667 2.688 4.821333 4.821333 0 0 1 2.389333 1.365333l216.746667 56.234667c8.96 2.432 18.346667 3.072 27.648 1.92 5.845333-1.066667 11.562667-2.688 17.109333-4.778667a16.384 16.384 0 0 0 9.514667-9.258666c1.578667-3.626667 2.773333-7.338667 3.541333-11.178667a34.858667 34.858667 0 0 0 0-10.794667 40.490667 40.490667 0 0 0-1.578666-8.106666 7.936 7.936 0 0 1-0.768-2.688l-25.301334-60.074667c40.789333-15.018667 83.328-25.002667 126.677334-29.696 39.808-3.84 73.685333-2.986667 101.674666 2.730667a281.258667 281.258667 0 0 1 77.909334 27.733333c20.48 10.453333 39.637333 23.253333 57.045333 38.101333 13.952 12.586667 26.538667 26.496 37.546667 41.6 7.552 10.026667 14.506667 20.437333 20.778666 31.232 2.901333 5.632 5.12 10.24 6.698667 13.866667H896zM170.666667 430.165333A506.538667 506.538667 0 0 0 219.690667 562.773333c60.672 106.325333 156.928 158.208 288.725333 155.648 54.698667-0.298667 108.885333-10.496 159.786667-30.08l26.112 59.306667c3.2 5.12 7.210667 9.642667 11.861333 13.482667a29.312 29.312 0 0 0 11.861333 6.186666 37.461333 37.461333 0 0 0 21.76-2.304 80.042667 80.042667 0 0 0 13.866667-8.106666l2.346667-2.261334 119.466666-208.042666c2.389333-5.461333 3.968-11.178667 4.693334-17.066667a34.389333 34.389333 0 0 0-0.768-13.098667 24.106667 24.106667 0 0 0-5.973334-10.026666 52.992 52.992 0 0 0-16.981333-12.373334l-6.314667-3.029333a5.546667 5.546667 0 0 0-2.389333-0.768l-218.282667-50.773333c-11.776-2.133333-23.893333-1.877333-35.584 0.768-8.96 2.56-14.762667 6.058667-17.408 10.410666a30.293333 30.293333 0 0 0-4.138666 15.786667 71.210667 71.210667 0 0 0 0.981333 13.141333c0.426667 2.133333 1.237333 4.266667 2.389333 6.186667l26.666667 59.306667a522.88 522.88 0 0 1-126.549333 32.341333c-40.106667 4.608-73.984 4.608-101.674667 0a273.536 273.536 0 0 1-78.08-25.429333 285.141333 285.141333 0 0 1-58.154667-36.992c-14.250667-12.373333-27.221333-26.026667-38.784-40.832-8.021333-9.813333-15.402667-20.138667-22.186666-30.805334-2.432-4.224-4.565333-8.576-6.272-13.141333z"  horiz-adv-x="1024" />

    
    <glyph glyph-name="shijian" unicode="&#59083;" d="M512.042667 768A384 384 0 1 1 512-0.042667 384 384 0 0 1 512 768z m192-426.410667h-203.904a31.488 31.488 0 0 0-31.488 31.445334v203.946666c0 11.221333 6.058667 21.632 15.744 27.306667 9.685333 5.546667 21.76 5.546667 31.488 0a31.701333 31.701333 0 0 0 15.786666-27.306667v-172.373333h172.373334a31.36 31.36 0 0 0 31.530666-31.573333 31.872 31.872 0 0 0-9.216-22.314667 32.085333 32.085333 0 0 0-22.272-9.130667z"  horiz-adv-x="1024" />

    
    <glyph glyph-name="sousuo" unicode="&#59084;" d="M201.216 694.784c153.173333 153.216 400.170667 154.666667 551.594667 3.242667 144.341333-144.298667 149.76-375.424 17.322666-529.450667l232.533334-232.533333a30.165333 30.165333 0 0 0-42.666667-42.666667l-232.576 232.533333c-154.026667-132.48-385.152-127.061333-529.493333 17.28-151.381333 151.424-149.930667 398.378667 3.285333 551.594667z m42.154667-42.154667c-129.621333-129.664-130.858667-338.645333-2.730667-466.773333 128.128-128.128 337.066667-126.890667 466.773333 2.773333 129.621333 129.621333 130.858667 338.602667 2.730667 466.730667s-337.109333 126.890667-466.773333-2.730667z"  horiz-adv-x="1024" />

    
    <glyph glyph-name="xinzeng" unicode="&#59085;" d="M512 682.666667c12.373333 0 22.4-10.026667 22.4-22.4v-253.866667h253.866667a22.4 22.4 0 1 0 0-44.8h-253.866667v-253.866667a22.4 22.4 0 1 0-44.8 0v253.866667h-253.866667a22.4 22.4 0 1 0 0 44.8h253.866667v253.866667c0 12.373333 10.026667 22.4 22.4 22.4z"  horiz-adv-x="1024" />

    
    <glyph glyph-name="lichang" unicode="&#59086;" d="M671.104 725.333333c18.176 0 35.669333-7.082667 48.597333-19.84 12.885333-12.714667 20.138667-29.994667 20.181334-48.042666l0.256-28.842667H371.626667a23.04 23.04 0 0 1-23.04-23.04v-485.802667c0-12.757333 10.282667-23.04 23.04-23.04h368.512l-0.256-28.842666A68.352 68.352 0 0 0 671.146667 0H196.821333A68.352 68.352 0 0 0 128 67.84V657.493333c0 18.048 7.296 35.328 20.224 48.042667A68.992 68.992 0 0 0 196.821333 725.333333h474.282667z m32.853333-199.936c6.229333 0 12.288-2.005333 17.237334-5.717333L938.666667 356.864l-217.472-162.816a28.8 28.8 0 0 0-46.08 23.04v96.298667l-205.738667-0.042667a48.938667 48.938667 0 0 0-48.981333 48.981333v0.725334c0 27.008 21.930667 48.938667 48.981333 48.938666h205.738667V496.597333c0 15.914667 12.928 28.8 28.842666 28.8z"  horiz-adv-x="1024" />

    
    <glyph glyph-name="dayin" unicode="&#59087;" d="M763.733333 384.128a43.989333 43.989333 0 1 0 0.085334 88.021333 43.989333 43.989333 0 0 0-0.042667-88.021333z m-44.885333-295.594667a29.098667 29.098667 0 0 0-29.141333-29.141333H334.208a29.098667 29.098667 0 0 0-29.141333 29.141333v236.032h413.781333v-236.032zM304.896 680.96c0 16.128 13.013333 29.141333 29.141333 29.141333h288.64s-6.826667-58.709333 10.282667-80.128c17.152-21.418667 84.608-15.530667 84.608-15.530666v-80.725334H304.896V680.96zM827.690667 533.76h-49.066667V646.314667s0.469333 3.328-5.12 14.08c-4.864 9.386667-59.648 73.088-96.042667 100.992-4.138667 3.2-4.693333 4.992-12.970666 6.613333h-350.293334c-37.674667 0-68.266667-30.592-68.266666-68.309333V533.76H196.266667C158.592 533.76 128 503.168 128 465.493333v-219.52c0-37.717333 30.592-68.266667 68.266667-68.266666h49.664V68.266667c0-37.717333 30.592-68.309333 68.266666-68.309334h396.074667c37.717333 0 68.309333 30.592 68.309333 68.266667v109.312H827.733333c37.717333 0 68.309333 30.592 68.309334 68.309333v219.562667c0 37.717333-30.592 68.309333-68.309334 68.309333zM393.685333 177.578667h148.096a29.568 29.568 0 0 0 0-59.136H393.685333a29.568 29.568 0 0 0 0 59.136z m0 88.277333h236.373334a29.568 29.568 0 0 0 0-59.136h-236.373334a29.568 29.568 0 0 0 0 59.136z"  horiz-adv-x="1024" />

    
    <glyph glyph-name="yonghu" unicode="&#59088;" d="M512 28.458667a353.834667 353.834667 0 0 0-239.616 93.610666c61.013333 19.712 162.986667 48.597333 237.354667 48.597334 75.605333 0 180.053333-29.994667 240.64-49.664A353.578667 353.578667 0 0 0 512 28.416z m-177.792 360.746666V490.581333A178.048 178.048 0 0 0 512 668.458667a178.005333 178.005333 0 0 0 177.792-177.877334v-105.642666c0-11.392-1.322667-22.442667-3.370667-33.237334l-1.024-5.077333c-4.693333-21.077333-13.141333-41.173333-25.002666-59.178667l-2.218667-3.285333a181.333333 181.333333 0 0 0-45.653333-45.525333l-2.218667-1.493334a176.810667 176.810667 0 0 0-98.304-29.824 176.938667 176.938667 0 0 0-98.56 29.866667l-1.962667 1.408a180.138667 180.138667 0 0 0-45.653333 45.568l-2.304 3.413333a176.938667 176.938667 0 0 0-24.917333 59.050667l-1.024 5.12a178.773333 178.773333 0 0 0-3.370667 33.194667v4.266666zM512 810.666667C276.736 810.666667 85.333333 619.264 85.333333 384s191.402667-426.666667 426.666667-426.666667 426.666667 191.402667 426.666667 426.666667S747.264 810.666667 512 810.666667z"  horiz-adv-x="1024" />

    
    <glyph glyph-name="shangxiashu" unicode="&#59089;" d="M284.103111 810.666667c16.782222 0 30.407111-13.596444 30.407111-30.378667l-0.028444-566.641778h122.140444V660.878222c0 16.782222 13.596444 30.378667 30.378667 30.378667h99.555555c16.782222 0 30.350222-13.596444 30.350223-30.378667V213.617778h122.112V714.808889c0 16.782222 13.653333 30.378667 30.407111 30.378667h99.527111c16.782222 0 30.378667-13.596444 30.378667-30.378667V213.617778h59.306666c15.729778 0 28.472889-12.771556 28.472889-28.501334v-85.560888c0-15.729778-12.743111-28.472889-28.472889-28.472889H85.333333A28.472889 28.472889 0 0 0 56.888889 99.584V185.173333c0 15.729778 12.743111 28.472889 28.472889 28.472889l68.835555 0.028445V780.259556C154.197333 797.070222 167.822222 810.666667 184.604444 810.666667h99.498667z"  horiz-adv-x="1024" />

    
    <glyph glyph-name="Bshu" unicode="&#59090;" d="M825.514667 839.111111C856.604444 839.111111 881.777778 813.937778 881.777778 782.848v-797.696A56.263111 56.263111 0 0 0 825.514667-71.111111H198.485333A56.263111 56.263111 0 0 0 142.222222-14.848V782.848C142.222222 813.937778 167.395556 839.111111 198.485333 839.111111h627.029334z m-254.008889-496.924444a29.155556 29.155556 0 0 1-29.240889-29.070223v-0.085333c0-16.128 13.084444-29.240889 29.240889-29.240889h3.413333V79.644444h-3.726222a28.928 28.928 0 0 1 0-57.827555h131.527111c13.653333 0 26.368 2.417778 38.172444 7.281778a91.022222 91.022222 0 0 1 30.663112 20.48c8.647111 8.789333 15.473778 19.228444 20.48 31.345777 4.977778 12.088889 7.452444 25.400889 7.452444 39.907556 0 14.222222-3.043556 26.282667-9.159111 36.181333a78.563556 78.563556 0 0 1-24.974222 25.031111c9.955556 6.200889 17.664 14.364444 23.068444 24.490667 5.404444 10.126222 8.135111 22.926222 8.135111 38.4a97.28 97.28 0 0 1-7.281778 37.489778 94.577778 94.577778 0 0 1-51.456 51.740444 100.096 100.096 0 0 1-39.736888 7.68l-126.577778 0.369778z m126.520889-187.648c3.982222 0 7.793778-0.938667 11.377777-2.844445 3.640889-1.848889 6.798222-4.437333 9.500445-7.736889 2.702222-3.271111 4.835556-7.111111 6.371555-11.52 1.564444-4.380444 2.360889-9.187556 2.360889-14.336a43.178667 43.178667 0 0 0-8.618666-26.083555c-2.645333-3.413333-5.774222-6.200889-9.386667-8.277334a22.755556 22.755556 0 0 0-11.605333-3.128888h-53.617778v73.955555h53.617778z m-3.214223 128.967111c3.982222 0 7.68-1.109333 11.235556-3.299556 3.527111-2.190222 6.599111-5.034667 9.216-8.590222 2.616889-3.527111 4.693333-7.480889 6.257778-11.861333 1.536-4.380444 2.332444-8.760889 2.332444-13.141334 0-4.522667-0.796444-8.874667-2.332444-13.027555a41.415111 41.415111 0 0 0-6.257778-11.235556c-2.616889-3.328-5.688889-5.973333-9.216-7.964444a22.613333 22.613333 0 0 0-11.235556-2.958222h-50.403555v72.078222h50.403555z m-310.556444 116.622222h-98.218667a29.383111 29.383111 0 0 1 0-58.794667h98.218667a29.383111 29.383111 0 0 1 0 58.794667z m149.418667 136.533333h-247.637334a29.383111 29.383111 0 0 1 0-58.794666h247.637334a29.383111 29.383111 0 0 1 0 58.794666z m181.589333 136.533334h-429.226667a29.383111 29.383111 0 0 1 0-58.794667h429.226667a29.383111 29.383111 0 0 1 0 58.794667z"  horiz-adv-x="1024" />

    
    <glyph glyph-name="fanhui" unicode="&#59091;" d="M868.906667 67.498667a660.48 660.48 0 0 1-13.610667 176.981333c-35.712 148.565333-130.517333 241.792-284.373333 279.68a519.637333 519.637333 0 0 1-195.370667 13.056l-10.922667 80.512a71.338667 71.338667 0 0 1-9.386666 20.096 34.688 34.688 0 0 1-11.776 11.264 43.306667 43.306667 0 0 1-26.026667 3.968 94.72 94.72 0 0 1-18.730667-5.546667l-3.498666-2.133333-206.677334-216.618667c-4.565333-5.888-8.32-12.373333-11.093333-19.328-2.090667-5.162667-3.2-10.666667-3.328-16.213333 0.042667-4.949333 1.28-9.813333 3.584-14.08a64.853333 64.853333 0 0 1 15.786667-20.352l6.272-5.717333c0.725333-0.768 1.578667-1.322667 2.517333-1.706667l236.928-129.792c12.970667-6.314667 27.136-9.770667 41.557333-10.154667 11.178667 0.341333 19.114667 2.773333 23.594667 7.253334a39.765333 39.765333 0 0 1 9.984 18.005333c1.493333 5.333333 2.56 10.794667 3.114667 16.298667a23.466667 23.466667 0 0 1-0.725334 8.277333l-11.605333 80.682667a604.245333 604.245333 0 0 0 157.568 0.085333c48.042667-6.826667 87.424-17.408 118.058667-31.616a317.866667 317.866667 0 0 0 82.389333-55.338667c20.949333-18.688 39.552-39.893333 55.381333-63.232 12.501333-19.541333 23.125333-40.234667 31.701334-61.866666 6.101333-14.506667 11.306667-29.354667 15.658666-44.501334 1.493333-5.888 2.56-11.904 3.029334-17.92z"  horiz-adv-x="1024" />

    
    <glyph glyph-name="liebiaoliu" unicode="&#59092;" d="M936.760889 150.755556c16.782222 0 30.350222-13.596444 30.350222-30.350223v-104.277333c0-16.782222-13.596444-30.350222-30.350222-30.350222H87.239111C70.456889-14.222222 56.888889-0.625778 56.888889 16.128v104.277333c0 16.782222 13.596444 30.350222 30.350222 30.350223h849.521778z m0 329.955555c16.782222 0 30.350222-13.596444 30.350222-30.350222v-104.277333c0-16.782222-13.596444-30.350222-30.350222-30.350223H87.239111C70.456889 315.733333 56.888889 329.329778 56.888889 346.083556v104.277333c0 16.782222 13.596444 30.350222 30.350222 30.350222h849.521778z m0 329.955556C953.543111 810.666667 967.111111 797.070222 967.111111 780.316444v-104.277333c0-16.782222-13.596444-30.350222-30.350222-30.350222H87.239111C70.456889 645.688889 56.888889 659.285333 56.888889 676.039111V780.316444C56.888889 797.098667 70.485333 810.666667 87.239111 810.666667h849.521778z"  horiz-adv-x="1024" />

    
    <glyph glyph-name="qianwang" unicode="&#59093;" d="M561.152 737.194667l2.844444-2.759111L909.425778 384 563.996444 33.564444c-28.017778-28.444444-73.472-28.444444-101.546666 0a73.614222 73.614222 0 0 0-2.673778 100.096l2.702222 2.901334 172.088889 174.592H211.996444a71.793778 71.793778 0 0 0-71.765333 71.793778v2.104888a71.793778 71.793778 0 0 0 71.765333 71.793778H634.595556L462.478222 631.466667a73.614222 73.614222 0 0 0-2.702222 100.124444l2.702222 2.872889a71.054222 71.054222 0 0 0 98.673778 2.759111z"  horiz-adv-x="1024" />

    
    <glyph glyph-name="kapianliu" unicode="&#59094;" d="M436.138667 353.649778a45.511111 45.511111 0 0 0 45.511111-45.511111V-25.6a45.511111 45.511111 0 0 0-45.511111-45.511111H102.4A45.511111 45.511111 0 0 0 56.888889-25.6V308.138667a45.511111 45.511111 0 0 0 45.511111 45.511111h333.738667z m485.461333 0a45.511111 45.511111 0 0 0 45.511111-45.511111V-25.6a45.511111 45.511111 0 0 0-45.511111-45.511111H587.861333a45.511111 45.511111 0 0 0-45.511111 45.511111V308.138667a45.511111 45.511111 0 0 0 45.511111 45.511111H921.6zM436.138667 839.111111a45.511111 45.511111 0 0 0 45.511111-45.511111v-333.738667a45.511111 45.511111 0 0 0-45.511111-45.511111H102.4a45.511111 45.511111 0 0 0-45.511111 45.511111V793.6A45.511111 45.511111 0 0 0 102.4 839.111111h333.738667zM921.6 839.111111A45.511111 45.511111 0 0 0 967.111111 793.6v-333.738667a45.511111 45.511111 0 0 0-45.511111-45.511111H587.861333a45.511111 45.511111 0 0 0-45.511111 45.511111V793.6a45.511111 45.511111 0 0 0 45.511111 45.511111H921.6z"  horiz-adv-x="1024" />

    
    <glyph glyph-name="dabu" unicode="&#59095;" d="M967.111111 446.976v-318.748444A57.116444 57.116444 0 0 0 909.994667 71.111111H114.005333A57.116444 57.116444 0 0 0 56.888889 128.227556V446.976h910.222222z m-226.104889-176.327111H637.724444v-96.853333h103.281778v96.853333z m-142.279111 0h-103.281778v-96.853333h103.281778v96.853333z m284.586667 0h-103.310222v-96.853333h103.310222v96.853333zM909.994667 696.888889C941.568 696.888889 967.111111 671.317333 967.111111 639.772444v-95.943111H56.888889V639.772444C56.888889 671.345778 82.460444 696.888889 114.005333 696.888889h795.989334z"  horiz-adv-x="1024" />

    
    <glyph glyph-name="chuliang" unicode="&#59096;" d="M961.706667 409.628444c3.555556-8.106667 5.404444-16.896 5.404444-25.770666v-334.136889A63.943111 63.943111 0 0 0 903.168-14.222222H149.276444A63.943111 63.943111 0 0 0 85.333333 49.720889V383.857778a63.943111 63.943111 0 0 0 89.713778 58.538666l291.356445-128.199111c38.115556-16.782222 81.521778-16.782222 119.637333 0l291.356444 128.199111a63.943111 63.943111 0 0 0 84.309334-32.768z m-196.295111-227.925333H287.004444a31.658667 31.658667 0 1 1 0-63.317333H765.44a31.658667 31.658667 0 1 1 0 63.317333zM745.187556 810.666667c19.342222 0 35.072-15.701333 35.072-35.072v-321.877334l-192.085334-86.755555a148.536889 148.536889 0 0 0-121.884444-0.199111L272.213333 453.717333V775.594667c0 19.370667 15.701333 35.072 35.072 35.072h437.930667z m-220.017778-67.413334a26.794667 26.794667 0 0 1-27.164445-26.424889v-14.136888c-34.759111-3.185778-62.065778-31.772444-62.065777-66.446223v-20.138666c0-36.778667 30.748444-66.730667 68.551111-66.730667h41.358222c7.850667 0 14.222222-6.200889 14.222222-13.852444v-20.138667a14.051556 14.051556 0 0 0-14.222222-13.852445h-41.358222a14.051556 14.051556 0 0 0-14.222223 13.852445 26.794667 26.794667 0 0 1-27.164444 26.453333 26.794667 26.794667 0 0 1-27.164444-26.453333c0-34.673778 27.306667-63.232 62.065777-66.417778v-14.165333c0-14.592 12.174222-26.453333 27.164445-26.453334a26.794667 26.794667 0 0 1 27.164444 26.453334v14.165333c34.759111 3.185778 62.065778 31.744 62.065778 66.417778v20.138667c0 36.807111-30.72 66.730667-68.551111 66.730666h-41.358222a14.051556 14.051556 0 0 0-14.222223 13.852445v20.138666c0 7.651556 6.371556 13.852444 14.222223 13.852445h41.386666c7.822222 0 14.222222-6.200889 14.222223-13.852445 0-14.592 12.145778-26.453333 27.136-26.453333a26.794667 26.794667 0 0 1 27.164444 26.453333c0 34.702222-27.306667 63.260444-62.065778 66.446223V716.8a26.794667 26.794667 0 0 1-27.164444 26.453333z"  horiz-adv-x="1024" />

    
    <glyph glyph-name="huanfu" unicode="&#59097;" d="M687.303111 696.888889c1.28 0 2.616889-0.056889 3.982222-0.170667a49.777778 49.777778 0 0 0 38.826667-14.136889l137.187556-135.224889c19.313778-19.057778 19.313778-50.033778 0-69.091555l-99.072-97.649778c-8.391111-8.248889-19.228444-13.198222-30.919112-14.136889v-246.044444c0-27.192889-22.414222-49.322667-50.005333-49.322667H336.355556c-27.591111 0-50.033778 22.129778-50.033778 49.322667V356.408889a49.436444 49.436444 0 0 0-30.520889 14.108444L156.728889 468.195556A48.184889 48.184889 0 0 0 142.222222 502.755556c0 13.027556 5.148444 25.315556 14.506667 34.531555l135.594667 133.688889C300.942222 686.848 317.724444 696.888889 336.355556 696.888889z m-185.571555-489.728h-116.423112a23.950222 23.950222 0 0 1-23.950222-23.950222v-6.542223c0-13.198222 10.723556-23.921778 23.950222-23.921777h116.423112a23.950222 23.950222 0 0 1 23.950222 23.950222v6.513778a23.950222 23.950222 0 0 1-23.950222 23.950222z m133.518222 435.313778h-246.499556v-12.8a123.249778 123.249778 0 1 1 246.499556 0v12.8z"  horiz-adv-x="1024" />

    
    <glyph glyph-name="qitajiaoyi" unicode="&#59098;" d="M149.902222 410.055111l2.446222-2.133333 115.712-114.119111a25.856 25.856 0 0 0-11.605333-43.406223l-2.958222-0.568888-26.709333-3.754667c54.272-130.275556 193.649778-212.622222 342.840888-191.630222 111.36 15.644444 204.885333 85.959111 250.311112 184.604444l1.336888 2.986667c13.937778 31.004444 50.830222 45.312 82.432 31.857778A60.444444 60.444444 0 0 0 935.822222 193.422222c-62.236444-138.837333-193.137778-238.250667-349.127111-260.181333-217.912889-30.634667-420.750222 97.621333-486.627555 295.025778l-42.040889-5.888a25.856 25.856 0 0 0-27.505778 35.356444l1.422222 2.901333 79.758222 141.596445a25.856 25.856 0 0 0 38.200889 7.850667z m375.523556 207.246222c20.707556 0 37.489778-16.497778 37.489778-36.864v-19.768889c48.014222-4.437333 85.703111-44.288 85.703111-92.672 0-20.366222-16.782222-36.892444-37.489778-36.892444-20.707556 0-37.489778 16.526222-37.489778 36.892444 0 10.666667-8.817778 19.342222-19.626667 19.342223h-57.173333c-10.808889 0-19.626667-8.675556-19.626667-19.342223v-28.103111c0-10.638222 8.817778-19.342222 19.626667-19.342222h57.173333c52.167111 0 94.606222-41.728 94.606223-93.070222v-28.103111c0-48.355556-37.688889-88.234667-85.703111-92.672v-19.768889c0-20.366222-16.782222-36.864-37.489778-36.864-20.707556 0-37.489778 16.497778-37.489778 36.864v19.768889c-48.014222 4.437333-85.703111 44.288-85.703111 92.672 0 20.366222 16.782222 36.864 37.489778 36.864 20.707556 0 37.489778-16.497778 37.489777-36.864 0-10.666667 8.817778-19.342222 19.626667-19.342222h57.173333c10.808889 0 19.626667 8.675556 19.626667 19.342222v28.103111c0 10.638222-8.817778 19.342222-19.626667 19.342222h-57.173333c-52.167111 0-94.634667 41.728-94.634667 93.070222v28.103111c0 48.355556 37.717333 88.234667 85.731556 92.672v19.768889c0 20.366222 16.782222 36.864 37.489778 36.864z m426.979555-77.539555l42.040889 5.888a25.856 25.856 0 0 0 27.505778-35.356445l-1.422222-2.901333-79.758222-141.596444a25.856 25.856 0 0 0-38.200889-7.850667l-2.474667 2.133333-115.683556 114.119111a25.856 25.856 0 0 0 11.576889 43.406223l2.958223 0.568888 26.709333 3.754667c-54.272 130.275556-193.649778 212.622222-342.869333 191.630222-111.331556-15.644444-204.856889-85.959111-250.282667-184.604444l-1.336889-2.986667c-13.937778-31.004444-50.830222-45.312-82.432-31.857778A60.444444 60.444444 0 0 0 116.622222 574.577778c62.236444 138.837333 193.137778 238.250667 349.098667 260.181333 217.941333 30.634667 420.778667-97.621333 486.656-295.025778z"  horiz-adv-x="1024" />

    
    <glyph glyph-name="hukouziliao" unicode="&#59099;" d="M181.617778 719.36v-19.626667a66.531556 66.531556 0 0 1 66.275555-66.787555 66.531556 66.531556 0 0 1 66.275556 66.787555l-0.028445 19.626667h395.690667v-19.626667a66.531556 66.531556 0 0 1 66.275556-66.787555 66.531556 66.531556 0 0 1 66.275555 66.787555l-0.028444 19.626667h68.494222c31.089778 0 56.263111-25.173333 56.263111-56.234667v-592.64A56.263111 56.263111 0 0 0 910.848 14.222222H113.152A56.263111 56.263111 0 0 0 56.888889 70.485333V663.125333c0 31.061333 25.173333 56.234667 56.263111 56.234667h68.465778z m210.062222-351.431111H283.448889a116.48 116.48 0 0 1-115.825778-104.305778l-0.483555-5.745778-4.977778-90.965333-0.028445-0.995556c0-9.102222 6.712889-16.64 15.445334-17.92l2.673777-0.199111h315.591112a18.119111 18.119111 0 0 1 17.066666 16.412445l0.056889 2.702222-5.006222 90.965333a116.48 116.48 0 0 1-116.280889 110.08z m464.099556-145.493333h-256.824889a29.468444 29.468444 0 0 1-3.214223-58.766223l3.214223-0.170666h256.853333a29.468444 29.468444 0 1 1 0 58.936889z m0 168.903111h-256.824889a29.468444 29.468444 0 0 1-3.214223-58.737778l3.214223-0.170667h256.853333a29.468444 29.468444 0 1 1 0 58.908445z m-518.229334 194.474666c-97.649778 0-92.216889-49.066667-92.216889-105.415111 0-56.348444 41.301333-102.058667 92.216889-102.058666s92.216889 45.710222 92.216889 102.058666v7.992889c0.284444 52.906667 0.796444 97.422222-92.216889 97.422222z m508.501334-25.543111h-247.096889a29.468444 29.468444 0 0 1-3.214223-58.766222l3.214223-0.170667h247.096889a29.468444 29.468444 0 1 1 0 58.936889zM776.078222 782.222222c19.399111 0 35.100444-15.815111 35.100445-35.356444V699.733333c0-19.541333-15.701333-35.356444-35.072-35.356444A35.214222 35.214222 0 0 0 740.977778 699.733333V746.865778c0 19.541333 15.729778 35.356444 35.100444 35.356444zM247.921778 782.222222c19.370667 0 35.100444-15.815111 35.100444-35.356444V699.733333c0-19.541333-15.729778-35.356444-35.100444-35.356444A35.214222 35.214222 0 0 0 212.821333 699.733333V746.865778C212.821333 766.407111 228.522667 782.222222 247.893333 782.222222z"  horiz-adv-x="1024" />

    
    <glyph glyph-name="zhedie" unicode="&#59100;" d="M199.111111 412.444444m42.666667 0l540.444444 0q42.666667 0 42.666667-42.666666l0 0q0-42.666667-42.666667-42.666667l-540.444444 0q-42.666667 0-42.666667 42.666667l0 0q0 42.666667 42.666667 42.666666Z"  horiz-adv-x="1024" />

    
    <glyph glyph-name="maimabaojia" unicode="&#59101;" d="M825.514667 839.111111C856.604444 839.111111 881.777778 813.937778 881.777778 782.848v-797.696A56.263111 56.263111 0 0 0 825.514667-71.111111H198.485333A56.263111 56.263111 0 0 0 142.222222-14.848V782.848C142.222222 813.937778 167.395556 839.111111 198.485333 839.111111h627.029334zM666.168889 400.128c-17.322667 0-31.374222-14.222222-31.374222-31.744v-16.981333c-40.163556-3.84-71.68-38.115556-71.68-79.758223v-24.177777c0-44.174222 35.498667-80.099556 79.160889-80.099556h47.786666c9.102222 0 16.440889-7.452444 16.440889-16.611555v-24.177778c0-9.187556-7.367111-16.64-16.412444-16.64h-47.815111a16.554667 16.554667 0 0 0-16.440889 16.64 31.573333 31.573333 0 0 1-31.374223 31.715555c-17.322667 0-31.374222-14.222222-31.374222-31.715555 0-41.642667 31.573333-75.946667 71.736889-79.758222v-16.981334a31.573333 31.573333 0 0 1 31.345778-31.744c17.351111 0 31.374222 14.222222 31.374222 31.744v16.981334c40.192 3.84 71.708444 38.115556 71.708445 79.758222v24.177778c0 44.174222-35.498667 80.099556-79.160889 80.099555h-47.786667A16.554667 16.554667 0 0 0 625.777778 247.466667v24.177777c0 9.187556 7.395556 16.64 16.440889 16.64h47.786666c9.102222 0 16.469333-7.452444 16.469334-16.64a31.573333 31.573333 0 0 1 31.345777-31.715555c17.351111 0 31.374222 14.222222 31.374223 31.715555 0 41.642667-31.516444 75.946667-71.68 79.758223v16.981333a31.573333 31.573333 0 0 1-31.402667 31.744z m-281.884445 0h-98.218666a29.383111 29.383111 0 0 1 0-58.794667h98.218666a29.383111 29.383111 0 0 1 0 58.794667z m149.418667 136.533333h-247.637333a29.383111 29.383111 0 0 1 0-58.794666h247.637333a29.383111 29.383111 0 0 1 0 58.794666z m181.589333 136.533334h-429.226666a29.383111 29.383111 0 0 1 0-58.794667h429.226666a29.383111 29.383111 0 0 1 0 58.794667z"  horiz-adv-x="1024" />

    
    <glyph glyph-name="caozuozhinan" unicode="&#59102;" d="M540.444444 322.048v-13.767111a28.444444 28.444444 0 0 0-56.888888 0V341.333333c0 13.198222 9.159111 23.779556 21.333333 27.022223 64.028444 26.737778 64.056889 66.389333 64 68.096l-0.028445 43.719111c0 25.372444-25.514667 46.08-56.888888 46.08-31.345778 0-56.860444-20.707556-56.860445-46.08v-13.852445a28.444444 28.444444 0 0 0-56.888889 0v13.852445c0 56.746667 51.029333 102.968889 113.749334 102.968889 62.748444 0 113.777778-46.222222 113.777777-102.968889v-42.296889c0.142222-1.137778 4.152889-71.793778-85.304889-115.825778M512 184.888889a28.444444 28.444444 0 1 0 0 56.888889 28.444444 28.444444 0 0 0 0-56.888889m0 540.444444C323.783111 725.333333 170.666667 572.188444 170.666667 384c0-188.216889 153.116444-341.333333 341.333333-341.333333s341.333333 153.116444 341.333333 341.333333c0 188.188444-153.116444 341.333333-341.333333 341.333333"  horiz-adv-x="1024" />

    
    <glyph glyph-name="sheding" unicode="&#59103;" d="M512 839.111111a99.84 99.84 0 0 0 99.555556-99.555555v-28.984889c21.077333-6.4 41.472-14.848 60.956444-25.258667l20.508444 20.508444a98.901333 98.901333 0 0 0 70.4 29.155556c26.595556 0 51.598222-10.353778 70.4-29.155556a99.697778 99.697778 0 0 0 0-140.8l-20.48-20.48c10.382222-19.512889 18.830222-39.907556 25.230223-60.984888H867.555556c26.595556 0 51.569778-10.353778 70.4-29.155556A98.901333 98.901333 0 0 0 967.111111 384c0-54.897778-44.657778-99.555556-99.555555-99.555556h-28.984889a338.232889 338.232889 0 0 0-25.258667-60.956444l20.508444-20.508444c18.773333-18.773333 29.155556-43.804444 29.155556-70.4s-10.353778-51.598222-29.155556-70.4a99.299556 99.299556 0 0 0-70.4-29.098667 99.214222 99.214222 0 0 0-70.4 29.098667l-20.48 20.48c-19.512889-10.382222-39.907556-18.830222-60.984888-25.230223V28.444444c0-26.567111-10.353778-51.569778-29.155556-70.4a99.157333 99.157333 0 0 0-50.517333-27.164444A99.669333 99.669333 0 0 0 412.444444 28.444444v28.984889a338.204444 338.204444 0 0 0-60.956444 25.258667l-20.508444-20.48A98.901333 98.901333 0 0 0 260.551111 32.995556a98.901333 98.901333 0 0 0-70.4 29.155555 99.697778 99.697778 0 0 0 0 140.8l20.48 20.48A338.062222 338.062222 0 0 0 185.457778 284.444444H156.444444a98.901333 98.901333 0 0 0-70.4 29.155556A98.901333 98.901333 0 0 0 56.888889 384c0 54.897778 44.657778 99.555556 99.555555 99.555556h28.984889c6.4 21.077333 14.848 41.472 25.258667 60.956444l-20.508444 20.508444A98.901333 98.901333 0 0 0 161.024 635.448889c0 26.595556 10.353778 51.598222 29.155556 70.4a99.697778 99.697778 0 0 0 140.8 0l20.48-20.48A338.062222 338.062222 0 0 0 412.444444 710.542222V739.555556c0 26.567111 10.353778 51.569778 29.155556 70.4A98.901333 98.901333 0 0 0 512 839.111111z m0-256c-109.795556 0-199.111111-89.315556-199.111111-199.111111a199.338667 199.338667 0 0 1 215.665778-198.4 198.371556 198.371556 0 0 1 129.621333 63.203556A198.485333 198.485333 0 0 1 711.111111 384c0 50.289778-18.773333 98.304-52.935111 135.196444A198.257778 198.257778 0 0 1 512 583.111111z m0-56.888889c4.010667 0 7.964444-0.170667 11.889778-0.512C596.992 519.708444 654.222222 457.443556 654.222222 384c0-73.472-57.258667-135.68-130.474666-141.738667A142.392889 142.392889 0 0 0 369.777778 384c0 78.421333 63.800889 142.222222 142.222222 142.222222z"  horiz-adv-x="1024" />

    
    <glyph glyph-name="cunma" unicode="&#59104;" d="M902.912 685.795556A64.199111 64.199111 0 0 0 967.111111 621.568v-143.815111h-257.592889a126.691556 126.691556 0 0 1-126.520889-120.718222l-0.142222-5.973334c0-67.982222 53.504-123.448889 120.718222-126.549333l5.973334-0.142222H967.111111v-145.976889A64.199111 64.199111 0 0 0 902.912 14.222222H149.532444A64.199111 64.199111 0 0 0 85.333333 78.421333V621.596444a64.199111 64.199111 0 0 0 64.199111 64.170667h753.379556z m-634.026667-229.034667a39.822222 39.822222 0 0 1-39.651555-35.982222l-0.170667-3.84v-135.822223a39.822222 39.822222 0 0 1 79.445333-3.811555l0.170667 3.811555v135.822223a39.822222 39.822222 0 0 1-39.822222 39.822222z m441.685334-37.944889a66.616889 66.616889 0 1 0 0-133.233778 66.616889 66.616889 0 0 0 0 133.233778z m-10.069334 412.131556c34.588444 17.436444 76.714667 6.087111 98.702223-25.742223l45.539555-82.545777h-339.911111z"  horiz-adv-x="1024" />

    
    <glyph glyph-name="guanbi" unicode="&#59105;" d="M755.399111 627.399111c16.782222-16.782222 16.782222-44.060444 0-60.871111L572.842667 384l182.556444-182.556444a43.036444 43.036444 0 1 0-60.871111-60.842667L512 323.157333l-182.556444-182.556444a43.036444 43.036444 0 1 0-60.842667 60.871111L451.157333 384l-182.556444 182.556444a43.036444 43.036444 0 1 0 60.871111 60.842667L512 444.842667l182.556444 182.556444c16.782222 16.782222 44.032 16.782222 60.842667 0z"  horiz-adv-x="1024" />

    
    <glyph glyph-name="xiaofei" unicode="&#59106;" d="M834.503111 839.111111C860.615111 839.111111 881.777778 817.948444 881.777778 791.836444V-35.271111a35.84 35.84 0 0 0-61.809778-24.718222l-37.717333 39.623111a39.395556 39.395556 0 0 1-52.053334 4.408889l-60.387555-45.056a39.395556 39.395556 0 0 0-45.795556-0.938667l-74.496 50.944a39.395556 39.395556 0 0 1-45.880889-1.024l-64.199111-48.213333c-13.909333-10.439111-32.995556-10.524444-46.990222-0.256l-62.037333 45.624889a39.395556 39.395556 0 0 1-50.858667-3.584l-42.496-41.528889A39.082667 39.082667 0 0 0 170.666667-32.028444V791.836444C170.666667 817.948444 191.829333 839.111111 217.941333 839.111111h616.561778zM281.713778 223.857778a23.381333 23.381333 0 0 1-23.381334-23.381334v-96.142222a23.381333 23.381333 0 1 1 46.762667 0v96.142222a23.381333 23.381333 0 0 1-23.381333 23.381334z m339.000889 0a23.381333 23.381333 0 0 1-23.381334-23.381334v-96.142222a23.381333 23.381333 0 1 1 46.762667 0v96.142222a23.381333 23.381333 0 0 1-23.381333 23.381334z m-263.025778 0a23.381333 23.381333 0 0 1-23.381333-23.381334v-96.142222a23.381333 23.381333 0 1 1 46.762666 0v96.142222a23.381333 23.381333 0 0 1-23.381333 23.381334z m339.000889 0a23.381333 23.381333 0 0 1-23.381334-23.381334v-96.142222a23.381333 23.381333 0 1 1 46.762667 0v96.142222a23.381333 23.381333 0 0 1-23.381333 23.381334z m-262.997334 0a23.381333 23.381333 0 0 1-23.381333-23.381334v-96.142222a23.381333 23.381333 0 0 1 46.734222 0v96.142222a23.381333 23.381333 0 0 1-23.352889 23.381334z m338.972445 0a23.381333 23.381333 0 0 1-23.381333-23.381334v-96.142222a23.381333 23.381333 0 1 1 46.762666 0v96.142222a23.381333 23.381333 0 0 1-23.381333 23.381334zM526.222222 710.115556c-17.834667 0-32.312889-14.876444-32.312889-33.223112v-17.777777c-41.386667-4.010667-73.870222-39.907556-73.870222-83.456v-25.315556c0-46.222222 36.579556-83.825778 81.550222-83.825778h49.237334c9.358222 0 16.952889-7.822222 16.952889-17.408v-25.315555a17.180444 17.180444 0 0 0-16.952889-17.379556h-49.208889a17.180444 17.180444 0 0 0-16.952889 17.379556c0 18.346667-14.449778 33.223111-32.312889 33.223111-17.834667 0-32.312889-14.876444-32.312889-33.223111 0-43.548444 32.483556-79.445333 73.870222-83.456v-17.777778c0-18.346667 14.478222-33.223111 32.312889-33.223111 17.834667 0 32.312889 14.876444 32.312889 33.223111v17.777778c41.386667 4.010667 73.870222 39.907556 73.870222 83.456v25.315555c0 46.222222-36.579556 83.825778-81.550222 83.825778h-49.237333a17.180444 17.180444 0 0 0-16.952889 17.408v25.315556c0 9.585778 7.594667 17.379556 16.952889 17.379555h49.208889c9.358222 0 16.952889-7.793778 16.952889-17.379555 0-18.346667 14.449778-33.223111 32.312888-33.223111 17.834667 0 32.312889 14.876444 32.312889 33.223111 0 43.548444-32.483556 79.445333-73.870222 83.456v17.777777c0 18.346667-14.478222 33.223111-32.312889 33.223112z"  horiz-adv-x="1024" />

    
    <glyph glyph-name="shuangjiantou1" unicode="&#59107;" d="M267.946667 588.416l192-182.869333a29.461333 29.461333 0 0 0 0-43.093334l-192-182.869333a33.152 33.152 0 0 0-45.226667 0 29.461333 29.461333 0 0 0 0 43.093333L392.064 384l-169.386667 161.301333a29.461333 29.461333 0 0 0 0 43.093334 33.152 33.152 0 0 0 45.269334 0z m277.333333 0l192-182.869333a29.461333 29.461333 0 0 0 0-43.093334l-192-182.869333a33.152 33.152 0 0 0-45.226667 0 29.461333 29.461333 0 0 0 0 43.093333L669.397333 384l-169.386666 161.301333a29.461333 29.461333 0 0 0 0 43.093334 33.152 33.152 0 0 0 45.269333 0z"  horiz-adv-x="1024" />

    
    <glyph glyph-name="ziliaochaxun" unicode="&#59108;" d="M825.514667 839.111111C856.604444 839.111111 881.777778 813.937778 881.777778 782.848v-797.696A56.263111 56.263111 0 0 0 825.514667-71.111111H198.485333A56.263111 56.263111 0 0 0 142.222222-14.848V782.848C142.222222 813.937778 167.395556 839.111111 198.485333 839.111111h627.029334zM627.2 344.177778a137.955556 137.955556 0 1 1 76.060444-253.070222l67.242667-67.242667a25.201778 25.201778 0 0 1 35.612445 0l0.568888 0.568889a25.201778 25.201778 0 0 1 0 35.640889l-66.702222 66.702222A137.955556 137.955556 0 0 1 627.2 344.177778z m0-50.375111a87.580444 87.580444 0 1 0 0-175.160889 87.580444 87.580444 0 0 0 0 175.160889z m-242.944 106.325333h-98.218667a29.383111 29.383111 0 0 1-3.185777-58.595556l3.185777-0.199111h98.218667a29.383111 29.383111 0 0 1 0 58.794667z m149.418667 136.533333h-247.637334a29.383111 29.383111 0 0 1-3.185777-58.595555l3.185777-0.199111h247.637334a29.383111 29.383111 0 0 1 0 58.794666z m181.589333 136.533334h-429.226667a29.383111 29.383111 0 0 1-3.185777-58.595556l3.185777-0.199111h429.226667a29.383111 29.383111 0 0 1 0 58.794667z"  horiz-adv-x="1024" />

    
    <glyph glyph-name="feishu" unicode="&#59109;" d="M768.398222 440.120889l2.787556-2.218667 243.683555-222.094222c8.590222-7.793778 11.406222-19.825778 7.224889-30.634667a27.648 27.648 0 0 0-22.528-17.607111l-3.441778-0.199111H957.155556v-213.020444a25.457778 25.457778 0 0 0-22.272-25.258667l-3.185778-0.199111h-108.231111v152.405333a16.981333 16.981333 0 0 1-14.222223 16.753778l-2.759111 0.227556H698.311111a16.981333 16.981333 0 0 1-16.753778-14.222223l-0.199111-2.759111-0.028444-152.376889-108.202667-0.028444a25.457778 25.457778 0 0 0-25.287111 22.272l-0.199111 3.185778v213.020444h-38.912a27.676444 27.676444 0 0 0-25.969778 17.806222 27.648 27.648 0 0 0 4.551111 27.875556l2.673778 2.759111 243.683556 222.094222a27.704889 27.704889 0 0 0 34.730666 2.218667zM175.274667 231.765333c1.109333-0.824889 2.104889-1.792 2.929777-2.901333l54.328889-72.817778a14.364444 14.364444 0 0 0-11.491555-22.983111h-19.512889v-74.695111c0-5.489778 4.465778-9.955556 9.955555-9.955556h159.232c18.147556 0 32.881778-14.535111 33.194667-32.625777v-0.568889c0-18.119111-14.563556-32.881778-32.625778-33.194667H184.945778a49.777778 49.777778 0 0 0-49.777778 49.777778l-0.028444 101.262222h-22.812445a14.364444 14.364444 0 0 0-11.491555 22.954667l54.328888 72.817778a14.364444 14.364444 0 0 0 20.110223 2.929777zM263.111111 839.111111c145.066667 0 263.111111-118.072889 263.111111-263.224889 0-145.123556-118.044444-263.196444-263.111111-263.196444S0 430.762667 0 575.886222C0 721.066667 118.044444 839.111111 263.111111 839.111111z m-1.052444-65.28c-17.152 0-31.061333-13.994667-31.061334-31.260444v-16.725334a78.791111 78.791111 0 0 1-71.025777-78.506666v-23.808a78.734222 78.734222 0 0 1 78.421333-78.876445h47.331555c8.96 0 16.270222-7.338667 16.270223-16.384v-23.808a16.355556 16.355556 0 0 0-16.270223-16.384H238.364444a16.327111 16.327111 0 0 0-16.298666 16.384c0 17.265778-13.909333 31.260444-31.061334 31.260445-17.152 0-31.061333-13.994667-31.061333-31.288889a78.791111 78.791111 0 0 1 71.025778-78.506667v-16.725333c0-17.237333 13.909333-31.232 31.061333-31.232 17.152 0 31.061333 13.994667 31.061334 31.232v16.753778a78.791111 78.791111 0 0 1 71.025777 78.506666v23.808a78.734222 78.734222 0 0 1-78.421333 78.876445H238.392889a16.327111 16.327111 0 0 0-16.270222 16.384v23.808c0 9.016889 7.281778 16.355556 16.270222 16.355555h47.331555c8.988444 0 16.270222-7.338667 16.270223-16.355555 0-17.265778 13.937778-31.260444 31.061333-31.260445 17.180444 0 31.089778 13.994667 31.089778 31.260445a78.791111 78.791111 0 0 1-71.025778 78.506666v16.725334c0 17.265778-13.909333 31.288889-31.061333 31.288889z m588.373333-38.200889c27.505778 0 49.777778-22.272 49.777778-49.777778l0.028444-101.262222h22.784a14.364444 14.364444 0 0 0 11.52-22.954666l-54.328889-72.817778a14.364444 14.364444 0 0 0-23.04 0l-54.328889 72.817778a14.364444 14.364444 0 0 0 11.491556 22.954666h19.512889V659.285333a9.955556 9.955556 0 0 1-9.955556 9.955556h-159.260444A33.194667 33.194667 0 0 0 631.466667 701.866667v0.568889c0 18.147556 14.535111 32.881778 32.597333 33.194666h186.368z"  horiz-adv-x="1024" />

    
    <glyph glyph-name="zhuanma" unicode="&#59110;" d="M760.746667 433.635556c145.152 0 263.253333-119.580444 263.253333-266.581334S905.898667-99.555556 760.746667-99.555556c-145.180444 0-263.281778 119.608889-263.281778 266.609778 0 147.000889 118.101333 266.581333 263.281778 266.581334z m-585.443556-181.191112c1.137778-0.853333 2.190222-1.905778 3.043556-3.043555l54.613333-74.069333a14.364444 14.364444 0 0 0-11.576889-22.897778h-19.740444v-75.776c0-5.518222 4.465778-9.955556 9.955555-9.955556h159.345778c18.147556 0 32.910222-14.762667 33.194667-33.052444v-0.568889c0-18.375111-14.535111-33.308444-32.625778-33.621333H185.031111a49.777778 49.777778 0 0 0-49.777778 49.777777v103.196445h-23.068444a14.364444 14.364444 0 0 0-11.576889 22.897778l54.613333 74.069333a14.364444 14.364444 0 0 0 20.081778 3.015111z m574.919111-10.296888c-8.192 0-15.815111-1.706667-22.812444-5.12-7.025778-3.413333-13.084444-8.106667-18.204445-14.108445-5.12-5.973333-9.102222-13.084444-11.946666-21.333333-2.844444-8.192-4.266667-17.180444-4.266667-26.965334 0-9.756444 1.422222-18.773333 4.266667-26.965333 2.844444-8.248889 6.826667-15.331556 11.946666-21.333333 5.12-5.973333 11.178667-10.666667 18.204445-13.994667 7.025778-3.328 14.620444-4.977778 22.812444-4.977778 8.163556 0 15.729778 1.649778 22.698667 4.977778 6.940444 3.328 12.970667 7.992889 18.090667 13.994667 5.12 6.001778 9.102222 13.084444 12.060444 21.333333 2.901333 8.220444 4.380444 17.208889 4.380444 26.965333 0 9.784889-1.479111 18.773333-4.380444 26.993778a67.157333 67.157333 0 0 1-12.060444 21.333334 56.064 56.064 0 0 1-18.090667 14.08c-6.968889 3.413333-14.506667 5.12-22.698667 5.12z m134.627556 0c-8.192 0-15.786667-1.706667-22.812445-5.12-6.997333-3.413333-13.084444-8.106667-18.204444-14.108445-5.12-5.973333-9.102222-13.084444-11.946667-21.333333-2.844444-8.192-4.266667-17.180444-4.266666-26.965334 0-9.756444 1.422222-18.773333 4.266666-26.965333 2.844444-8.248889 6.826667-15.331556 11.946667-21.333333 5.12-5.973333 11.207111-10.666667 18.204444-13.994667 7.025778-3.328 14.620444-4.977778 22.812445-4.977778 8.192 0 15.758222 1.649778 22.698666 4.977778 6.940444 3.328 12.970667 7.992889 18.090667 13.994667 5.12 6.001778 9.130667 13.084444 12.060445 21.333333 2.929778 8.220444 4.408889 17.208889 4.408888 26.965333 0 9.784889-1.479111 18.773333-4.408888 26.993778a67.157333 67.157333 0 0 1-12.060445 21.333334 56.064 56.064 0 0 1-18.090667 14.08c-6.940444 3.413333-14.506667 5.12-22.698666 5.12z m-235.093334-5.774223h-35.726222a20.906667 20.906667 0 0 0-5.489778-5.774222 101.319111 101.319111 0 0 0-9.870222-6.997333c-3.640889-2.275556-7.338667-4.266667-11.093333-5.888-2.759111-1.223111-5.176889-1.991111-7.196445-2.275556l-1.877333-0.170666v-32.853334c2.759111 0 5.973333 0.455111 9.528889 1.422222a68.750222 68.750222 0 0 1 19.854222 8.903112 30.151111 30.151111 0 0 1 4.579556 3.640888l1.564444 1.792v-56.604444h-31.146666v-32h94.72v31.971556h-27.847112V236.373333z m235.093334-26.88c6.456889 0 11.690667-3.214222 15.786666-9.671111 4.096-6.428444 6.144-14.819556 6.144-25.201778 0-10.353778-2.048-18.716444-6.144-25.088-4.067556-6.371556-9.329778-9.557333-15.786666-9.557333-6.712889 0-12.088889 3.185778-16.099556 9.557333-4.039111 6.371556-6.030222 14.734222-6.030222 25.088 0 10.382222 1.991111 18.773333 6.030222 25.201778 4.010667 6.456889 9.386667 9.671111 16.099556 9.671111z m-134.627556 0c6.428444 0 11.662222-3.214222 15.786667-9.671111 4.067556-6.428444 6.144-14.819556 6.144-25.201778 0-10.353778-2.048-18.716444-6.144-25.088-4.096-6.371556-9.386667-9.557333-15.786667-9.557333-6.741333 0-12.117333 3.185778-16.128 9.557333-4.039111 6.371556-6.030222 14.734222-6.030222 25.088 0 10.382222 1.991111 18.773333 6.030222 25.201778 4.010667 6.456889 9.386667 9.671111 16.128 9.671111zM263.253333 867.555556c145.180444 0 263.281778-119.608889 263.281778-266.609778 0-147.000889-118.101333-266.581333-263.281778-266.581334C118.101333 334.364444 0 453.944889 0 600.945778S118.101333 867.555556 263.253333 867.555556z m-1.052444-66.104889c-17.152 0-31.089778-14.193778-31.089778-31.658667v-16.952889C191.317333 749.027556 160.056889 714.808889 160.056889 673.28v-24.120889c0-44.060444 35.214222-79.900444 78.478222-79.900444h47.36c8.988444 0 16.270222-7.424 16.270222-16.554667v-24.120889a16.440889 16.440889 0 0 0-16.270222-16.583111H238.535111a16.440889 16.440889 0 0 0-16.298667 16.583111c0 17.464889-13.937778 31.630222-31.089777 31.630222s-31.089778-14.165333-31.089778-31.630222c0-41.528889 31.260444-75.719111 71.054222-79.530667v-16.952888c0-17.493333 13.937778-31.658667 31.089778-31.658667 17.180444 0 31.089778 14.165333 31.089778 31.658667v16.952888c39.822222 3.811556 71.054222 38.001778 71.054222 79.530667v24.120889c0 44.032-35.185778 79.872-78.449778 79.872H238.535111a16.440889 16.440889 0 0 0-16.298667 16.583111v24.120889c0 9.159111 7.310222 16.583111 16.298667 16.583111h47.36c8.988444 0 16.298667-7.424 16.298667-16.583111 0-17.493333 13.909333-31.658667 31.061333-31.658667 17.180444 0 31.089778 14.193778 31.089778 31.658667 0 41.528889-31.232 75.719111-71.054222 79.530667v16.952889c0 17.464889-13.937778 31.658667-31.089778 31.658666z m588.771555-38.684445c27.477333 0 49.777778-22.300444 49.777778-49.777778v-103.253333l23.04 0.028445a14.364444 14.364444 0 0 0 11.576889-22.869334l-54.613333-74.069333a14.364444 14.364444 0 0 0-23.125334 0l-54.613333 74.069333a14.364444 14.364444 0 0 0 11.576889 22.869334h19.740444V685.511111a9.955556 9.955556 0 0 1-9.955555 9.955556H665.031111a33.422222 33.422222 0 0 0-33.194667 33.052444v0.568889c0 18.403556 14.563556 33.336889 32.625778 33.621333h186.510222z"  horiz-adv-x="1024" />

    
    <glyph glyph-name="dianhua" unicode="&#59111;" d="M291.498667 667.363556c32.199111 24.974222 46.136889 41.244444 106.183111-40.106667 60.074667-81.351111 32.142222-111.729778 30.008889-119.324445-2.104889-7.623111-52.508444-49.891556-52.508445-49.891555s-38.627556-19.541333-19.342222-65.109333c19.342222-45.482667 87.921778-124.814222 126.549333-159.544889 38.627556-34.702222 70.826667-19.541333 70.826667-19.541334l32.142222 23.921778s12.174222 11.320889 35.299556 28.615111c23.096889 17.265778 37.831111 13.824 48.014222 11.747556 10.24-1.991111 78.705778-50.119111 109.795556-90.311111 31.146667-40.106667 19.285333-45.511111-49.379556-101.944889-68.551111-56.376889-116.792889-46.620444-185.514667-31.459556-68.664889 15.189333-191.943111 109.539556-273.493333 233.244445-81.521778 123.704889-75.093333 193.137778-65.422222 249.514666 9.557333 56.433778 54.698667 105.272889 86.840889 130.190223z m296.817777 29.44c1.080889-0.113778 2.133333-0.284444 3.128889-0.540445l-1.479111 0.284445c154.737778-27.306667 257.934222-175.672889 230.456889-331.434667a19.626667 19.626667 0 0 0-20.679111-15.047111 19.456 19.456 0 0 0-17.152 24.149333l-0.170667-1.052444 0.995556 6.001777c19.256889 131.811556-69.034667 255.772444-200.248889 278.897778a19.569778 19.569778 0 0 0 5.148444 38.741334z m-21.333333-128.284445a19.342222 19.342222 0 0 0 4.551111-0.967111l-4.181333 0.796444c84.394667-14.876444 140.686222-95.829333 125.724444-180.792888l-0.227555 0.085333v-0.768a19.484444 19.484444 0 0 0-18.147556-17.806222l-2.844444 0.028444a19.456 19.456 0 0 0-16.867556 25.173333l-0.142222 0.028445c11.235556 63.715556-30.976 124.416-94.293333 135.594667a19.911111 19.911111 0 0 0-14.592 20.878222 19.456 19.456 0 0 0 21.020444 17.749333z m-20.679111-102.684444h2.844444l0.113778-0.028445c1.991111-0.199111 3.811556-0.654222 5.489778-1.336889a51.882667 51.882667 0 0 0 36.408889-58.936889 19.456 19.456 0 1 0-38.172445 7.395556l-0.028444-0.625778 0.199111 2.304a12.970667 12.970667 0 0 1-10.666667 12.743111 19.768889 19.768889 0 0 0-14.364444 20.707556 19.484444 19.484444 0 0 0 18.176 17.806222z"  horiz-adv-x="1024" />

    
    <glyph glyph-name="daikuan" unicode="&#59112;" d="M158.72 384.711111c16.099556 0 29.155556-13.312 29.155556-29.724444v-396.373334c0-16.412444-13.056-29.724444-29.155556-29.724444H57.6A29.44 29.44 0 0 0 28.444444-41.386667V354.986667c0 16.412444 13.084444 29.724444 29.155556 29.724444z m109.482667-43.463111a166.513778 166.513778 0 0 0 215.239111-16.014222h204.174222c37.148444 0 67.328-30.321778 68.039111-67.982222a69.802667 69.802667 0 0 0-69.404444-70.741334h-177.521778c-16.099556 0-29.184-13.312-29.184-29.724444s13.084444-29.724444 29.184-29.724445h204.828444a115.911111 115.911111 0 0 1 92.700445 46.677334l110.307555 147.057777c34.787556 46.364444 107.434667 21.276444 107.434667-37.091555 0-11.690667-3.299556-23.153778-9.500444-32.995556l-113.834667-180.451555a174.222222 174.222222 0 0 0-147.2-81.92H246.215111V325.233778zM635.136 896c133.973333 0 243.029333-111.132444 243.029333-247.722667s-109.027556-247.722667-243.057777-247.722666-243.057778 111.132444-243.057778 247.722666S501.077333 896 635.107556 896z m-0.995556-61.44c-15.843556 0-28.728889-13.169778-28.728888-29.411556v-15.758222c-36.721778-3.527111-65.564444-35.299556-65.564445-73.870222v-22.414222c0-40.96 32.483556-74.24 72.419556-74.24h43.747555c8.277333 0 15.018667-6.912 15.018667-15.416889v-22.414222a15.246222 15.246222 0 0 0-15.018667-15.388445h-43.747555a15.246222 15.246222 0 0 0-15.018667 15.388445c0 16.241778-12.856889 29.411556-28.728889 29.411555-15.843556 0-28.672-13.169778-28.672-29.411555 0-38.570667 28.842667-70.343111 65.592889-73.898667v-15.729778c0-16.241778 12.856889-29.411556 28.700444-29.411555 15.843556 0 28.700444 13.169778 28.700445 29.411555v15.758222c36.750222 3.527111 65.592889 35.299556 65.592889 73.870223v22.414222c0 40.96-32.483556 74.24-72.419556 74.24h-43.747555a15.246222 15.246222 0 0 0-15.018667 15.416889v22.414222c0 8.476444 6.741333 15.388444 15.018667 15.388444h43.747555c8.277333 0 15.018667-6.912 15.018667-15.388444 0-16.241778 12.856889-29.411556 28.728889-29.411556 15.843556 0 28.672 13.169778 28.672 29.411556 0 38.570667-28.842667 70.343111-65.592889 73.870222v15.758222c0 16.241778-12.856889 29.411556-28.700445 29.411556z"  horiz-adv-x="1024" />

    


  </font>
</defs>
</svg>
