<?xml version="1.0" standalone="no"?><!DOCTYPE svg PUBLIC "-//W3C//DTD SVG 1.1//EN" "http://www.w3.org/Graphics/SVG/1.1/DTD/svg11.dtd"><svg t="1595991568712" class="icon" viewBox="0 0 1024 1024" version="1.1" xmlns="http://www.w3.org/2000/svg" p-id="2603" xmlns:xlink="http://www.w3.org/1999/xlink" width="200" height="200"><defs><style type="text/css"></style></defs><path d="M912 823.04h-373.333333a26.666667 26.666667 0 0 1-26.666667-26.709333v-533.333334c0-14.72 11.946667-26.666667 26.666667-26.666666h373.333333c14.72 0 26.666667 11.946667 26.666667 26.666666v533.333334c0 14.72-11.946667 26.666667-26.666667 26.666666z" fill="#67C23B" fill-opacity=".1" p-id="2604"></path><path d="M645.333333 396.373333h-106.666666a26.666667 26.666667 0 0 1 0-53.333333h106.666666a26.666667 26.666667 0 0 1 0 53.333333zM645.333333 503.04h-106.666666a26.666667 26.666667 0 0 1 0-53.333333h106.666666a26.666667 26.666667 0 0 1 0 53.333333zM645.333333 609.706667h-106.666666a26.666667 26.666667 0 0 1 0-53.333334h106.666666a26.666667 26.666667 0 0 1 0 53.333334zM645.333333 716.373333h-106.666666a26.666667 26.666667 0 0 1 0-53.333333h106.666666a26.666667 26.666667 0 0 1 0 53.333333zM805.333333 396.373333h-53.333333a26.666667 26.666667 0 0 1 0-53.333333h53.333333a26.666667 26.666667 0 0 1 0 53.333333zM805.333333 503.04h-53.333333a26.666667 26.666667 0 0 1 0-53.333333h53.333333a26.666667 26.666667 0 0 1 0 53.333333zM805.333333 609.706667h-53.333333a26.666667 26.666667 0 0 1 0-53.333334h53.333333a26.666667 26.666667 0 0 1 0 53.333334zM805.333333 716.373333h-53.333333a26.666667 26.666667 0 0 1 0-53.333333h53.333333a26.666667 26.666667 0 0 1 0 53.333333z" fill="#67C23B" p-id="2605"></path><path d="M555.690667 135.808a26.197333 26.197333 0 0 0-21.930667-5.632l-426.666667 80a26.581333 26.581333 0 0 0-21.76 26.154667v586.666666c0 12.8 9.130667 23.893333 21.76 26.197334l426.666667 80a26.538667 26.538667 0 0 0 31.573333-26.197334v-746.666666a26.581333 26.581333 0 0 0-9.642666-20.48z" fill="#67C23B" p-id="2606"></path><path d="M452.053333 618.794667l-84.309333-96.384 85.248-109.653334a26.709333 26.709333 0 0 0-42.069333-32.768l-78.976 101.546667-66.56-76.074667a26.624 26.624 0 1 0-40.106667 35.072l73.344 83.882667-74.368 95.573333a26.709333 26.709333 0 1 0 42.154667 32.725334l68.010666-87.466667 77.525334 88.576a26.453333 26.453333 0 0 0 37.589333 2.56 26.624 26.624 0 0 0 2.517333-37.546667z" fill="#FAFAFA" p-id="2607"></path></svg>