<?xml version="1.0" encoding="UTF-8"?>
<svg width="157px" height="54px" viewBox="0 0 157 54" version="1.1" xmlns="http://www.w3.org/2000/svg" xmlns:xlink="http://www.w3.org/1999/xlink">
    <!-- Generator: Sketch 64 (93537) - https://sketch.com -->
    <title>编组 2</title>
    <desc>Created with Sketch.</desc>
    <defs>
        <path d="M64,0 L64,58.212766 L63.965,58.212 L63.9659574,34.9617021 C60.187234,38.093617 54.1276596,36.5617021 46.2297872,35.2340426 C38.3319149,33.906383 30.3319149,35.9489362 26.1106383,37.7191489 C21.8893617,39.4553191 14.6723404,40.1702128 13.7191489,39.1148936 C13.0382979,38.3319149 15.4893617,36.9021277 15.4893617,36.9021277 L11.506383,36.9021277 C10.9617021,36.9021277 10.4170213,36.9361702 9.87234043,37.0042553 C8.88510638,37.1404255 7.93191489,37.3106383 7.01276596,37.6851064 C6.16170213,38.0255319 5.3787234,38.5702128 4.69787234,39.1829787 C3.23404255,40.5106383 2.34893617,42.3148936 1.70212766,44.1191489 C1.0212766,45.9574468 0.578723404,49.2255319 0.0680851064,51.0978723 L0.068,58.212 L0,58.212766 L0,0 L64,0 Z" id="path-1"></path>
        <linearGradient x1="0.303194049%" y1="1.02082804%" x2="100%" y2="99.2779878%" id="linearGradient-3">
            <stop stop-color="#E7E083" offset="0.0923775338%"></stop>
            <stop stop-color="#99893E" offset="100%"></stop>
        </linearGradient>
        <linearGradient x1="0.211011443%" y1="39.2183241%" x2="100%" y2="60.8273699%" id="linearGradient-4">
            <stop stop-color="#E7E083" offset="0.0923775338%"></stop>
            <stop stop-color="#99893E" offset="100%"></stop>
        </linearGradient>
        <linearGradient x1="45.1902164%" y1="0.211011443%" x2="54.830168%" y2="100%" id="linearGradient-5">
            <stop stop-color="#E7E083" offset="0.0923775338%"></stop>
            <stop stop-color="#99893E" offset="100%"></stop>
        </linearGradient>
        <linearGradient x1="43.2840004%" y1="0.211011443%" x2="56.7444628%" y2="100%" id="linearGradient-6">
            <stop stop-color="#E7E083" offset="0.0923775338%"></stop>
            <stop stop-color="#99893E" offset="100%"></stop>
        </linearGradient>
        <linearGradient x1="0.211011443%" y1="45.1902164%" x2="100%" y2="54.830168%" id="linearGradient-7">
            <stop stop-color="#E7E083" offset="0.0923775338%"></stop>
            <stop stop-color="#99893E" offset="100%"></stop>
        </linearGradient>
        <linearGradient x1="0.211011443%" y1="43.6308082%" x2="100%" y2="56.3961852%" id="linearGradient-8">
            <stop stop-color="#E7E083" offset="0.0923775338%"></stop>
            <stop stop-color="#99893E" offset="100%"></stop>
        </linearGradient>
        <linearGradient x1="39.2183241%" y1="0.211011443%" x2="60.8273699%" y2="100%" id="linearGradient-9">
            <stop stop-color="#E7E083" offset="0.0923775338%"></stop>
            <stop stop-color="#99893E" offset="100%"></stop>
        </linearGradient>
        <linearGradient x1="0.211011443%" y1="45.1902164%" x2="100%" y2="54.830168%" id="linearGradient-10">
            <stop stop-color="#E7E083" offset="0.0923775338%"></stop>
            <stop stop-color="#99893E" offset="100%"></stop>
        </linearGradient>
        <linearGradient x1="0.211011443%" y1="0.902425761%" x2="100%" y2="99.3056554%" id="linearGradient-11">
            <stop stop-color="#E7E083" offset="0.0923775338%"></stop>
            <stop stop-color="#99893E" offset="100%"></stop>
        </linearGradient>
        <linearGradient x1="0.211011443%" y1="39.2183241%" x2="100%" y2="60.8273699%" id="linearGradient-12">
            <stop stop-color="#E7E083" offset="0.0923775338%"></stop>
            <stop stop-color="#99893E" offset="100%"></stop>
        </linearGradient>
        <linearGradient x1="45.1902164%" y1="0.211011443%" x2="54.830168%" y2="100%" id="linearGradient-13">
            <stop stop-color="#E7E083" offset="0.0923775338%"></stop>
            <stop stop-color="#99893E" offset="100%"></stop>
        </linearGradient>
        <linearGradient x1="0.902425761%" y1="0.211011443%" x2="99.3056554%" y2="100%" id="linearGradient-14">
            <stop stop-color="#E7E083" offset="0.0923775338%"></stop>
            <stop stop-color="#99893E" offset="100%"></stop>
        </linearGradient>
        <linearGradient x1="0.211011443%" y1="2.59101317%" x2="100%" y2="97.6099116%" id="linearGradient-15">
            <stop stop-color="#E7E083" offset="0.0923775338%"></stop>
            <stop stop-color="#99893E" offset="100%"></stop>
        </linearGradient>
        <linearGradient x1="0.211011443%" y1="0.61172602%" x2="100%" y2="99.5975871%" id="linearGradient-16">
            <stop stop-color="#E7E083" offset="0.0923775338%"></stop>
            <stop stop-color="#99893E" offset="100%"></stop>
        </linearGradient>
        <linearGradient x1="43.4163321%" y1="0.211011443%" x2="56.6115702%" y2="100%" id="linearGradient-17">
            <stop stop-color="#E7E083" offset="0.0923775338%"></stop>
            <stop stop-color="#99893E" offset="100%"></stop>
        </linearGradient>
        <linearGradient x1="38.528617%" y1="0.211011443%" x2="61.52%" y2="100%" id="linearGradient-18">
            <stop stop-color="#E7E083" offset="0.0923775338%"></stop>
            <stop stop-color="#99893E" offset="100%"></stop>
        </linearGradient>
        <linearGradient x1="39.0016124%" y1="0.211011443%" x2="61.045%" y2="100%" id="linearGradient-19">
            <stop stop-color="#E7E083" offset="0.0923775338%"></stop>
            <stop stop-color="#99893E" offset="100%"></stop>
        </linearGradient>
        <linearGradient x1="0.211011443%" y1="45.1465905%" x2="100%" y2="54.8739788%" id="linearGradient-20">
            <stop stop-color="#E7E083" offset="0.0923775338%"></stop>
            <stop stop-color="#99893E" offset="100%"></stop>
        </linearGradient>
        <linearGradient x1="0.211011443%" y1="43.4163321%" x2="100%" y2="56.6115702%" id="linearGradient-21">
            <stop stop-color="#E7E083" offset="0.0923775338%"></stop>
            <stop stop-color="#99893E" offset="100%"></stop>
        </linearGradient>
        <linearGradient x1="0.211011443%" y1="0.48125433%" x2="100%" y2="99.7286118%" id="linearGradient-22">
            <stop stop-color="#E7E083" offset="0.0923775338%"></stop>
            <stop stop-color="#99893E" offset="100%"></stop>
        </linearGradient>
        <linearGradient x1="1.38544361%" y1="50.2563192%" x2="98.7854965%" y2="48.9980846%" id="linearGradient-23">
            <stop stop-color="#8B6F28" offset="0.00263935811%"></stop>
            <stop stop-color="#E7E083" offset="21.6314659%"></stop>
            <stop stop-color="#797640" offset="52.3799941%"></stop>
            <stop stop-color="#FAF8A3" offset="80.9744704%"></stop>
            <stop stop-color="#99893E" offset="100%"></stop>
        </linearGradient>
    </defs>
    <g id="页面-1" stroke="none" stroke-width="1" fill="none" fill-rule="evenodd">
        <g id="登录页" transform="translate(-620.000000, -375.000000)">
            <g id="编组-2" transform="translate(620.000000, 371.000000)">
                <g id="logo">
                    <g id="XMLID_7_">
                        <mask id="mask-2" fill="white">
                            <use xlink:href="#path-1"></use>
                        </mask>
                        <g id="蒙版"></g>
                        <g mask="url(#mask-2)" fill-rule="nonzero">
                            <g transform="translate(2.723404, 4.085106)">
                                <path d="M29.3106383,15.1148936 C21.5829787,15.1148936 15.2851064,21.3787234 15.2170213,29.106383 C15.2851064,36.8340426 21.5829787,43.0978723 29.3106383,43.0978723 C37.0382979,43.0978723 43.3361702,36.8340426 43.4042553,29.106383 C43.3361702,21.3787234 37.0382979,15.1148936 29.3106383,15.1148936 Z M29.3106383,42.212766 C22.093617,42.212766 16.1702128,36.3234043 16.1361702,29.106383 C16.1702128,21.8893617 22.093617,16 29.3106383,16 C36.5276596,16 42.4510638,21.8893617 42.4851064,29.106383 C42.4510638,36.3234043 36.5617021,42.212766 29.3106383,42.212766 Z" id="XMLID_944_" fill="url(#linearGradient-3)"></path>
                                <rect id="XMLID_942_" fill="url(#linearGradient-4)" x="27.6085106" y="10.0085106" width="3.43829787" height="1.6"></rect>
                                <rect id="XMLID_939_" fill="url(#linearGradient-5)" x="28.1191489" y="16.7489362" width="2.34893617" height="7.55744681"></rect>
                                <path d="M30.6042553,9.36170213 C30.6042553,9.36170213 31.0468085,2.58723404 31.0468085,2.07659574 C31.0468085,2.00851064 31.0468085,1.73617021 31.012766,1.63404255 C31.012766,1.63404255 30.9787234,1.46382979 30.9446809,1.32765957 C30.9446809,1.29361702 30.9106383,1.25957447 30.9106383,1.22553191 C30.8765957,1.15744681 30.8765957,1.0893617 30.8425532,1.0212766 C30.8425532,0.987234043 30.8085106,0.953191489 30.8085106,0.953191489 C30.5021277,0.408510638 29.9574468,0 29.3106383,0 C28.3574468,0 27.6085106,0.782978723 27.6085106,1.80425532 C27.6085106,1.97446809 27.6085106,2.04255319 27.6085106,2.1106383 C27.6085106,2.75744681 28.0170213,9.32765957 28.0170213,9.32765957 L30.6042553,9.36170213 C30.6042553,9.32765957 30.6042553,9.36170213 30.6042553,9.36170213 Z" id="XMLID_938_" fill="url(#linearGradient-6)"></path>
                                <polygon id="XMLID_771_" fill="url(#linearGradient-7)" points="34.1106383 29.106383 34.1106383 30.2638298 41.6680851 30.2638298 41.6680851 29.106383 41.6680851 27.9148936 34.1106383 27.9148936"></polygon>
                                <path d="M56.6468085,27.4382979 C56.4765957,27.4382979 56.4085106,27.4382979 56.3404255,27.4382979 C55.693617,27.4382979 49.1234043,27.8468085 49.1234043,27.8468085 L49.1234043,29.106383 L49.1234043,30.3659574 C49.1234043,30.3659574 55.693617,30.7744681 56.3404255,30.7744681 C56.4085106,30.7744681 56.4765957,30.7744681 56.6468085,30.7744681 C57.6340426,30.7744681 58.4170213,30.0595745 58.4510638,29.106383 C58.4510638,28.1531915 57.6340426,27.4382979 56.6468085,27.4382979 Z" id="XMLID_770_" fill="url(#linearGradient-8)"></path>
                                <rect id="XMLID_765_" fill="url(#linearGradient-9)" transform="translate(42.261879, 16.185137) rotate(-45.000000) translate(-42.261879, -16.185137) " x="41.4618868" y="14.4660046" width="1.59998466" height="3.4382649"></rect>
                                <rect id="XMLID_764_" fill="url(#linearGradient-10)" transform="translate(35.373486, 23.052097) rotate(-45.000000) translate(-35.373486, -23.052097) " x="31.5947988" y="21.8776402" width="7.55737433" height="2.34891364"></rect>
                                <path d="M49.6680851,11.2 C49.7021277,11.1659574 49.906383,10.9617021 49.9744681,10.8595745 C49.9744681,10.8595745 50.0765957,10.7234043 50.1446809,10.6212766 C50.1787234,10.587234 50.1787234,10.5531915 50.212766,10.5191489 C50.2468085,10.4510638 50.2808511,10.3829787 50.2808511,10.3148936 C50.2808511,10.2808511 50.3148936,10.2468085 50.3148936,10.2468085 C50.4851064,9.66808511 50.3829787,8.98723404 49.9404255,8.54468085 C49.293617,7.89787234 48.1702128,7.93191489 47.4553191,8.61276596 C47.3191489,8.74893617 47.2851064,8.78297872 47.2170213,8.85106383 C46.7404255,9.29361702 42.3829787,14.2297872 42.3829787,14.2297872 L44.187234,16.0340426 C44.187234,16.0340426 49.293617,11.5404255 49.6680851,11.2 Z" id="XMLID_759_" fill="url(#linearGradient-11)"></path>
                                <rect id="XMLID_669_" fill="url(#linearGradient-12)" transform="translate(16.356923, 16.195591) rotate(-45.000000) translate(-16.356923, -16.195591) " x="14.6377901" y="15.3955992" width="3.4382649" height="1.59998466"></rect>
                                <rect id="XMLID_665_" fill="url(#linearGradient-13)" transform="translate(23.230143, 23.056237) rotate(-45.000000) translate(-23.230143, -23.056237) " x="22.0556862" y="19.2775494" width="2.34891364" height="7.55737433"></rect>
                                <path d="M9.0212766,11.2 C9.49787234,11.6765957 14.4340426,16.0340426 14.4340426,16.0340426 L16.2382979,14.2297872 C16.2382979,14.2297872 11.7446809,9.12340426 11.4042553,8.74893617 C11.3702128,8.71489362 11.1659574,8.5106383 11.0638298,8.44255319 C11.0638298,8.44255319 10.9276596,8.34042553 10.8255319,8.27234043 C10.7914894,8.23829787 10.7574468,8.23829787 10.7234043,8.20425532 C10.6553191,8.17021277 10.587234,8.13617021 10.5191489,8.13617021 C10.4851064,8.13617021 10.4510638,8.10212766 10.4510638,8.10212766 C9.87234043,7.93191489 9.19148936,8.03404255 8.74893617,8.47659574 C8.10212766,9.12340426 8.13617021,10.2468085 8.81702128,10.9617021 C8.91914894,11.0978723 8.98723404,11.1659574 9.0212766,11.2 Z" id="XMLID_664_" fill="url(#linearGradient-14)"></path>
                                <path d="M25.1234043,29.106383 C25.1574468,31.387234 27.0297872,33.2255319 29.3446809,33.2255319 C31.6255319,33.2255319 33.4978723,31.387234 33.5659574,29.106383 C33.5319149,26.8255319 31.6595745,24.987234 29.3446809,24.987234 C27.0297872,24.987234 25.1914894,26.8255319 25.1234043,29.106383 Z M31.3531915,29.106383 C31.3191489,30.2297872 30.4,31.0808511 29.3106383,31.0808511 C28.2212766,31.0808511 27.3021277,30.1957447 27.2680851,29.106383 C27.3021277,27.9829787 28.2212766,27.1319149 29.3106383,27.1319149 C30.4340426,27.1319149 31.3191489,27.9829787 31.3531915,29.106383 Z" id="XMLID_626_" fill="url(#linearGradient-15)"></path>
                                <path d="M29.3106383,12.2893617 C19.9829787,12.2893617 12.4595745,19.812766 12.4255319,29.106383 C12.4595745,38.4 20.0170213,45.9234043 29.3106383,45.9234043 C38.6042553,45.9234043 46.1617021,38.4 46.1957447,29.106383 C46.1617021,19.7787234 38.6382979,12.2893617 29.3106383,12.2893617 Z M29.3106383,43.6765957 C21.2425532,43.6765957 14.6723404,37.1404255 14.6382979,29.0723404 C14.6723404,21.0042553 21.2425532,14.4680851 29.3106383,14.4680851 C37.3787234,14.4680851 43.9489362,21.0042553 43.9829787,29.0723404 C43.9489362,37.1744681 37.3787234,43.6765957 29.3106383,43.6765957 Z" id="XMLID_435_" fill="url(#linearGradient-16)"></path>
                                <rect id="XMLID_434_" fill="url(#linearGradient-4)" x="27.6085106" y="46.6042553" width="3.43829787" height="1.6"></rect>
                                <rect id="XMLID_433_" fill="url(#linearGradient-5)" x="28.1191489" y="33.8723404" width="2.34893617" height="7.55744681"></rect>
                                <path d="M28.0170213,48.8510638 C28.0170213,48.8510638 27.6085106,55.4212766 27.6085106,56.0680851 C27.6085106,56.1361702 27.6085106,56.2042553 27.6085106,56.3744681 C27.6085106,57.3957447 28.3574468,58.1787234 29.3106383,58.1787234 C29.9234043,58.1787234 30.5021277,57.8042553 30.7744681,57.2255319 C30.7744681,57.1914894 30.8085106,57.1914894 30.8085106,57.1574468 C30.8425532,57.0893617 30.8765957,57.0212766 30.8765957,56.9531915 C30.8765957,56.9191489 30.9106383,56.8851064 30.9106383,56.8510638 C30.9446809,56.7148936 30.9787234,56.5446809 30.9787234,56.5446809 C30.9787234,56.4425532 31.012766,56.1702128 31.012766,56.1021277 C31.012766,55.5914894 30.5702128,48.8170213 30.5702128,48.8170213 L28.0170213,48.8170213 C28.0170213,48.8170213 28.0170213,48.8510638 28.0170213,48.8510638 Z" id="XMLID_432_" fill="url(#linearGradient-17)"></path>
                                <polygon id="XMLID_429_" fill="url(#linearGradient-18)" points="46.8085106 30.8085106 48.4425532 30.8085106 48.4425532 29.106383 48.4425532 27.4042553 46.8085106 27.4042553 46.8085106 29.106383"></polygon>
                                <polygon id="XMLID_428_" fill="url(#linearGradient-19)" points="10.212766 30.8085106 11.812766 30.8085106 11.812766 29.106383 11.812766 27.4042553 10.212766 27.4042553 10.212766 29.106383"></polygon>
                                <polygon id="XMLID_418_" fill="url(#linearGradient-20)" points="24.5106383 29.106383 24.5106383 27.9148936 16.987234 27.9148936 16.987234 29.106383 16.987234 30.2638298 24.5106383 30.2638298"></polygon>
                                <path d="M9.53191489,29.106383 L9.53191489,27.8468085 C9.53191489,27.8468085 2.75744681,27.4042553 2.24680851,27.4042553 C2.1787234,27.4042553 1.90638298,27.4042553 1.80425532,27.4382979 C1.80425532,27.4382979 1.63404255,27.4723404 1.49787234,27.506383 C1.46382979,27.506383 1.42978723,27.5404255 1.39574468,27.5404255 C1.32765957,27.5744681 1.25957447,27.5744681 1.19148936,27.6085106 C1.15744681,27.6085106 1.12340426,27.6425532 1.12340426,27.6425532 C0.578723404,27.9148936 0.170212766,28.493617 0.170212766,29.106383 L0.170212766,29.106383 L0.170212766,29.106383 C0.170212766,29.7191489 0.544680851,30.2978723 1.12340426,30.5702128 C1.15744681,30.5702128 1.15744681,30.6042553 1.19148936,30.6042553 C1.25957447,30.6382979 1.32765957,30.6723404 1.39574468,30.6723404 C1.42978723,30.6723404 1.46382979,30.706383 1.49787234,30.706383 C1.63404255,30.7404255 1.80425532,30.7404255 1.80425532,30.7744681 C1.90638298,30.7744681 2.1787234,30.8085106 2.24680851,30.8085106 C2.75744681,30.8085106 9.53191489,30.3659574 9.53191489,30.3659574 L9.53191489,29.106383 Z" id="XMLID_413_" fill="url(#linearGradient-21)"></path>
                                <rect id="XMLID_409_" fill="url(#linearGradient-12)" transform="translate(42.259493, 42.026223) rotate(-45.000000) translate(-42.259493, -42.026223) " x="40.5403603" y="41.2262307" width="3.4382649" height="1.59998466"></rect>
                                <rect id="XMLID_408_" fill="url(#linearGradient-13)" transform="translate(35.344427, 35.131569) rotate(-45.000000) translate(-35.344427, -35.131569) " x="34.1699704" y="31.3528822" width="2.34891364" height="7.55737433"></rect>
                                <path d="M50.2808511,47.8978723 C50.2468085,47.8297872 50.2468085,47.7617021 50.212766,47.693617 C50.1787234,47.6595745 50.1787234,47.6255319 50.1446809,47.5914894 C50.0765957,47.4893617 49.9744681,47.3531915 49.9744681,47.3531915 C49.906383,47.2510638 49.7361702,47.0808511 49.6680851,47.012766 C49.3276596,46.6723404 44.187234,42.1787234 44.187234,42.1787234 L42.3829787,43.9829787 C42.3829787,43.9829787 46.7404255,48.9191489 47.2170213,49.3957447 C47.2510638,49.4297872 47.3191489,49.4978723 47.4553191,49.6340426 C48.1361702,50.3148936 49.2595745,50.3489362 49.9404255,49.7021277 C50.3829787,49.2595745 50.4851064,48.5787234 50.3148936,48 C50.3148936,47.9319149 50.3148936,47.8978723 50.2808511,47.8978723 Z" id="XMLID_407_" fill="url(#linearGradient-22)"></path>
                                <rect id="XMLID_406_" fill="url(#linearGradient-9)" transform="translate(16.354604, 42.016320) rotate(-45.000000) translate(-16.354604, -42.016320) " x="15.5546119" y="40.2971876" width="1.59998466" height="3.4382649"></rect>
                                <rect id="XMLID_400_" fill="url(#linearGradient-10)" transform="translate(23.242963, 35.149394) rotate(-45.000000) translate(-23.242963, -35.149394) " x="19.4642762" y="33.9749372" width="7.55737433" height="2.34891364"></rect>
                                <path d="M9.0212766,47.012766 C8.98723404,47.0468085 8.91914894,47.1148936 8.78297872,47.2510638 C8.10212766,47.9319149 8.06808511,49.0553191 8.71489362,49.7361702 C9.15744681,50.1787234 9.83829787,50.2808511 10.4170213,50.1106383 C10.4510638,50.1106383 10.4851064,50.0765957 10.4851064,50.0765957 C10.5531915,50.0425532 10.6212766,50.0425532 10.6893617,50.0085106 C10.7234043,49.9744681 10.7574468,49.9744681 10.7914894,49.9404255 C10.893617,49.8723404 11.0297872,49.7702128 11.0297872,49.7702128 C11.1319149,49.7021277 11.3021277,49.5319149 11.3702128,49.4638298 C11.7106383,49.1234043 16.2042553,43.9829787 16.2042553,43.9829787 L14.4,42.1787234 C14.4340426,42.1787234 9.49787234,46.5361702 9.0212766,47.012766 Z" id="XMLID_399_" fill="url(#linearGradient-14)"></path>
                            </g>
                        </g>
                    </g>
                    <g id="XMLID_94_" transform="translate(0.000000, 34.723404)" fill="url(#linearGradient-23)" fill-rule="nonzero">
                        <path d="M12.0510638,2.34893617 C11.0638298,2.92765957 10.1787234,3.81276596 9.63404255,4.97021277 C9.05531915,6.09361702 8.68085106,7.65957447 8.5787234,9.15744681 C8.5106383,10.0425532 8.5106383,11.2 8.81702128,12.1531915 C8.71489362,12.1531915 8.64680851,12.187234 8.54468085,12.187234 C7.18297872,12.4255319 4.18723404,13.6170213 0.0680851064,16.3404255 C0.306382979,15.5234043 1.05531915,12.3574468 1.56595745,10.7914894 C2.07659574,9.22553191 2.65531915,7.82978723 3.30212766,6.74042553 C5.78723404,2.65531915 8.88510638,2.45106383 12.0510638,2.34893617 Z M63.9659574,0.204255319 C63.4553191,2.21276596 63.5234043,2.92765957 62.6042553,5.58297872 C62.093617,7.14893617 61.2425532,9.05531915 60.4595745,10.1446809 C60.1191489,10.6212766 59.2,12.0851064 58.0765957,12.7659574 C55.1148936,14.4680851 49.0212766,11.6765957 46.8425532,10.8255319 C40.1702128,8.23829787 33.6,9.19148936 26.7574468,11.0638298 C22.6382979,12.2212766 18.0425532,14.2297872 13.8212766,14.1957447 C13.0382979,14.1957447 10.6893617,13.7531915 9.94042553,12.6978723 C8.78297872,11.1659574 9.29361702,7.35319149 10.2808511,5.24255319 C10.9617021,3.81276596 12.1191489,2.92765957 13.2765957,2.55319149 C13.9234043,2.34893617 14.6382979,2.24680851 15.387234,2.14468085 C14.706383,2.45106383 14.4,2.6212766 13.7531915,3.06382979 C12.7659574,3.67659574 12.4595745,4.2212766 12.8340426,4.76595745 C13.106383,5.17446809 13.787234,5.27659574 14.2638298,5.34468085 C19.812766,6.19574468 25.5319149,3.74468085 30.9446809,2.1106383 C35.4042553,0.782978723 40.0680851,0.408510638 44.6297872,0.919148936 C50.9957447,1.66808511 61.1404255,4.83404255 63.9659574,0.204255319 Z" id="形状结合"></path>
                    </g>
                    <g id="XMLID_65_" transform="translate(17.361702, 37.106383)" fill="#001370" fill-rule="nonzero">
                        <path d="M1.05531915,5.44680851 L1.05531915,5.99148936 C1.05531915,8.17021277 0.953191489,8.78297872 0.544680851,9.66808511 C0.374468085,9.46382979 0.306382979,9.39574468 0.10212766,9.32765957 C0.476595745,8.64680851 0.544680851,8.06808511 0.544680851,6.12765957 C0.544680851,5.54893617 0.544680851,5.20851064 0.510638298,5.00425532 C0.714893617,5.00425532 0.885106383,4.97021277 1.12340426,4.90212766 L2.48510638,4.66382979 L2.48510638,4.66382979 C2.48510638,4.52765957 2.48510638,4.45957447 2.45106383,4.35744681 L3.09787234,4.25531915 C3.06382979,4.35744681 3.06382979,4.45957447 3.06382979,4.59574468 L4.39148936,4.35744681 C4.62978723,4.32340426 4.83404255,4.25531915 5.00425532,4.2212766 L5.00425532,4.76595745 C4.8,4.8 4.62978723,4.8 4.39148936,4.86808511 L4.11914894,4.93617021 L4.11914894,5.14042553 L4.49361702,5.07234043 C4.69787234,5.03829787 4.83404255,5.00425532 4.97021277,4.97021277 L4.97021277,5.3787234 C4.8,5.3787234 4.69787234,5.41276596 4.49361702,5.44680851 L4.11914894,5.51489362 L4.11914894,5.75319149 C4.11914894,5.85531915 4.11914894,5.95744681 4.15319149,6.05957447 C3.98297872,6.05957447 3.91489362,6.09361702 3.7106383,6.12765957 L2.41702128,6.36595745 C2.24680851,6.4 2.14468085,6.43404255 2.04255319,6.46808511 C2.04255319,6.36595745 2.04255319,6.33191489 2.04255319,6.16170213 L2.04255319,5.92340426 L1.77021277,5.99148936 C1.56595745,6.02553191 1.42978723,6.05957447 1.29361702,6.09361702 L1.29361702,5.68510638 C1.42978723,5.68510638 1.53191489,5.65106383 1.77021277,5.61702128 L2.04255319,5.58297872 L2.04255319,5.3787234 L1.05531915,5.44680851 Z M1.90638298,8.68085106 C1.66808511,8.71489362 1.6,8.74893617 1.46382979,8.78297872 C1.46382979,8.74893617 1.46382979,8.74893617 1.46382979,8.68085106 C1.46382979,8.64680851 1.46382979,8.5106383 1.46382979,8.40851064 L1.46382979,7.52340426 C1.46382979,7.38723404 1.46382979,7.28510638 1.42978723,7.18297872 C1.56595745,7.18297872 1.63404255,7.14893617 1.87234043,7.11489362 L2.75744681,6.94468085 L2.75744681,6.77446809 L1.63404255,6.9787234 C1.42978723,7.01276596 1.29361702,7.04680851 1.12340426,7.08085106 L1.12340426,6.63829787 C1.25957447,6.63829787 1.39574468,6.60425532 1.63404255,6.57021277 L4.52765957,6.05957447 C4.73191489,6.02553191 4.86808511,5.99148936 5.03829787,5.95744681 L5.03829787,6.43404255 C4.90212766,6.43404255 4.76595745,6.46808511 4.56170213,6.50212766 L3.26808511,6.74042553 L3.26808511,6.9106383 L4.2212766,6.74042553 C4.42553191,6.70638298 4.49361702,6.67234043 4.62978723,6.63829787 C4.62978723,6.74042553 4.59574468,6.80851064 4.59574468,7.01276596 L4.59574468,7.86382979 C4.59574468,8.06808511 4.59574468,8.13617021 4.59574468,8.20425532 C4.45957447,8.20425532 4.39148936,8.23829787 4.18723404,8.27234043 L3.84680851,8.34042553 C4.18723404,8.44255319 4.56170213,8.44255319 5.10638298,8.40851064 C4.93617021,8.68085106 4.93617021,8.68085106 4.83404255,8.91914894 C4.2893617,8.91914894 3.88085106,8.88510638 3.40425532,8.68085106 L3.7106383,8.34042553 L2.38297872,8.5787234 L2.6893617,8.78297872 C2.1787234,9.12340426 1.83829787,9.29361702 1.19148936,9.49787234 C1.12340426,9.32765957 1.05531915,9.25957447 0.919148936,9.0893617 C1.46382979,8.91914894 1.80425532,8.81702128 2.21276596,8.5787234 L1.90638298,8.68085106 Z M2.00851064,7.4893617 L2.00851064,7.69361702 L2.75744681,7.55744681 L2.75744681,7.35319149 L2.00851064,7.4893617 Z M2.00851064,8.03404255 L2.00851064,8.23829787 L2.75744681,8.10212766 L2.75744681,7.89787234 L2.00851064,8.03404255 Z M2.55319149,5.34468085 L3.54042553,5.17446809 L3.54042553,4.97021277 L2.55319149,5.14042553 L2.55319149,5.34468085 Z M2.55319149,5.8893617 L3.54042553,5.71914894 L3.54042553,5.54893617 L2.55319149,5.71914894 L2.55319149,5.8893617 Z M3.26808511,7.45531915 L4.05106383,7.31914894 L4.05106383,7.11489362 L3.26808511,7.25106383 L3.26808511,7.45531915 Z M3.26808511,8 L4.05106383,7.86382979 L4.05106383,7.65957447 L3.26808511,7.79574468 L3.26808511,8 Z" id="XMLID_85_"></path>
                        <path d="M9.42978723,3.02978723 C9.15744681,3.06382979 8.98723404,3.09787234 8.78297872,3.16595745 L8.78297872,2.58723404 C8.95319149,2.58723404 9.15744681,2.55319149 9.46382979,2.51914894 L10.893617,2.31489362 C10.893617,2.1106383 10.893617,2.00851064 10.8595745,1.83829787 L11.506383,1.73617021 C11.4723404,1.90638298 11.4723404,2.00851064 11.4723404,2.21276596 L12.9361702,1.97446809 C13.2765957,1.90638298 13.4468085,1.87234043 13.6170213,1.83829787 L13.6170213,2.41702128 C13.4468085,2.41702128 13.2085106,2.45106383 12.9702128,2.48510638 L11.4723404,2.72340426 L11.4723404,3.02978723 L12.5957447,2.85957447 C12.9021277,2.82553191 13.0042553,2.79148936 13.1744681,2.75744681 C13.1744681,2.92765957 13.1404255,3.09787234 13.1404255,3.30212766 L13.1404255,4.32340426 C13.1404255,4.62978723 13.1404255,4.62978723 13.1744681,4.86808511 C13.0382979,4.86808511 12.8680851,4.90212766 12.5957447,4.93617021 L11.9829787,5.03829787 C12.4595745,5.41276596 13.0382979,5.58297872 13.8212766,5.65106383 C13.6851064,5.8893617 13.6510638,5.99148936 13.5148936,6.26382979 C13.106383,6.19574468 12.7659574,6.09361702 12.3914894,5.95744681 C12.0170213,5.78723404 11.7446809,5.61702128 11.4382979,5.34468085 C11.4382979,5.51489362 11.4382979,5.61702128 11.4382979,5.71914894 L11.4382979,6.09361702 C11.4382979,6.36595745 11.4382979,6.50212766 11.4723404,6.67234043 L10.8255319,6.77446809 C10.8595745,6.57021277 10.8595745,6.4 10.8595745,6.16170213 L10.8595745,5.78723404 C10.8595745,5.71914894 10.8595745,5.51489362 10.8595745,5.41276596 C10.587234,5.78723404 10.2808511,6.09361702 9.83829787,6.43404255 C9.6,6.60425532 9.25957447,6.80851064 8.91914894,6.9787234 C8.81702128,6.74042553 8.74893617,6.63829787 8.61276596,6.50212766 C9.0212766,6.33191489 9.29361702,6.19574468 9.63404255,5.95744681 C9.94042553,5.71914894 10.212766,5.51489362 10.3829787,5.3106383 L9.80425532,5.41276596 C9.46382979,5.48085106 9.36170213,5.48085106 9.22553191,5.54893617 C9.22553191,5.48085106 9.22553191,5.48085106 9.22553191,5.3787234 C9.22553191,5.34468085 9.22553191,5.34468085 9.22553191,5.00425532 L9.22553191,4.01702128 C9.22553191,3.74468085 9.22553191,3.67659574 9.19148936,3.47234043 C9.32765957,3.47234043 9.46382979,3.47234043 9.77021277,3.40425532 L10.8255319,3.23404255 L10.8255319,2.92765957 L9.42978723,3.02978723 Z M9.83829787,3.74468085 L9.83829787,4.05106383 L10.893617,3.88085106 L10.893617,3.57446809 L9.83829787,3.74468085 Z M9.83829787,4.52765957 L9.83829787,4.86808511 L10.893617,4.69787234 L10.893617,4.35744681 L9.83829787,4.52765957 Z M11.4723404,3.81276596 L12.5957447,3.64255319 L12.5957447,3.33617021 L11.4723404,3.50638298 L11.4723404,3.81276596 Z M11.4723404,4.59574468 L12.5957447,4.42553191 L12.5957447,4.08510638 L11.4723404,4.25531915 L11.4723404,4.59574468 Z" id="XMLID_79_"></path>
                        <path d="M20.3574468,2.82553191 L21.6170213,2.85957447 C21.8553191,2.85957447 21.9914894,2.85957447 22.1276596,2.85957447 L22.1276596,3.30212766 C21.9914894,3.26808511 21.8553191,3.26808511 21.6170213,3.26808511 L20.187234,3.23404255 L20.187234,3.50638298 L21.7191489,3.54042553 C22.0255319,3.54042553 22.1617021,3.54042553 22.3319149,3.50638298 L22.3319149,4.05106383 C22.1617021,4.01702128 21.9914894,4.01702128 21.7191489,4.01702128 L20.6297872,4.01702128 C21.0382979,4.32340426 21.7191489,4.59574468 22.4,4.69787234 C22.2978723,4.83404255 22.2638298,4.90212766 22.1957447,5.00425532 C22.1957447,5.00425532 22.1617021,5.07234043 22.1276596,5.14042553 C22.1276596,5.17446809 22.093617,5.20851064 22.093617,5.24255319 C21.6851064,5.14042553 21.3787234,5.00425532 21.0042553,4.83404255 C20.6297872,4.62978723 20.4255319,4.49361702 20.1191489,4.2212766 C20.1191489,4.35744681 20.1191489,4.49361702 20.1191489,4.56170213 L20.1191489,4.86808511 C20.1191489,5.07234043 20.1191489,5.14042553 20.1531915,5.24255319 L19.5404255,5.24255319 C19.5744681,5.14042553 19.5744681,5.03829787 19.5744681,4.86808511 L19.5744681,4.56170213 C19.5744681,4.42553191 19.5744681,4.35744681 19.5744681,4.2212766 C19.3021277,4.49361702 19.0297872,4.66382979 18.587234,4.83404255 C18.3148936,4.97021277 18.0425532,5.07234043 17.6340426,5.14042553 C17.5659574,4.93617021 17.4638298,4.76595745 17.3276596,4.59574468 C17.7702128,4.52765957 18.1106383,4.42553191 18.4851064,4.2893617 C18.7234043,4.18723404 18.893617,4.08510638 19.0638298,3.94893617 L18.0425532,3.94893617 C17.7702128,3.94893617 17.6340426,3.94893617 17.4638298,3.98297872 L17.4638298,3.43829787 C17.6,3.47234043 17.7361702,3.47234043 18.0425532,3.47234043 L19.5404255,3.50638298 L19.5404255,3.23404255 L18.4510638,3.23404255 C18.2468085,3.23404255 18.1446809,3.23404255 18.0085106,3.23404255 C18.0085106,3.13191489 18.0425532,2.99574468 18.0425532,2.82553191 L18.0425532,2.1787234 C18.0425532,2.00851064 18.0425532,1.87234043 18.0425532,1.73617021 C17.906383,1.90638298 17.7702128,2.00851064 17.5659574,2.1787234 C17.4638298,1.94042553 17.4297872,1.83829787 17.293617,1.66808511 C17.7021277,1.39574468 17.9744681,1.0893617 18.2808511,0.646808511 C18.3489362,0.544680851 18.4170213,0.408510638 18.4510638,0.306382979 L19.1319149,0.340425532 C18.9276596,0.646808511 18.9276596,0.646808511 18.8595745,0.782978723 L19.8468085,0.782978723 C19.9829787,0.578723404 20.0510638,0.442553191 20.1191489,0.272340426 L20.6978723,0.340425532 C20.5617021,0.578723404 20.5276596,0.646808511 20.4255319,0.782978723 L21.5829787,0.817021277 C21.8212766,0.817021277 21.9574468,0.817021277 22.093617,0.782978723 L22.093617,1.25957447 C21.9574468,1.22553191 21.8553191,1.22553191 21.6510638,1.22553191 L20.3574468,1.19148936 L20.3574468,1.42978723 L21.412766,1.42978723 C21.6851064,1.42978723 21.7531915,1.42978723 21.9234043,1.39574468 L21.9234043,1.83829787 C21.7531915,1.80425532 21.7191489,1.80425532 21.412766,1.80425532 L20.3574468,1.80425532 L20.3574468,2.04255319 L21.412766,2.04255319 C21.6851064,2.04255319 21.7531915,2.04255319 21.9234043,2.00851064 L21.9234043,2.45106383 C21.787234,2.41702128 21.7191489,2.41702128 21.412766,2.41702128 L20.3574468,2.41702128 L20.3574468,2.82553191 L20.3574468,2.82553191 Z M19.7787234,1.22553191 L18.6553191,1.22553191 L18.6553191,1.46382979 L19.7787234,1.46382979 L19.7787234,1.22553191 Z M19.7787234,1.90638298 L18.6553191,1.90638298 L18.6553191,2.14468085 L19.7787234,2.14468085 L19.7787234,1.90638298 Z M18.6893617,2.51914894 L18.6893617,2.79148936 L19.812766,2.79148936 L19.812766,2.51914894 L18.6893617,2.51914894 Z" id="XMLID_74_"></path>
                        <path d="M26.212766,5.58297872 C26.2468085,5.41276596 26.2468085,5.24255319 26.2468085,4.90212766 L26.2808511,1.39574468 C26.2808511,1.15744681 26.2808511,0.953191489 26.2468085,0.74893617 C26.4510638,0.817021277 26.6212766,0.85106383 26.893617,0.919148936 L30.2638298,1.70212766 C30.5361702,1.77021277 30.706383,1.80425532 30.8765957,1.80425532 C30.8425532,1.97446809 30.8425532,2.1787234 30.8425532,2.41702128 L30.8085106,5.92340426 C30.8085106,6.22978723 30.8085106,6.43404255 30.8425532,6.60425532 L30.2978723,6.46808511 L30.2978723,6.26382979 L26.8255319,5.48085106 L26.8255319,5.68510638 L26.212766,5.58297872 Z M28.7659574,1.87234043 L29.6851064,2.07659574 C29.8893617,2.1106383 30.0255319,2.14468085 30.1617021,2.14468085 L30.1617021,2.58723404 C30.0255319,2.55319149 29.8893617,2.51914894 29.7191489,2.45106383 L28.8,2.24680851 L28.8,2.38297872 L29.5489362,2.55319149 C29.7191489,2.58723404 29.8212766,2.6212766 29.9234043,2.6212766 C29.9234043,2.72340426 29.9234043,2.79148936 29.9234043,2.92765957 L29.9234043,3.47234043 C29.9234043,3.64255319 29.9234043,3.67659574 29.9234043,3.7787234 C29.8553191,3.74468085 29.8553191,3.74468085 29.787234,3.74468085 C29.9234043,3.88085106 29.9574468,3.94893617 30.1957447,4.25531915 L29.8212766,4.39148936 C29.7191489,4.25531915 29.7191489,4.18723404 29.6510638,4.11914894 C29.6170213,4.11914894 29.6170213,4.11914894 29.5489362,4.11914894 L29.5148936,4.11914894 L29.5148936,4.32340426 L29.7531915,4.39148936 C29.9234043,4.42553191 30.0595745,4.45957447 30.1957447,4.45957447 L30.1957447,4.90212766 C30.0595745,4.86808511 29.9574468,4.83404255 29.787234,4.8 L29.5148936,4.73191489 L29.5148936,4.93617021 C29.5148936,5.24255319 29.3787234,5.27659574 28.8340426,5.17446809 C28.7659574,5.17446809 28.6978723,5.14042553 28.5957447,5.10638298 C28.5617021,4.90212766 28.5276596,4.8 28.4595745,4.66382979 C28.5957447,4.69787234 28.6978723,4.76595745 28.8340426,4.76595745 C29.0042553,4.8 29.0382979,4.8 29.0382979,4.69787234 L29.0382979,4.62978723 L27.9489362,4.39148936 C28.0851064,4.52765957 28.2212766,4.66382979 28.3234043,4.83404255 L27.9829787,5.03829787 C27.812766,4.8 27.7446809,4.73191489 27.506383,4.49361702 L27.7787234,4.39148936 L27.4042553,4.2893617 C27.2340426,4.25531915 27.0978723,4.2212766 26.9957447,4.2212766 L26.9957447,3.7787234 C27.0978723,3.81276596 27.2340426,3.88085106 27.4382979,3.91489362 L29.0382979,4.2893617 L29.0382979,4.08510638 C28.4595745,3.98297872 27.9148936,3.88085106 27.4723404,3.7787234 C27.3021277,3.74468085 27.2340426,3.74468085 27.1319149,3.7106383 L27.0297872,3.26808511 C27.1659574,3.33617021 27.3702128,3.37021277 27.7787234,3.47234043 C27.812766,3.47234043 27.812766,3.47234043 28.3234043,3.60851064 L28.3234043,3.47234043 L27.6425532,3.30212766 C27.4723404,3.26808511 27.4042553,3.23404255 27.3021277,3.23404255 C27.3021277,3.13191489 27.3021277,3.06382979 27.3021277,2.92765957 L27.3021277,2.38297872 C27.3021277,2.24680851 27.3021277,2.1787234 27.3021277,2.07659574 C27.4042553,2.1106383 27.4723404,2.14468085 27.6425532,2.1787234 L28.3234043,2.34893617 L28.3234043,2.21276596 L27.5404255,2.04255319 C27.3361702,2.00851064 27.2,1.97446809 27.0638298,1.94042553 L27.0638298,1.49787234 C27.2,1.53191489 27.3361702,1.6 27.5404255,1.63404255 L28.3234043,1.80425532 L28.3234043,1.63404255 L26.8595745,1.29361702 L26.8255319,4.97021277 L30.2978723,5.75319149 L30.3319149,2.07659574 L28.8,1.73617021 L28.7659574,1.87234043 Z M27.7106383,2.58723404 L27.7106383,2.72340426 L28.2553191,2.85957447 L28.2553191,2.72340426 L27.7106383,2.58723404 Z M27.7106383,2.99574468 L27.7106383,3.16595745 L28.2553191,3.30212766 L28.2553191,3.13191489 L27.7106383,2.99574468 Z M29.3787234,3.13191489 L29.3787234,2.99574468 L28.7319149,2.85957447 L28.7319149,2.99574468 L29.3787234,3.13191489 Z M29.3787234,3.57446809 L29.3787234,3.40425532 L28.7319149,3.26808511 L28.7319149,3.43829787 L29.3787234,3.57446809 Z M28.9361702,3.88085106 C29.0382979,3.91489362 29.1744681,3.91489362 29.3787234,3.94893617 C29.3787234,3.91489362 29.3787234,3.91489362 29.3446809,3.88085106 L29.2085106,3.81276596 L28.7319149,3.7106383 L28.7319149,3.84680851 L28.9361702,3.88085106 Z" id="XMLID_66_"></path>
                    </g>
                    <g id="XMLID_26_" transform="translate(9.872340, 50.382979)" fill="#E6DF82" fill-rule="nonzero">
                        <g id="XMLID_43_">
                            <path d="M4.52765957,1.70212766 C4.39148936,1.22553191 4.2212766,0.817021277 3.94893617,0.544680851 C3.7106383,0.272340426 3.37021277,0.136170213 2.89361702,0.170212766 C2.55319149,0.170212766 2.28085106,0.238297872 2.04255319,0.374468085 C1.80425532,0.510638298 1.66808511,0.680851064 1.56595745,0.885106383 C1.46382979,1.0893617 1.39574468,1.32765957 1.36170213,1.6 C1.32765957,1.87234043 1.32765957,2.14468085 1.32765957,2.45106383 L1.32765957,3.09787234 C1.32765957,3.54042553 1.36170213,3.94893617 1.42978723,4.25531915 C1.49787234,4.56170213 1.56595745,4.8 1.70212766,4.97021277 C1.83829787,5.14042553 1.97446809,5.27659574 2.1787234,5.3787234 C2.38297872,5.44680851 2.6212766,5.51489362 2.89361702,5.51489362 C3.13191489,5.51489362 3.30212766,5.48085106 3.43829787,5.3787234 C3.57446809,5.3106383 3.67659574,5.17446809 3.74468085,5.03829787 C3.81276596,4.90212766 3.84680851,4.73191489 3.88085106,4.56170213 C3.91489362,4.35744681 3.91489362,4.15319149 3.91489362,3.94893617 L3.91489362,3.67659574 L3.16595745,3.67659574 L3.16595745,3.57446809 L5.44680851,3.57446809 L5.44680851,3.67659574 L4.97021277,3.67659574 L4.97021277,5.3787234 L4.83404255,5.3787234 C4.83404255,5.3106383 4.8,5.27659574 4.76595745,5.24255319 C4.73191489,5.20851064 4.66382979,5.20851064 4.59574468,5.20851064 C4.49361702,5.20851064 4.35744681,5.24255319 4.25531915,5.27659574 C4.15319149,5.3106383 4.05106383,5.3787234 3.91489362,5.41276596 C3.7787234,5.48085106 3.64255319,5.51489362 3.50638298,5.54893617 C3.33617021,5.58297872 3.16595745,5.61702128 2.92765957,5.61702128 C2.58723404,5.61702128 2.21276596,5.54893617 1.87234043,5.41276596 C1.53191489,5.27659574 1.25957447,5.07234043 0.953191489,4.83404255 C0.714893617,4.59574468 0.510638298,4.32340426 0.340425532,3.94893617 C0.204255319,3.60851064 0.10212766,3.26808511 0.10212766,2.85957447 C0.10212766,2.45106383 0.170212766,2.07659574 0.340425532,1.70212766 C0.510638298,1.32765957 0.714893617,1.0893617 0.987234043,0.817021277 C1.25957447,0.578723404 1.53191489,0.408510638 1.90638298,0.272340426 C2.24680851,0.136170213 2.55319149,0.0680851064 2.89361702,0.0680851064 C3.02978723,0.0680851064 3.16595745,0.0680851064 3.30212766,0.10212766 C3.43829787,0.136170213 3.57446809,0.170212766 3.67659574,0.204255319 C3.7787234,0.238297872 3.91489362,0.272340426 3.98297872,0.306382979 C4.08510638,0.340425532 4.15319149,0.340425532 4.2212766,0.340425532 C4.2893617,0.340425532 4.32340426,0.340425532 4.35744681,0.306382979 C4.39148936,0.272340426 4.42553191,0.238297872 4.42553191,0.170212766 L4.56170213,0.170212766 L4.56170213,1.70212766 L4.52765957,1.70212766 L4.52765957,1.70212766 L4.52765957,1.70212766 Z" id="XMLID_63_"></path>
                            <path d="M8,0.204255319 L8,0.272340426 L7.4893617,0.272340426 L7.4893617,2.79148936 C7.4893617,2.96170213 7.4893617,3.13191489 7.52340426,3.30212766 C7.52340426,3.47234043 7.59148936,3.60851064 7.62553191,3.74468085 C7.69361702,3.88085106 7.76170213,3.98297872 7.89787234,4.05106383 C8,4.11914894 8.17021277,4.15319149 8.37446809,4.15319149 C8.5787234,4.15319149 8.74893617,4.11914894 8.88510638,4.08510638 C9.0212766,4.05106383 9.12340426,3.98297872 9.22553191,3.91489362 C9.32765957,3.84680851 9.39574468,3.74468085 9.42978723,3.67659574 C9.46382979,3.57446809 9.49787234,3.50638298 9.53191489,3.40425532 C9.56595745,3.30212766 9.56595745,3.23404255 9.56595745,3.13191489 C9.56595745,3.06382979 9.56595745,2.99574468 9.56595745,2.92765957 L9.56595745,0.272340426 L9.05531915,0.272340426 L9.05531915,0.204255319 L10.1787234,0.204255319 L10.1787234,0.272340426 L9.66808511,0.272340426 L9.66808511,2.92765957 C9.66808511,2.99574468 9.66808511,3.06382979 9.66808511,3.16595745 C9.66808511,3.26808511 9.63404255,3.33617021 9.63404255,3.43829787 C9.6,3.54042553 9.56595745,3.64255319 9.53191489,3.74468085 C9.46382979,3.84680851 9.39574468,3.94893617 9.29361702,4.01702128 C9.19148936,4.08510638 9.05531915,4.15319149 8.91914894,4.2212766 C8.78297872,4.25531915 8.5787234,4.2893617 8.37446809,4.2893617 C8.03404255,4.2893617 7.72765957,4.25531915 7.4893617,4.18723404 C7.28510638,4.11914894 7.11489362,4.01702128 6.9787234,3.88085106 C6.87659574,3.74468085 6.77446809,3.60851064 6.74042553,3.43829787 C6.70638298,3.26808511 6.67234043,3.09787234 6.67234043,2.96170213 L6.67234043,0.272340426 L6.16170213,0.272340426 L6.16170213,0.204255319 L8,0.204255319 Z" id="XMLID_61_"></path>
                            <path d="M11.2,4.11914894 L12.8680851,0.0680851064 L13.0042553,0.0680851064 L14.7744681,4.11914894 L15.2510638,4.11914894 L15.2510638,4.18723404 L13.3787234,4.18723404 L13.3787234,4.11914894 L13.8893617,4.11914894 L13.2425532,2.6212766 L11.8808511,2.6212766 L11.2680851,4.11914894 L11.7446809,4.11914894 L11.7446809,4.18723404 L10.6893617,4.18723404 L10.6893617,4.11914894 L11.2,4.11914894 Z M11.9489362,2.51914894 L13.2425532,2.51914894 L12.5957447,0.987234043 L11.9489362,2.51914894 Z" id="XMLID_58_"></path>
                            <polygon id="XMLID_56_" points="17.2255319 0.204255319 19.0978723 2.89361702 19.0978723 2.89361702 19.0978723 0.272340426 18.587234 0.272340426 18.587234 0.204255319 19.7106383 0.204255319 19.7106383 0.272340426 19.2 0.272340426 19.2 4.18723404 19.0638298 4.18723404 16.5106383 0.612765957 16.5106383 0.612765957 16.5106383 4.11914894 17.0212766 4.11914894 17.0212766 4.18723404 15.8978723 4.18723404 15.8978723 4.11914894 16.4085106 4.11914894 16.4085106 0.306382979 15.8978723 0.306382979 15.8978723 0.238297872 17.2255319 0.238297872 17.2255319 0.204255319"></polygon>
                            <path d="M24,1.32765957 C23.8978723,0.953191489 23.7617021,0.680851064 23.5574468,0.442553191 C23.3531915,0.238297872 23.1148936,0.136170213 22.8085106,0.136170213 C22.5702128,0.136170213 22.3659574,0.170212766 22.1957447,0.272340426 C22.0255319,0.374468085 21.9234043,0.510638298 21.8553191,0.646808511 C21.787234,0.817021277 21.7191489,0.987234043 21.6851064,1.19148936 C21.6510638,1.39574468 21.6510638,1.6 21.6510638,1.80425532 L21.6510638,2.28085106 C21.6510638,2.6212766 21.6851064,2.89361702 21.7191489,3.16595745 C21.7531915,3.43829787 21.8212766,3.57446809 21.9234043,3.7106383 C22.0255319,3.84680851 22.1276596,3.94893617 22.2978723,4.01702128 C22.4340426,4.08510638 22.6382979,4.11914894 22.8425532,4.11914894 C23.012766,4.11914894 23.1489362,4.08510638 23.2510638,4.01702128 C23.3531915,3.94893617 23.4212766,3.88085106 23.4893617,3.7787234 C23.5574468,3.67659574 23.5914894,3.54042553 23.5914894,3.40425532 C23.5914894,3.26808511 23.6255319,3.09787234 23.6255319,2.92765957 L23.6255319,2.72340426 L23.0468085,2.72340426 L23.0468085,2.65531915 L24.7829787,2.65531915 L24.7829787,2.72340426 L24.4425532,2.72340426 L24.4425532,4.01702128 L24.3404255,4.01702128 C24.3404255,3.98297872 24.306383,3.94893617 24.2723404,3.91489362 C24.2382979,3.88085106 24.2042553,3.88085106 24.1702128,3.88085106 C24.0680851,3.88085106 24,3.91489362 23.9319149,3.94893617 C23.8638298,3.98297872 23.7617021,4.01702128 23.6595745,4.05106383 C23.5574468,4.08510638 23.4553191,4.11914894 23.3531915,4.15319149 C23.2510638,4.18723404 23.0808511,4.2212766 22.9106383,4.2212766 C22.6382979,4.2212766 22.4,4.15319149 22.1276596,4.05106383 C21.8893617,3.94893617 21.6510638,3.81276596 21.4808511,3.60851064 C21.2765957,3.43829787 21.1404255,3.2 21.0382979,2.96170213 C20.9361702,2.72340426 20.8680851,2.45106383 20.8680851,2.1787234 C20.8680851,1.87234043 20.9361702,1.6 21.0723404,1.29361702 C21.2085106,1.05531915 21.3446809,0.817021277 21.5489362,0.646808511 C21.7531915,0.476595745 21.9574468,0.340425532 22.1957447,0.238297872 C22.4340426,0.136170213 22.6723404,0.10212766 22.9106383,0.10212766 C23.012766,0.10212766 23.1148936,0.10212766 23.2170213,0.136170213 C23.3191489,0.170212766 23.4212766,0.170212766 23.4893617,0.204255319 C23.5914894,0.238297872 23.6595745,0.238297872 23.7276596,0.272340426 C23.7957447,0.306382979 23.8638298,0.306382979 23.8978723,0.306382979 C23.9659574,0.306382979 24,0.306382979 24,0.272340426 C24.0340426,0.272340426 24.0340426,0.238297872 24.0680851,0.170212766 L24.1702128,0.170212766 L24.1702128,1.32765957 L24,1.32765957 L24,1.32765957 L24,1.32765957 Z" id="XMLID_54_"></path>
                            <path d="M25.5319149,0.272340426 L25.5319149,0.204255319 L26.0425532,0.204255319 C26.212766,0.204255319 26.4170213,0.204255319 26.587234,0.204255319 C26.7574468,0.204255319 26.9617021,0.204255319 27.1319149,0.204255319 C27.3021277,0.204255319 27.4723404,0.204255319 27.6425532,0.238297872 C27.812766,0.272340426 28.0170213,0.306382979 28.187234,0.340425532 C28.3574468,0.408510638 28.5276596,0.476595745 28.6978723,0.578723404 C28.8680851,0.680851064 29.0042553,0.782978723 29.1404255,0.953191489 C29.2765957,1.0893617 29.3787234,1.25957447 29.4468085,1.46382979 C29.5148936,1.66808511 29.5489362,1.90638298 29.5489362,2.1787234 C29.5489362,2.45106383 29.5148936,2.6893617 29.4468085,2.89361702 C29.3787234,3.09787234 29.2765957,3.26808511 29.1404255,3.40425532 C29.0042553,3.54042553 28.8680851,3.67659574 28.7319149,3.7787234 C28.5617021,3.88085106 28.4255319,3.94893617 28.2553191,4.01702128 C28.0851064,4.08510638 27.9148936,4.11914894 27.7446809,4.11914894 C27.5744681,4.15319149 27.4382979,4.15319149 27.2680851,4.15319149 C27.0638298,4.15319149 26.8595745,4.15319149 26.6553191,4.15319149 C26.4510638,4.15319149 26.2468085,4.15319149 26.0425532,4.15319149 L25.5319149,4.15319149 L25.5319149,4.08510638 L26.0425532,4.08510638 L26.0425532,0.340425532 L25.5319149,0.340425532 L25.5319149,0.272340426 Z M27.1319149,4.11914894 C27.3702128,4.11914894 27.5744681,4.08510638 27.7446809,4.01702128 C27.9148936,3.94893617 28.0510638,3.88085106 28.187234,3.7787234 C28.2893617,3.67659574 28.3914894,3.57446809 28.4595745,3.43829787 C28.5276596,3.30212766 28.5617021,3.16595745 28.6297872,3.02978723 C28.6638298,2.89361702 28.6978723,2.75744681 28.6978723,2.6212766 C28.6978723,2.48510638 28.6978723,2.34893617 28.6978723,2.24680851 C28.6978723,1.94042553 28.6638298,1.66808511 28.6297872,1.39574468 C28.5957447,1.12340426 28.5276596,0.953191489 28.4255319,0.782978723 C28.3234043,0.612765957 28.1531915,0.476595745 27.9829787,0.374468085 C27.7787234,0.272340426 27.5404255,0.238297872 27.2,0.238297872 C27.1319149,0.238297872 27.0638298,0.238297872 26.9957447,0.238297872 C26.9276596,0.238297872 26.893617,0.238297872 26.8595745,0.238297872 L26.8595745,4.05106383 C26.9617021,4.11914894 27.0638298,4.11914894 27.1319149,4.11914894 Z" id="XMLID_51_"></path>
                            <path d="M30.8765957,1.32765957 C31.012766,1.0893617 31.1489362,0.85106383 31.3531915,0.680851064 C31.5574468,0.510638298 31.7617021,0.374468085 32.0340426,0.272340426 C32.2723404,0.170212766 32.5106383,0.136170213 32.7489362,0.136170213 C32.987234,0.136170213 33.2595745,0.170212766 33.4978723,0.272340426 C33.7361702,0.374468085 33.9744681,0.510638298 34.1446809,0.680851064 C34.3489362,0.85106383 34.4851064,1.05531915 34.6212766,1.32765957 C34.7234043,1.56595745 34.7914894,1.87234043 34.7914894,2.21276596 C34.7914894,2.48510638 34.7234043,2.75744681 34.6212766,2.99574468 C34.5191489,3.23404255 34.3489362,3.47234043 34.1787234,3.64255319 C33.9744681,3.81276596 33.7702128,3.98297872 33.5319149,4.08510638 C33.293617,4.18723404 33.0212766,4.25531915 32.7489362,4.25531915 C32.4765957,4.25531915 32.2042553,4.18723404 31.9659574,4.08510638 C31.7276596,3.98297872 31.4893617,3.84680851 31.3191489,3.64255319 C31.1148936,3.47234043 30.9787234,3.23404255 30.8765957,2.99574468 C30.7744681,2.75744681 30.706383,2.48510638 30.706383,2.21276596 C30.706383,1.90638298 30.7744681,1.6 30.8765957,1.32765957 Z M31.693617,3.16595745 C31.7276596,3.40425532 31.7957447,3.60851064 31.8978723,3.7787234 C32,3.91489362 32.1021277,4.01702128 32.2723404,4.08510638 C32.4085106,4.15319149 32.612766,4.18723404 32.8170213,4.18723404 C33.0893617,4.18723404 33.293617,4.15319149 33.4638298,4.05106383 C33.6340426,3.94893617 33.7361702,3.81276596 33.8042553,3.64255319 C33.8723404,3.47234043 33.9404255,3.26808511 33.9404255,2.99574468 C33.9744681,2.75744681 33.9744681,2.48510638 33.9744681,2.21276596 C33.9744681,1.94042553 33.9744681,1.70212766 33.9404255,1.46382979 C33.9404255,1.22553191 33.8723404,1.0212766 33.8042553,0.85106383 C33.7361702,0.680851064 33.6,0.544680851 33.4638298,0.442553191 C33.293617,0.340425532 33.0893617,0.272340426 32.8170213,0.272340426 C32.5446809,0.272340426 32.3404255,0.306382979 32.2042553,0.408510638 C32.0340426,0.510638298 31.9319149,0.646808511 31.8638298,0.817021277 C31.7957447,0.987234043 31.7276596,1.19148936 31.693617,1.42978723 C31.6595745,1.66808511 31.6595745,1.94042553 31.6595745,2.21276596 C31.6255319,2.58723404 31.6595745,2.89361702 31.693617,3.16595745 Z" id="XMLID_48_"></path>
                            <polygon id="XMLID_46_" points="37.2085106 0.204255319 39.0808511 2.89361702 39.0808511 2.89361702 39.0808511 0.272340426 38.5702128 0.272340426 38.5702128 0.204255319 39.693617 0.204255319 39.693617 0.272340426 39.1829787 0.272340426 39.1829787 4.18723404 39.0468085 4.18723404 36.493617 0.612765957 36.493617 0.612765957 36.493617 4.11914894 37.0042553 4.11914894 37.0042553 4.18723404 35.8808511 4.18723404 35.8808511 4.11914894 36.3914894 4.11914894 36.3914894 0.306382979 35.8808511 0.306382979 35.8808511 0.238297872 37.2085106 0.238297872"></polygon>
                            <path d="M44.9021277,1.70212766 C44.7659574,1.22553191 44.5957447,0.817021277 44.3234043,0.544680851 C44.0851064,0.272340426 43.7446809,0.136170213 43.2680851,0.170212766 C42.9276596,0.170212766 42.6553191,0.238297872 42.4170213,0.374468085 C42.212766,0.510638298 42.0425532,0.680851064 41.9404255,0.885106383 C41.8382979,1.0893617 41.7702128,1.32765957 41.7361702,1.6 C41.7021277,1.87234043 41.6680851,2.14468085 41.6680851,2.45106383 L41.6680851,3.09787234 C41.6680851,3.54042553 41.7021277,3.94893617 41.7702128,4.25531915 C41.8382979,4.56170213 41.906383,4.8 42.0425532,4.97021277 C42.1787234,5.14042553 42.3148936,5.27659574 42.5191489,5.3787234 C42.7234043,5.44680851 42.9617021,5.51489362 43.2340426,5.51489362 C43.4723404,5.51489362 43.6425532,5.48085106 43.7787234,5.3787234 C43.9148936,5.3106383 44.0170213,5.17446809 44.0851064,5.03829787 C44.1531915,4.90212766 44.187234,4.73191489 44.2212766,4.56170213 C44.2553191,4.35744681 44.2553191,4.15319149 44.2553191,3.94893617 L44.2553191,3.67659574 L43.506383,3.67659574 L43.506383,3.57446809 L45.787234,3.57446809 L45.787234,3.67659574 L45.3106383,3.67659574 L45.3106383,5.3787234 L45.1744681,5.3787234 C45.1744681,5.3106383 45.1404255,5.27659574 45.106383,5.24255319 C45.0723404,5.20851064 45.0042553,5.20851064 44.9361702,5.20851064 C44.8340426,5.20851064 44.6978723,5.24255319 44.5957447,5.27659574 C44.493617,5.3106383 44.3914894,5.3787234 44.2553191,5.41276596 C44.1191489,5.48085106 43.9829787,5.51489362 43.8468085,5.54893617 C43.6765957,5.58297872 43.506383,5.61702128 43.2680851,5.61702128 C42.9276596,5.61702128 42.5531915,5.54893617 42.212766,5.41276596 C41.8723404,5.27659574 41.6,5.07234043 41.293617,4.83404255 C41.0553191,4.59574468 40.8510638,4.32340426 40.6808511,3.94893617 C40.5446809,3.60851064 40.4425532,3.26808511 40.4425532,2.85957447 C40.4425532,2.45106383 40.5106383,2.07659574 40.6808511,1.70212766 C40.8510638,1.32765957 41.0553191,1.0893617 41.3276596,0.817021277 C41.6,0.578723404 41.8723404,0.408510638 42.2468085,0.272340426 C42.5531915,0.136170213 42.893617,0.0680851064 43.2340426,0.0680851064 C43.3702128,0.0680851064 43.506383,0.0680851064 43.6425532,0.10212766 C43.7787234,0.136170213 43.9148936,0.170212766 44.0170213,0.204255319 C44.1191489,0.238297872 44.2553191,0.272340426 44.3234043,0.306382979 C44.4255319,0.340425532 44.493617,0.340425532 44.5617021,0.340425532 C44.6297872,0.340425532 44.6638298,0.340425532 44.6978723,0.306382979 C44.7319149,0.272340426 44.7659574,0.238297872 44.7659574,0.170212766 L44.9021277,0.170212766 L44.9021277,1.70212766 L44.8680851,1.70212766 L44.8680851,1.70212766 L44.9021277,1.70212766 Z" id="XMLID_44_"></path>
                        </g>
                        <g id="XMLID_29_" transform="translate(19.404255, 5.446809)">
                            <path d="M1.12340426,0.544680851 C1.0893617,0.442553191 1.05531915,0.340425532 0.987234043,0.272340426 C0.919148936,0.204255319 0.85106383,0.170212766 0.74893617,0.170212766 C0.680851064,0.170212766 0.612765957,0.170212766 0.544680851,0.204255319 C0.510638298,0.238297872 0.476595745,0.272340426 0.442553191,0.306382979 C0.408510638,0.340425532 0.408510638,0.408510638 0.408510638,0.476595745 C0.408510638,0.544680851 0.408510638,0.612765957 0.408510638,0.680851064 L0.408510638,0.817021277 C0.408510638,0.919148936 0.408510638,1.0212766 0.442553191,1.0893617 C0.442553191,1.15744681 0.476595745,1.22553191 0.510638298,1.25957447 C0.544680851,1.29361702 0.578723404,1.32765957 0.612765957,1.36170213 C0.646808511,1.39574468 0.714893617,1.39574468 0.782978723,1.39574468 C0.85106383,1.39574468 0.885106383,1.39574468 0.919148936,1.36170213 C0.953191489,1.32765957 0.987234043,1.32765957 0.987234043,1.29361702 C0.987234043,1.25957447 1.0212766,1.22553191 1.0212766,1.19148936 C1.0212766,1.15744681 1.0212766,1.0893617 1.0212766,1.05531915 L1.0212766,0.987234043 L0.85106383,0.987234043 L0.85106383,0.953191489 L1.39574468,0.953191489 L1.39574468,0.987234043 L1.29361702,0.987234043 L1.29361702,1.39574468 L1.25957447,1.39574468 C1.25957447,1.39574468 1.25957447,1.36170213 1.22553191,1.36170213 L1.19148936,1.36170213 C1.15744681,1.36170213 1.12340426,1.36170213 1.12340426,1.36170213 C1.0893617,1.36170213 1.05531915,1.39574468 1.05531915,1.39574468 C1.0212766,1.39574468 0.987234043,1.42978723 0.953191489,1.42978723 C0.919148936,1.42978723 0.885106383,1.42978723 0.817021277,1.42978723 C0.74893617,1.42978723 0.646808511,1.42978723 0.578723404,1.39574468 C0.510638298,1.36170213 0.442553191,1.32765957 0.374468085,1.25957447 C0.306382979,1.19148936 0.272340426,1.12340426 0.238297872,1.05531915 C0.204255319,0.987234043 0.170212766,0.885106383 0.170212766,0.817021277 C0.170212766,0.714893617 0.204255319,0.646808511 0.238297872,0.544680851 C0.272340426,0.476595745 0.340425532,0.408510638 0.374468085,0.340425532 C0.442553191,0.272340426 0.510638298,0.238297872 0.578723404,0.204255319 C0.646808511,0.170212766 0.714893617,0.170212766 0.817021277,0.170212766 C0.85106383,0.170212766 0.885106383,0.170212766 0.919148936,0.170212766 C0.953191489,0.170212766 0.987234043,0.170212766 1.0212766,0.204255319 C1.05531915,0.204255319 1.0893617,0.204255319 1.0893617,0.238297872 C1.12340426,0.238297872 1.12340426,0.238297872 1.15744681,0.238297872 L1.19148936,0.238297872 C1.19148936,0.238297872 1.19148936,0.238297872 1.22553191,0.204255319 L1.25957447,0.204255319 L1.12340426,0.544680851 L1.12340426,0.544680851 Z" id="XMLID_41_"></path>
                            <path d="M1.6,0.238297872 L1.6,0.238297872 L1.87234043,0.204255319 C1.90638298,0.204255319 1.97446809,0.204255319 2.00851064,0.204255319 C2.04255319,0.204255319 2.1106383,0.204255319 2.14468085,0.204255319 C2.1787234,0.204255319 2.24680851,0.204255319 2.28085106,0.204255319 C2.31489362,0.204255319 2.38297872,0.238297872 2.41702128,0.238297872 C2.45106383,0.272340426 2.48510638,0.306382979 2.51914894,0.340425532 C2.55319149,0.374468085 2.55319149,0.442553191 2.55319149,0.476595745 C2.55319149,0.510638298 2.55319149,0.544680851 2.51914894,0.578723404 C2.48510638,0.612765957 2.48510638,0.646808511 2.45106383,0.646808511 C2.41702128,0.680851064 2.38297872,0.680851064 2.34893617,0.680851064 C2.31489362,0.680851064 2.28085106,0.714893617 2.24680851,0.714893617 L2.24680851,0.714893617 C2.31489362,0.714893617 2.34893617,0.74893617 2.38297872,0.74893617 C2.41702128,0.74893617 2.45106383,0.782978723 2.48510638,0.782978723 C2.51914894,0.817021277 2.55319149,0.817021277 2.55319149,0.885106383 C2.58723404,0.919148936 2.58723404,0.987234043 2.58723404,1.0212766 C2.58723404,1.0893617 2.58723404,1.15744681 2.58723404,1.19148936 C2.58723404,1.22553191 2.58723404,1.25957447 2.58723404,1.29361702 C2.58723404,1.32765957 2.58723404,1.32765957 2.6212766,1.32765957 L2.65531915,1.32765957 C2.6893617,1.32765957 2.6893617,1.32765957 2.72340426,1.29361702 L2.75744681,1.25957447 L2.79148936,1.25957447 L2.75744681,1.29361702 L2.72340426,1.32765957 C2.72340426,1.32765957 2.6893617,1.32765957 2.65531915,1.32765957 C2.6212766,1.32765957 2.6212766,1.32765957 2.58723404,1.32765957 C2.51914894,1.32765957 2.48510638,1.32765957 2.45106383,1.29361702 C2.41702128,1.25957447 2.38297872,1.25957447 2.38297872,1.22553191 C2.34893617,1.19148936 2.34893617,1.15744681 2.34893617,1.12340426 C2.34893617,1.0893617 2.34893617,1.05531915 2.34893617,1.0212766 C2.34893617,0.987234043 2.34893617,0.919148936 2.34893617,0.885106383 C2.34893617,0.85106383 2.34893617,0.817021277 2.31489362,0.782978723 C2.31489362,0.74893617 2.28085106,0.714893617 2.24680851,0.714893617 C2.21276596,0.680851064 2.1787234,0.680851064 2.1106383,0.680851064 L1.97446809,0.680851064 L1.97446809,1.29361702 L2.14468085,1.29361702 L2.14468085,1.32765957 L1.56595745,1.32765957 L1.56595745,1.39574468 L1.73617021,1.39574468 L1.73617021,0.204255319 L1.6,0.238297872 L1.6,0.238297872 Z M2.1106383,0.74893617 C2.1787234,0.74893617 2.21276596,0.74893617 2.24680851,0.714893617 C2.28085106,0.714893617 2.31489362,0.680851064 2.31489362,0.646808511 C2.31489362,0.612765957 2.34893617,0.612765957 2.34893617,0.578723404 C2.34893617,0.544680851 2.34893617,0.510638298 2.34893617,0.476595745 C2.34893617,0.442553191 2.34893617,0.374468085 2.34893617,0.340425532 C2.34893617,0.306382979 2.31489362,0.272340426 2.31489362,0.238297872 C2.31489362,0.204255319 2.28085106,0.204255319 2.24680851,0.170212766 C2.21276596,0.170212766 2.1787234,0.136170213 2.14468085,0.136170213 L2.1106383,0.136170213 L2.07659574,0.136170213 L2.07659574,0.680851064 L2.1106383,0.680851064 L2.1106383,0.74893617 L2.1106383,0.74893617 Z" id="XMLID_38_"></path>
                            <path d="M3.09787234,0.544680851 C3.13191489,0.476595745 3.2,0.408510638 3.23404255,0.340425532 C3.30212766,0.272340426 3.37021277,0.238297872 3.43829787,0.204255319 C3.50638298,0.170212766 3.57446809,0.170212766 3.67659574,0.170212766 C3.74468085,0.170212766 3.84680851,0.170212766 3.91489362,0.204255319 C3.98297872,0.238297872 4.05106383,0.272340426 4.11914894,0.340425532 C4.18723404,0.408510638 4.2212766,0.476595745 4.25531915,0.544680851 C4.2893617,0.612765957 4.32340426,0.714893617 4.32340426,0.817021277 C4.32340426,0.919148936 4.2893617,0.987234043 4.25531915,1.05531915 C4.2212766,1.12340426 4.18723404,1.19148936 4.11914894,1.25957447 C4.05106383,1.32765957 3.98297872,1.36170213 3.91489362,1.39574468 C3.84680851,1.42978723 3.74468085,1.42978723 3.67659574,1.42978723 C3.60851064,1.42978723 3.50638298,1.42978723 3.43829787,1.39574468 C3.37021277,1.36170213 3.30212766,1.32765957 3.23404255,1.25957447 C3.16595745,1.19148936 3.13191489,1.12340426 3.09787234,1.05531915 C3.06382979,0.987234043 3.02978723,0.885106383 3.02978723,0.817021277 C3.02978723,0.714893617 3.06382979,0.646808511 3.09787234,0.544680851 Z M3.37021277,1.15744681 C3.37021277,1.22553191 3.40425532,1.29361702 3.43829787,1.32765957 C3.47234043,1.36170213 3.50638298,1.39574468 3.54042553,1.42978723 C3.57446809,1.46382979 3.64255319,1.46382979 3.7106383,1.46382979 C3.7787234,1.46382979 3.84680851,1.46382979 3.91489362,1.42978723 C3.94893617,1.39574468 3.98297872,1.36170213 4.01702128,1.29361702 C4.05106383,1.22553191 4.05106383,1.15744681 4.05106383,1.0893617 C4.05106383,1.0212766 4.05106383,0.919148936 4.05106383,0.85106383 C4.05106383,0.782978723 4.05106383,0.680851064 4.05106383,0.612765957 C4.05106383,0.544680851 4.01702128,0.476595745 4.01702128,0.408510638 C3.98297872,0.340425532 3.94893617,0.306382979 3.91489362,0.272340426 C3.88085106,0.238297872 3.81276596,0.238297872 3.7106383,0.238297872 C3.64255319,0.238297872 3.57446809,0.238297872 3.50638298,0.272340426 C3.47234043,0.306382979 3.43829787,0.340425532 3.40425532,0.408510638 C3.37021277,0.476595745 3.37021277,0.544680851 3.37021277,0.612765957 C3.37021277,0.680851064 3.37021277,0.782978723 3.37021277,0.85106383 C3.37021277,0.953191489 3.37021277,1.0212766 3.37021277,1.15744681 Z" id="XMLID_35_"></path>
                            <path d="M5.24255319,0.204255319 L5.24255319,0.204255319 L5.07234043,0.238297872 L5.07234043,1.0212766 C5.07234043,1.0893617 5.07234043,1.12340426 5.07234043,1.19148936 C5.07234043,1.22553191 5.10638298,1.29361702 5.10638298,1.32765957 C5.14042553,1.36170213 5.14042553,1.39574468 5.17446809,1.42978723 C5.20851064,1.46382979 5.27659574,1.46382979 5.3106383,1.46382979 C5.3787234,1.46382979 5.41276596,1.46382979 5.48085106,1.42978723 C5.51489362,1.42978723 5.54893617,1.39574468 5.58297872,1.36170213 C5.61702128,1.32765957 5.61702128,1.32765957 5.65106383,1.29361702 C5.65106383,1.25957447 5.68510638,1.22553191 5.68510638,1.19148936 C5.68510638,1.15744681 5.68510638,1.12340426 5.68510638,1.12340426 C5.68510638,1.0893617 5.68510638,1.0893617 5.68510638,1.05531915 L5.68510638,0.204255319 L5.51489362,0.204255319 L5.51489362,0.170212766 L5.85531915,0.170212766 L5.85531915,0.204255319 L5.68510638,0.204255319 L5.68510638,1.05531915 C5.68510638,1.0893617 5.68510638,1.0893617 5.68510638,1.12340426 C5.68510638,1.15744681 5.68510638,1.19148936 5.68510638,1.22553191 C5.68510638,1.25957447 5.65106383,1.29361702 5.65106383,1.32765957 C5.65106383,1.36170213 5.61702128,1.39574468 5.58297872,1.39574468 C5.54893617,1.42978723 5.51489362,1.42978723 5.48085106,1.46382979 C5.44680851,1.46382979 5.3787234,1.49787234 5.3106383,1.49787234 C5.20851064,1.49787234 5.10638298,1.49787234 5.03829787,1.46382979 C4.97021277,1.42978723 4.90212766,1.39574468 4.86808511,1.36170213 C4.83404255,1.32765957 4.8,1.29361702 4.8,1.22553191 C4.8,1.19148936 4.76595745,1.12340426 4.76595745,1.0893617 L4.76595745,0.238297872 L4.59574468,0.238297872 L4.59574468,0.204255319 L5.24255319,0.204255319 L5.24255319,0.204255319 Z" id="XMLID_33_"></path>
                            <path d="M6.80851064,1.42978723 L6.80851064,1.42978723 L6.22978723,1.46382979 L6.22978723,1.42978723 L6.4,1.42978723 L6.4,0.238297872 L6.22978723,0.238297872 L6.22978723,0.204255319 L6.4,0.204255319 C6.46808511,0.204255319 6.50212766,0.204255319 6.57021277,0.204255319 C6.63829787,0.204255319 6.67234043,0.204255319 6.74042553,0.204255319 C6.80851064,0.204255319 6.84255319,0.204255319 6.9106383,0.204255319 C6.9787234,0.204255319 7.01276596,0.238297872 7.08085106,0.238297872 C7.11489362,0.272340426 7.18297872,0.306382979 7.21702128,0.340425532 C7.25106383,0.374468085 7.25106383,0.442553191 7.25106383,0.510638298 C7.25106383,0.544680851 7.25106383,0.612765957 7.21702128,0.646808511 C7.18297872,0.680851064 7.14893617,0.714893617 7.11489362,0.74893617 C7.08085106,0.782978723 7.01276596,0.817021277 6.94468085,0.817021277 C6.87659574,0.85106383 6.80851064,0.85106383 6.70638298,0.85106383 L6.63829787,0.85106383 L6.63829787,1.39574468 L6.80851064,1.42978723 L6.80851064,1.42978723 Z M6.70638298,0.817021277 C6.80851064,0.817021277 6.87659574,0.782978723 6.9106383,0.74893617 C6.94468085,0.714893617 6.9787234,0.646808511 6.9787234,0.510638298 C6.9787234,0.408510638 6.94468085,0.340425532 6.9106383,0.272340426 C6.87659574,0.204255319 6.80851064,0.204255319 6.70638298,0.204255319 L6.67234043,0.204255319 L6.63829787,0.204255319 L6.63829787,0.782978723 L6.70638298,0.817021277 L6.70638298,0.817021277 Z" id="XMLID_30_"></path>
                        </g>
                        <polygon id="XMLID_28_" points="18.4851064 6.29787234 6.02553191 6.26382979 18.4851064 6.22978723"></polygon>
                        <polygon id="XMLID_27_" points="27.6765957 6.22978723 40.0680851 6.26382979 27.6765957 6.29787234"></polygon>
                    </g>
                </g>
                <path d="M92.072,30.616 L92.072,23.784 C92.52,24.264 93.048,24.904 93.672,25.688 L94.616,24.28 C93.752,23.496 92.904,22.792 92.072,22.152 L92.072,21.608 L94.056,21.608 L94.056,19.992 L92.072,19.992 L92.072,17.896 C92.776,17.768 93.432,17.608 94.072,17.448 L93.48,15.88 C91.848,16.36 90.008,16.664 87.944,16.824 L88.28,18.392 C89,18.328 89.704,18.248 90.392,18.152 L90.392,19.992 L87.944,19.992 L87.944,21.608 L90.184,21.608 C89.592,23.16 88.68,24.552 87.432,25.768 L88.168,27.64 C89.064,26.52 89.816,25.272 90.392,23.928 L90.392,30.616 L92.072,30.616 Z M101,30.632 L101,26.216 L102.472,25.976 L102.2,24.344 L101,24.536 L101,15.912 L99.32,15.912 L99.32,24.808 L94.312,25.608 L94.568,27.24 L99.32,26.488 L99.32,30.632 L101,30.632 Z M97.768,20.168 L98.92,19 C98.184,18.248 97.272,17.496 96.216,16.728 L95.032,17.88 C96.216,18.68 97.128,19.448 97.768,20.168 Z M97.304,23.976 L98.504,22.776 C97.736,21.992 96.824,21.208 95.736,20.408 L94.552,21.56 C95.736,22.424 96.664,23.24 97.304,23.976 Z M106.072,25.864 C107.32,25.704 108.648,25.416 110.056,25 C110.104,25.224 110.152,25.464 110.2,25.72 L111.528,25.384 C111.272,24.2 111,23.16 110.68,22.248 L109.432,22.68 C109.544,23.032 109.656,23.4 109.752,23.784 C109.176,23.912 108.584,24.04 107.992,24.152 C108.936,23.064 110.104,21.304 111.512,18.904 L109.992,18.312 C109.608,19.016 109.256,19.656 108.92,20.248 C108.44,20.344 107.944,20.424 107.464,20.488 C108.2,19.4 108.92,18.024 109.624,16.344 L108.056,15.752 C107.56,17.288 106.968,18.712 106.28,19.992 C106.088,20.28 105.848,20.488 105.592,20.6 L105.992,22.088 C106.696,21.976 107.368,21.864 108.024,21.752 C107.368,22.776 106.824,23.496 106.376,23.928 C106.184,24.12 105.928,24.28 105.64,24.392 L106.072,25.864 Z M114.136,30.616 L114.136,29.864 L120.344,29.864 L120.344,28.264 L117.848,28.264 L117.848,26.456 L119.848,26.456 L119.848,24.92 L117.848,24.92 L117.848,23.272 L119.768,23.272 L119.768,21.736 L117.848,21.736 L117.848,20.04 L120.184,20.04 L120.184,18.44 L117.992,18.44 C117.8,17.656 117.544,16.776 117.192,15.816 L115.576,16.248 C115.896,16.952 116.168,17.688 116.424,18.44 L114.088,18.44 C114.312,17.72 114.52,16.984 114.68,16.216 L113.096,15.896 C112.712,18.04 112.024,20.024 111.048,21.832 L111.624,23.656 C111.912,23.192 112.2,22.712 112.488,22.2 L112.488,30.616 L114.136,30.616 Z M116.216,21.736 L114.136,21.736 L114.136,20.04 L116.216,20.04 L116.216,21.736 Z M116.216,24.92 L114.136,24.92 L114.136,23.272 L116.216,23.272 L116.216,24.92 Z M110.632,29.208 L111.912,28.616 C111.624,27.656 111.288,26.744 110.92,25.896 L109.752,26.28 C110.072,27.128 110.36,28.104 110.632,29.208 Z M108.392,30.056 L109.784,29.704 C109.592,28.504 109.384,27.384 109.16,26.344 L107.944,26.6 C108.104,27.592 108.264,28.744 108.392,30.056 Z M116.216,28.264 L114.136,28.264 L114.136,26.456 L116.216,26.456 L116.216,28.264 Z M106.84,30.536 C107.16,29.416 107.352,28.136 107.448,26.696 L106.136,26.52 C106.04,27.864 105.832,29.064 105.496,30.12 L106.84,30.536 Z M130.504,30.568 C131.944,30.216 133.192,29.752 134.28,29.208 L134.008,27.72 C133.304,28.12 132.616,28.44 131.912,28.696 L131.912,24.712 L138.264,24.712 L138.264,23.208 L131.992,23.208 L131.992,22.36 L137.192,22.36 L137.192,20.904 L131.992,20.904 L131.992,20.072 L137.128,20.072 L137.128,18.6 L131.992,18.6 L131.992,17.752 L137.736,17.752 L137.736,16.232 L130.44,16.232 L130.44,23.208 L129.4,23.208 L129.4,24.712 L130.344,24.712 L130.344,28.376 C130.344,28.728 130.168,28.984 129.848,29.144 L130.504,30.568 Z M129,26.488 L129,16.36 L124.104,16.36 L124.104,26.488 L129,26.488 Z M127.496,19.32 L125.64,19.32 L125.64,17.832 L127.496,17.832 L127.496,19.32 Z M127.496,22.184 L125.64,22.184 L125.64,20.696 L127.496,20.696 L127.496,22.184 Z M127.496,25.016 L125.64,25.016 L125.64,23.56 L127.496,23.56 L127.496,25.016 Z M137.512,30.664 L138.392,29.368 C137.56,28.984 136.824,28.456 136.216,27.752 C136.872,27.352 137.464,26.808 138.008,26.12 L136.904,25.016 C136.424,25.672 135.912,26.2 135.368,26.584 C135.064,26.072 134.808,25.48 134.584,24.824 L133.352,25.528 C134.184,28.056 135.56,29.768 137.512,30.664 Z M128.392,30.248 L129.64,29.4 C129.256,28.632 128.728,27.72 128.056,26.696 L126.84,27.464 C127.496,28.488 128.008,29.416 128.392,30.248 Z M124.824,30.664 C125.368,29.64 125.816,28.6 126.168,27.528 L124.856,26.904 C124.52,27.896 124.056,28.92 123.48,29.96 L124.824,30.664 Z M142.888,30.264 C144.04,28.248 144.648,25.528 144.728,22.136 L155.256,22.136 L155.256,18.328 L144.728,18.328 L144.728,17.768 C148.648,17.704 152.184,17.48 155.336,17.08 L154.616,15.768 C151.272,16.216 147.464,16.472 143.176,16.504 L143.176,22.04 C143.112,25 142.6,27.32 141.672,28.984 L142.888,30.264 Z M153.624,20.728 L144.728,20.728 L144.728,19.736 L153.624,19.736 L153.624,20.728 Z M145.208,30.648 C146.76,29.864 147.848,28.776 148.488,27.368 L153.176,27.368 C153.08,28.136 153.032,28.6 153,28.76 C152.936,28.888 152.824,28.968 152.648,29.032 C152.424,29.096 151.944,29.144 151.192,29.144 C150.84,29.144 150.488,29.128 150.136,29.096 L150.616,30.6 L150.728,30.6 C152.264,30.6 153.24,30.536 153.672,30.408 C154.088,30.28 154.36,30.04 154.52,29.688 C154.648,29.336 154.76,28.072 154.856,25.928 L148.968,25.928 C149.032,25.608 149.08,25.288 149.112,24.952 L155.896,24.952 L155.896,23.496 L151.096,23.496 C150.952,23.08 150.808,22.712 150.68,22.392 L148.936,22.664 C149.08,22.92 149.224,23.192 149.352,23.496 L145.096,23.496 L145.096,24.952 L147.48,24.952 C147.24,26.968 146.184,28.392 144.328,29.24 L145.208,30.648 Z M88.104,43.96 C89.432,43.8 90.84,43.496 92.328,43.048 L92.456,43.672 L93.832,43.32 C93.56,42.136 93.256,41.08 92.92,40.152 L91.64,40.568 C91.768,40.968 91.896,41.368 92.008,41.784 C91.368,41.944 90.712,42.088 90.056,42.216 C90.952,41.128 92.072,39.464 93.384,37.192 L93.384,37.352 L97.08,37.352 L97.08,39.256 L93.816,39.256 L93.816,40.856 L102.008,40.856 L102.008,39.256 L98.728,39.256 L98.728,37.352 L102.36,37.352 L102.36,35.752 L98.728,35.752 L98.728,33.88 L97.08,33.88 L97.08,35.752 L93.384,35.752 L93.384,36.92 L91.976,36.392 C91.624,37.064 91.272,37.688 90.952,38.264 C90.488,38.344 90.008,38.408 89.528,38.472 C90.28,37.384 91.016,36.008 91.736,34.36 L90.136,33.736 C89.624,35.272 89.016,36.696 88.312,37.976 C88.104,38.264 87.88,38.472 87.624,38.584 L88.024,40.104 C88.728,39.992 89.416,39.88 90.056,39.784 C89.416,40.824 88.872,41.56 88.424,41.992 C88.216,42.184 87.96,42.328 87.672,42.456 L88.104,43.96 Z M95.96,48.664 L95.96,48.072 L99.944,48.072 L99.944,48.664 L101.56,48.664 L101.56,42.024 L94.328,42.024 L94.328,48.664 L95.96,48.664 Z M99.944,46.504 L95.96,46.504 L95.96,43.576 L99.944,43.576 L99.944,46.504 Z M92.776,47.096 L94.136,46.472 C93.848,45.528 93.528,44.648 93.144,43.832 L91.896,44.248 C92.216,45.08 92.504,46.024 92.776,47.096 Z M90.424,47.88 L91.976,47.512 C91.784,46.328 91.56,45.24 91.32,44.248 L89.96,44.552 C90.136,45.512 90.296,46.632 90.424,47.88 Z M89.08,48.408 C89.368,47.336 89.544,46.104 89.624,44.712 L88.136,44.52 C88.072,45.8 87.896,46.952 87.608,47.944 L89.08,48.408 Z M107.24,37.88 C107.688,37.368 108.088,36.824 108.456,36.232 L109.496,36.232 C109.768,36.6 110.008,36.984 110.216,37.384 L111.576,36.872 C111.448,36.664 111.304,36.456 111.144,36.232 L112.792,36.232 L112.792,34.824 L109.176,34.824 C109.272,34.584 109.384,34.328 109.48,34.072 L107.896,33.72 C107.496,34.888 106.824,35.976 105.864,37 L107.24,37.88 Z M107.592,48.712 C108.84,48.36 109.752,47.864 110.312,47.224 C110.552,46.936 110.76,46.584 110.92,46.2 L115.064,46.2 L115.064,48.696 L116.712,48.696 L116.712,46.2 L120.152,46.2 L120.152,44.76 L116.712,44.76 L116.712,44.008 L118.552,44.008 L118.552,37.416 L114.184,37.416 C114.504,37.032 114.792,36.6 115.064,36.152 L116.04,36.152 C116.328,36.552 116.584,36.968 116.808,37.4 L118.152,36.888 C118.024,36.664 117.864,36.408 117.688,36.152 L119.944,36.152 L119.944,34.744 L115.736,34.744 C115.816,34.536 115.896,34.328 115.976,34.104 L114.376,33.752 C114.056,34.776 113.496,35.752 112.712,36.664 L113.88,37.416 L107.64,37.416 L107.64,44.008 L109.608,44.008 L109.608,44.456 C109.608,44.552 109.592,44.648 109.576,44.76 L105.848,44.76 L105.848,46.2 L109.032,46.2 C109.016,46.232 109,46.248 108.984,46.28 C108.6,46.712 107.848,47.08 106.744,47.384 L107.592,48.712 Z M116.92,39.272 L109.272,39.272 L109.272,38.68 L116.92,38.68 L116.92,39.272 Z M116.92,40.984 L109.272,40.984 L109.272,40.408 L116.92,40.408 L116.92,40.984 Z M116.92,42.76 L109.272,42.76 L109.272,42.12 L116.92,42.12 L116.92,42.76 Z M115.064,44.76 L111.256,44.76 L111.272,44.456 L111.272,44.456 L111.272,44.008 L115.064,44.008 L115.064,44.76 Z M130.456,48.536 C131.496,48.536 132.024,47.992 132.024,46.92 L132.024,43.304 C133.368,43.208 134.616,43.096 135.752,42.984 C136.088,43.48 136.392,43.976 136.664,44.456 L137.992,43.56 C137.304,42.44 136.328,41.144 135.048,39.64 L133.848,40.392 C134.2,40.824 134.536,41.256 134.856,41.704 C133.224,41.864 131.336,42.008 129.224,42.136 C131.24,41.24 133.624,39.896 136.36,38.136 L134.76,37.368 C134.088,37.832 133.416,38.264 132.776,38.68 C131.624,38.792 130.472,38.888 129.32,38.984 C130.568,38.376 131.752,37.656 132.888,36.792 L131.816,36.008 C133.064,35.672 134.312,35.24 135.56,34.696 L134.12,33.8 C132.904,34.264 131.608,34.664 130.232,34.984 C128.552,35.368 126.776,35.672 124.904,35.88 L125.752,37.288 C128.12,36.872 129.96,36.488 131.304,36.152 C129.384,37.512 127.464,38.44 125.512,38.92 L125.752,40.328 C127.32,40.248 128.888,40.152 130.456,40.04 C128.92,40.872 127.496,41.496 126.2,41.912 C125.768,42.072 125.288,42.168 124.76,42.216 L125.224,43.656 C127.048,43.576 128.76,43.496 130.344,43.416 L130.344,46.52 C130.344,46.888 130.184,47.08 129.896,47.08 C129.384,47.08 128.84,47.032 128.28,46.968 L128.632,48.536 L130.456,48.536 Z M136.776,48.424 L137.944,47.256 C136.904,46.104 135.64,44.952 134.136,43.784 L133.048,44.84 C134.648,46.12 135.896,47.32 136.776,48.424 Z M124.872,48.392 C126.456,47.4 127.784,46.232 128.856,44.92 L127.72,43.944 C126.664,45.128 125.384,46.168 123.864,47.064 L124.872,48.392 Z M141.96,43.912 C143.272,43.752 144.648,43.448 146.104,43.016 C146.168,43.224 146.216,43.432 146.264,43.656 L147.576,43.32 C147.288,42.136 146.968,41.08 146.6,40.152 L145.352,40.568 C145.496,40.968 145.64,41.384 145.784,41.816 C145.112,42.008 144.44,42.152 143.784,42.28 C144.712,41.176 145.88,39.4 147.256,36.952 L145.8,36.408 C145.464,37.048 145.144,37.64 144.824,38.216 C144.312,38.296 143.8,38.376 143.288,38.44 C144.008,37.368 144.712,36.008 145.416,34.344 L143.896,33.736 C143.384,35.272 142.808,36.68 142.136,37.976 C141.944,38.248 141.736,38.44 141.48,38.552 L141.88,39.976 C142.616,39.864 143.304,39.752 143.976,39.656 C143.288,40.776 142.712,41.576 142.248,42.04 C142.056,42.2 141.832,42.344 141.544,42.472 L141.96,43.912 Z M147.528,48.744 C148.712,47.88 149.544,46.856 150.04,45.704 C150.44,44.744 150.696,43.256 150.824,41.256 C151.24,41.224 151.672,41.176 152.104,41.144 L152.104,46.984 C152.104,47.944 152.68,48.424 153.848,48.424 L154.632,48.424 C155.384,48.36 155.864,48.184 156.088,47.88 C156.312,47.56 156.44,46.648 156.44,45.176 L155.032,44.664 C155.032,45.368 155,45.912 154.968,46.312 C154.936,46.696 154.808,46.904 154.552,46.936 L153.896,46.936 C153.736,46.904 153.672,46.824 153.672,46.664 L153.672,40.984 L154.312,40.92 C154.536,41.288 154.744,41.656 154.936,42.008 L156.2,41.128 C155.64,40.136 154.856,38.968 153.864,37.64 L152.632,38.408 C152.92,38.808 153.208,39.208 153.48,39.624 C152.232,39.752 150.984,39.88 149.72,39.992 C150.232,39.224 150.824,38.2 151.48,36.952 L155.976,36.952 L155.976,35.4 L152.264,35.4 C152.424,35.064 152.6,34.712 152.776,34.344 L151.208,33.752 C150.968,34.328 150.728,34.888 150.504,35.4 L147.432,35.4 L147.432,36.952 L149.8,36.952 C149.064,38.472 148.472,39.432 148.024,39.816 C147.848,39.88 147.656,39.944 147.432,39.976 L147.832,41.464 L149.256,41.368 C149.16,43 148.936,44.216 148.616,45 C148.2,45.928 147.496,46.744 146.504,47.432 L147.528,48.744 Z M146.152,46.808 L147.368,46.232 C147.176,45.384 146.952,44.584 146.696,43.848 L145.544,44.248 C145.768,44.984 145.96,45.832 146.152,46.808 Z M144.072,47.864 L145.464,47.528 C145.32,46.36 145.144,45.272 144.952,44.28 L143.736,44.536 C143.864,45.496 143.976,46.616 144.072,47.864 Z M142.936,48.392 C143.128,47.32 143.256,46.088 143.32,44.696 L141.992,44.52 C141.928,45.8 141.768,46.952 141.512,47.944 L142.936,48.392 Z" id="科維賬房結算系統" fill="#E6DF82" fill-rule="nonzero"></path>
                <line x1="75.673913" y1="16.3744681" x2="75.673913" y2="48.9195762" id="路径-2" stroke-opacity="0.602409309" stroke="#E6DF82" opacity="0.6"></line>
            </g>
        </g>
    </g>
</svg>