<?xml version="1.0" encoding="UTF-8"?>
<svg width="500px" height="500px" viewBox="0 0 500 500" version="1.1" xmlns="http://www.w3.org/2000/svg" xmlns:xlink="http://www.w3.org/1999/xlink">
    <!-- Generator: Sketch 64 (93537) - https://sketch.com -->
    <title>形状结合 + 形状结合 蒙版</title>
    <desc>Created with Sketch.</desc>
    <defs>
        <rect id="path-1" x="0" y="0" width="500" height="500"></rect>
        <linearGradient x1="10.6312136%" y1="10.75453%" x2="73.9101516%" y2="73.6391495%" id="linearGradient-3">
            <stop stop-color="#FFFAB3" offset="0%"></stop>
            <stop stop-color="#99893E" stop-opacity="0" offset="100%"></stop>
        </linearGradient>
        <linearGradient x1="10.6312136%" y1="10.75453%" x2="67.0574929%" y2="66.5225455%" id="linearGradient-4">
            <stop stop-color="#FFFAB3" offset="0%"></stop>
            <stop stop-color="#99893E" stop-opacity="0" offset="100%"></stop>
        </linearGradient>
    </defs>
    <g id="页面-1" stroke="none" stroke-width="1" fill="none" fill-rule="evenodd" opacity="0.559128534">
        <g id="新增贷款-导航展开-默认" transform="translate(-1419.000000, -515.000000)">
            <g id="编组-106备份-2" transform="translate(180.000000, 70.000000)">
                <g id="形状结合-+-形状结合-蒙版">
                    <g id="编组-18">
                        <g id="形状结合-+-形状结合-蒙版" transform="translate(1239.000000, 445.000000)">
                            <mask id="mask-2" fill="white">
                                <use xlink:href="#path-1"></use>
                            </mask>
                            <g id="蒙版"></g>
                            <path d="M333.835683,532.532146 L336.605959,575.820624 C337.948987,597.287857 338.73656,610.86178 338.73656,613.175215 L338.73656,613.175215 L338.728699,613.491148 L338.443402,616.682677 C338.410867,617.066175 338.386904,617.389107 338.36943,617.681121 L338.36943,617.681121 L338.342514,618.23271 L338.042722,619.6614 L337.775956,620.848065 L337.615442,621.519218 L337.612048,621.570278 C337.59036,621.780311 337.534175,621.954744 337.431694,622.18035 L337.431694,622.18035 L337.313343,622.426226 C337.259299,622.534332 337.251378,622.555461 337.251378,622.459248 L337.251,622.472 L337.249772,622.579947 C337.234192,623.136385 337.097017,623.60808 336.487309,624.449066 L336.349297,624.635094 L336.310351,624.68527 L336.508787,624.687416 C336.508787,625.141344 336.377227,625.436303 336.136998,625.718424 L336.136998,625.718424 L336.052613,625.807801 L336.025983,625.929064 C332.966374,632.431884 326.560361,636.733311 319.64953,636.988032 L319.64953,636.988032 L319.000247,637 C307.903279,637 299.263935,627.879076 299.263935,616.146106 L299.263935,616.146106 L299.263935,612.803854 C299.263935,610.813529 299.602957,603.832577 300.212426,592.894664 L300.212426,592.894664 L302.764561,549.58837 L303.712425,534.161348 L303.719481,532.532146 L333.835683,532.532146 Z M331.640607,534.873434 L306.016763,534.873434 L303.832729,570.862918 L302.974604,585.558312 C302.162197,599.722556 301.673607,609.159931 301.613333,612.250271 L301.613333,612.250271 L301.607008,616.146106 C301.607008,626.61229 309.226499,634.656512 319.000247,634.656512 C325.238978,634.656512 331.133006,630.824715 333.905927,624.931214 L333.829037,625.08835 L333.856102,624.952378 C333.917053,624.742298 334.022069,624.568403 334.166206,624.399131 L334.166206,624.399131 L334.298959,624.257704 L334.246104,624.347808 L335.33725,623.515672 L334.289396,624.163396 C334.761147,623.219727 334.908305,622.827237 334.908305,622.459248 L334.908305,622.459248 L334.91893,622.234134 C334.947847,621.95409 335.038092,621.737335 335.217635,621.378186 C335.271678,621.27008 335.2796,621.248951 335.2796,621.345164 L335.2796,621.345164 L335.31458,621.060974 L335.624007,619.74809 L335.998501,618.037285 C336.011026,617.993554 336.019287,617.978759 336.022191,618.002912 C336.022191,617.697275 336.04292,617.304968 336.085928,616.761657 L336.085928,616.761657 L336.339683,613.986846 C336.383287,613.499018 336.393487,613.324341 336.393487,613.175215 L336.393487,613.175215 L336.367436,612.093785 C336.258062,609.027866 335.808193,601.061949 335.092048,589.305122 L335.092048,589.305122 L333.285848,560.426654 L331.640607,534.873434 Z M156.372811,460.116687 C156.72394,460.245253 156.958026,460.330964 157.117778,460.425336 L157.117778,460.425336 L157.189469,460.472376 L157.201212,460.459883 L177.654524,480.91682 L157.284433,504.180809 L143.260341,520.144613 C132.767375,532.064586 126.048403,539.625023 124.345905,541.394043 L124.345905,541.394043 L123.758555,541.98447 C123.508987,542.232297 123.286429,542.451004 123.068927,542.661279 L123.068927,542.661279 L122.409629,543.287491 L121.64805,543.979381 C121.117766,544.446189 120.663514,544.810477 120.317477,545.039403 L120.317477,545.039403 L118.567117,546.312629 L117.97756,546.717502 C117.908762,546.760873 117.860328,546.787339 117.843887,546.787362 C117.576346,547.054951 117.366197,547.186318 116.98247,547.378215 L116.98247,547.378215 L116.806981,547.470929 L116.425527,547.749577 C116.015807,547.954473 115.709403,548.050241 115.071852,548.209657 L115.071852,548.209657 L114.818107,548.274749 C114.519235,548.354173 114.365038,548.408642 114.197753,548.492299 L114.197753,548.492299 L114.091618,548.60489 C113.842432,548.771044 113.580122,548.894975 113.291338,548.95223 L113.12,548.977 L112.551893,549.1359 C106.043789,550.818832 99.0879213,549.475269 94.3153825,545.285748 L94.0199655,545.020199 L93.5170964,544.537684 C86.0311721,536.656367 86.3984674,523.6763 94.2806493,515.792721 L94.2806493,515.792721 L96.9586076,513.114683 C98.1600408,511.924612 101.315686,509.03472 106.59893,504.278804 L106.59893,504.278804 L142.679275,472.058968 L153.14555,462.689619 L154.701126,461.271505 L153.544472,460.116687 Z M481.202636,459.685097 L509.534318,484.510745 L522.651979,496.04857 C532.55794,504.778878 539.077504,510.576454 541.260515,512.616558 L541.260515,512.616558 L542.11896,513.449204 C543.649974,514.986518 544.747864,516.179916 545.313855,517.032307 L545.313855,517.032307 L546.156695,518.180507 L546.915129,519.255601 C547.001948,519.385005 547.061471,519.48167 547.061505,519.506334 C547.329047,519.773923 547.46039,519.98411 547.652253,520.367905 L547.652253,520.367905 L547.706629,520.474559 C547.7517,520.560126 547.772693,520.589009 547.804096,520.620418 L547.804096,520.620418 L548.023549,520.924947 C548.228409,521.334739 548.32416,521.641198 548.483548,522.278861 L548.483548,522.278861 L548.578682,522.633396 C549.129361,522.871285 549.242705,523.425617 549.258859,524.464767 L549.258859,524.464767 L549.262859,524.632392 L549.409626,525.170628 C551.127315,531.815495 549.69165,538.92706 545.294655,543.70584 L545.294655,543.70584 L544.812226,544.208799 C536.932306,551.69605 523.954539,551.328689 516.072357,543.44511 L516.072357,543.44511 L513.296291,540.666584 C511.478909,538.811242 505.962471,532.713892 497.610194,523.360364 L497.610194,523.360364 L471.300981,493.738493 L459.970871,480.920625 L481.202636,459.685097 Z M156.360021,462.930695 L154.382719,464.729889 L106.243808,507.753871 C102.507364,511.127262 100.088086,513.346116 98.9172132,514.477053 L98.9172132,514.477053 L97.1888553,516.198192 L95.4907216,517.912419 C88.9316577,524.945042 88.7593392,536.126117 95.1948609,542.902098 C99.468495,547.17649 106.303891,548.543811 112.600667,546.69149 L112.600667,546.69149 L112.931235,546.643877 C112.893884,546.643877 112.866039,546.645055 112.845484,546.646644 L112.845484,546.646644 L112.791915,546.65499 L113.149899,546.39622 C113.559619,546.191324 113.866023,546.095555 114.503574,545.93614 L114.503574,545.93614 L114.699547,545.886245 L115.116841,545.76386 L115.246124,545.712066 L115.460338,545.549178 L115.675758,545.417784 L116.044041,545.225464 C116.075349,545.20815 116.103148,545.191224 116.132423,545.171122 L116.132423,545.171122 L116.365635,544.983864 C116.569261,544.848089 116.796028,544.692564 117.04169,544.520571 L117.04169,544.520571 L117.799359,543.981326 L118.800142,543.248468 L119.19201,542.966357 C119.517145,542.725335 119.928547,542.379137 120.402609,541.949909 L120.402609,541.949909 L120.60384,541.766206 L121.444089,540.972764 L122.499109,539.931208 C123.543221,538.88691 128.317501,533.54124 135.959587,524.883734 L135.959587,524.883734 L153.283928,505.187743 L174.448543,481.022422 L156.360021,462.930695 Z M481.311407,462.890855 L463.185396,481.020079 L484.932046,505.587175 L498.698968,521.061299 C507.387188,530.795282 513.135292,537.15356 514.962686,539.019171 L514.962686,539.019171 L517.729159,541.788014 C524.724032,548.784126 536.251599,549.110436 543.176929,542.530737 C547.450564,538.256345 548.817643,531.419737 546.96565,525.121845 L546.96565,525.121845 L546.918045,524.791218 L546.919787,524.695666 L546.670432,524.201154 C546.506544,523.87332 546.412486,523.61162 546.299811,523.19357 L546.299811,523.19357 L546.076564,522.350785 L545.989587,522.103768 L545.82354,521.890307 L545.692169,521.674849 L545.499883,521.306499 C545.44795,521.212561 545.399512,521.150194 545.258327,520.984849 C545.213076,520.916962 545.165632,520.846502 545.116115,520.773629 L545.116115,520.773629 L544.255966,519.550871 L543.239849,518.155129 C542.823181,517.589601 542.139264,516.827514 541.25988,515.918286 L541.25988,515.918286 L540.120209,514.764984 C539.113389,513.780744 535.370008,510.422574 529.39662,505.132081 L529.39662,505.132081 L502.91725,481.820412 L481.311407,462.890855 Z M339.107855,508.39366 L339.107855,528.19113 L299.263935,528.19113 L299.263935,508.39366 L339.107855,508.39366 Z M336.764907,510.735507 L301.6071,510.735507 L301.6071,525.846318 L336.764907,525.846318 L336.764907,510.735507 Z M319.000247,134.06144 C421.39447,134.06144 503.960752,216.29683 504.334352,318.689973 C503.960742,420.703713 421.022634,503.309921 319.000247,503.309921 C216.97786,503.309921 134.039753,420.703713 133.666142,318.681389 C134.040222,216.539633 216.734465,134.06144 319.000247,134.06144 Z M319.000247,136.404928 C218.025614,136.404928 136.378553,217.838675 136.009199,318.681389 C136.378081,419.403941 218.268279,500.966433 319.000247,500.966433 C419.732216,500.966433 501.622414,419.403941 501.991295,318.689957 C501.622407,217.596593 420.104049,136.404928 319.000247,136.404928 Z M467.319551,438.536117 L481.315878,452.534925 L453.142226,480.71357 L439.1459,466.714763 L467.319551,438.536117 Z M170.602637,438.428088 L198.776289,466.606734 L184.779963,480.605541 L156.606311,452.426896 L170.602637,438.428088 Z M319.000247,157.828565 C407.655673,157.828565 479.82618,229.664829 480.200141,318.319243 C479.82673,407.206798 407.784332,478.800074 319.000247,478.800074 C230.344822,478.800074 158.174315,406.963809 157.800354,318.309375 C158.174315,229.664829 230.344822,157.828565 319.000247,157.828565 Z M467.319698,441.848674 L442.459375,466.713404 L453.142438,477.398361 L478.002761,452.533631 L467.319698,441.848674 Z M170.601469,441.740692 L159.920063,452.423992 L184.780386,477.288722 L195.461793,466.605422 L170.601469,441.740692 Z M319.000247,160.172053 C231.634692,160.172053 160.511922,230.965433 160.143405,318.309375 C160.511922,405.663206 231.634692,476.456586 319.000247,476.456586 C406.495297,476.456586 477.489104,405.905364 477.857089,318.319263 C477.488573,230.965433 406.365803,160.172053 319.000247,160.172053 Z M319.000247,164.88443 C403.883883,164.88443 473.139443,233.689709 473.888082,318.696004 C473.139443,403.681652 403.883883,472.486931 319.000247,472.486931 C234.116612,472.486931 164.861052,403.681652 164.112412,318.675357 C164.861052,233.689709 234.116612,164.88443 319.000247,164.88443 Z M319.000247,167.227918 C235.403706,167.227918 167.192714,234.995421 166.455394,318.675357 C167.192714,402.37594 235.403706,470.143443 319.000247,470.143443 C402.596789,470.143443 470.807781,402.37594 471.545101,318.696004 C470.807781,234.995421 402.596789,167.227918 319.000247,167.227918 Z M319.000247,174.539825 C398.372568,174.539825 463.488859,239.31938 463.863136,318.691208 C463.488256,398.179749 398.616241,462.831537 319.000247,462.831537 C239.627927,462.831537 174.511636,398.051981 174.137359,318.680154 C174.511636,239.31938 239.627927,174.539825 319.000247,174.539825 Z M319.000247,176.883313 C240.917318,176.883313 176.848597,240.620716 176.480406,318.680154 C176.848597,396.750646 240.917318,460.488048 319.000247,460.488048 C397.325915,460.488048 461.15129,396.879348 461.520089,318.691208 C461.151897,240.620716 397.083177,176.883313 319.000247,176.883313 Z M332.795831,369.504523 L332.795831,454.290226 L304.833368,454.290226 L304.833368,369.504523 L332.795831,369.504523 Z M330.455012,371.846345 L307.176584,371.846345 L307.176584,451.944423 L330.455012,451.944423 L330.455012,371.846345 Z M272.90584,344.743429 L292.678113,364.519207 L232.736752,424.471194 L212.964478,404.695416 L272.90584,344.743429 Z M364.725068,344.548984 L424.66643,404.500971 L404.894156,424.276749 L344.952794,364.324763 L364.725068,344.548984 Z M272.906802,348.055254 L216.27942,404.695017 L232.737163,421.155677 L289.366888,364.518258 L272.906802,348.055254 Z M364.724794,347.863088 L348.267051,364.323748 L404.894433,420.961167 L421.354519,404.500507 L364.724794,347.863088 Z M319.371543,272.579216 C345.214355,272.579216 366.202069,293.101568 366.583202,318.720643 C365.82046,344.27703 344.840146,364.792146 319.371543,364.792146 C293.528731,364.792146 272.541017,344.269793 272.159884,318.650719 C272.926472,292.965477 293.658537,272.579216 319.371543,272.579216 Z M319.371543,274.922704 C294.932072,274.922704 275.2309,294.295267 274.502305,318.668194 C274.86466,342.950306 294.805153,362.448657 319.371543,362.448657 C343.56955,362.448657 363.516117,342.944367 364.240781,318.703167 C363.878426,294.421055 343.937932,274.922704 319.371543,274.922704 Z M319.000247,295.97498 C331.902752,295.97498 342.059001,305.778678 342.448977,318.721172 C342.062764,331.468454 331.658227,341.396382 319.000247,341.396382 C306.47375,341.396382 295.94223,331.226215 295.551518,318.65019 C295.93773,305.902907 306.342268,295.97498 319.000247,295.97498 Z M319.000247,298.318468 C307.600067,298.318468 298.241104,307.248716 297.893481,318.649082 C298.244568,329.885863 307.73731,339.052894 319.000247,339.052894 C330.400428,339.052894 339.759391,330.122645 340.10698,318.721172 C339.755443,307.118422 330.639035,298.318468 319.000247,298.318468 Z M528.839864,298.94587 L528.839864,338.425491 L508.674607,338.425491 L508.674607,298.94587 L528.839864,298.94587 Z M129.325888,298.94587 L129.325888,338.425491 L109.531926,338.425491 L109.531926,298.94587 L129.325888,298.94587 Z M24.0239224,298.947248 C25.9062519,298.973416 32.6075456,299.336205 43.1495009,299.968728 L43.1495009,299.968728 L76.708381,302.058794 L104.449088,303.847616 L104.449088,333.523745 L87.9595325,334.592059 L57.8453946,336.501957 C39.3929006,337.650927 27.4001569,338.345365 24.2785958,338.418979 L24.2785958,338.418979 L23.6689655,338.423912 C23.5924937,338.42214 23.5110775,338.418604 23.4078588,338.412 L23.4078588,338.412 L19.8087568,338.092484 C19.4521436,338.066759 19.1864987,338.05413 18.9934696,338.05413 L18.9934696,338.05413 L17.8219332,338.05413 L17.8235027,337.685319 L16.4627868,337.493528 L15.774914,337.369091 L15.4827731,337.300987 L15.4267359,337.30078 C15.2167398,337.279089 15.0423378,337.222894 14.8167726,337.120394 L14.8167726,337.120394 L14.5709397,337.002022 C14.4628527,336.947969 14.4417277,336.940046 14.5379234,336.940046 C13.6681953,336.940046 13.0704945,336.715868 11.7862233,336.073619 L11.964,336.161 L11.832474,336.135629 C11.6749418,336.089907 11.5377605,336.019395 11.4076164,335.926178 L11.2793248,335.825469 L11.1879207,335.737881 L11.0687225,335.714434 C4.56705452,332.654283 0.266390498,326.247134 0.0119439041,319.312937 L0.0119439041,319.312937 L-4.26325641e-14,318.661398 L0.0137135447,318.011725 C0.2922281,311.282207 4.75905662,304.811949 11.0436323,301.669104 L10.908,301.738 L10.9860815,301.673612 L11.1497675,301.556513 C11.359084,301.416944 11.5776603,301.307167 11.8134097,301.241676 L11.8134097,301.241676 L11.9822224,301.206585 L12.2561011,301.093191 C12.4147336,301.035096 12.5846411,300.983403 12.7936292,300.927056 L12.7936292,300.927056 L13.5931351,300.716835 C13.7704309,300.664088 13.8885327,300.617763 14.0139964,300.55502 L14.0139964,300.55502 L14.2613612,300.431315 L14.4872999,300.429233 C14.4577253,300.424471 14.4898745,300.409879 14.5709397,300.369339 L14.5709397,300.369339 L14.8167726,300.250967 C15.1175263,300.114301 15.327323,300.059954 15.65181,300.059954 L15.481,300.066 L16.1695354,299.901459 C16.5366967,299.815684 16.9149647,299.73073 17.2912893,299.648738 L17.8526872,299.528238 L18.6679077,299.359328 L18.6229973,299.377362 C19.5587102,299.065402 21.2048691,298.961255 23.3265313,298.947248 L23.3265313,298.947248 Z M617.150548,299.317231 C628.708625,299.317231 638,307.766112 638,318.727502 C637.607015,329.733042 628.574292,338.05413 617.150548,338.05413 L617.150548,338.05413 L613.641437,338.053427 C611.626603,338.037501 605.638981,337.751567 596.418843,337.244753 L596.418843,337.244753 L554.882991,334.81289 L533.922702,333.527202 L533.922702,303.844159 L550.604607,302.818478 C557.73636,302.384059 564.883081,301.953669 571.73678,301.547451 L571.73678,301.547451 L586.4799,300.686212 C601.018381,299.852031 610.544336,299.361148 613.453367,299.320039 L613.453367,299.320039 Z M126.984918,301.288607 L111.876785,301.288607 L111.876785,336.08003 L126.984918,336.08003 L126.984918,301.288607 Z M526.497565,301.288607 L511.019226,301.288607 L511.019226,336.08003 L526.497565,336.08003 L526.497565,301.288607 Z M24.0075973,301.290685 L23.3419968,301.290685 C21.527289,301.302665 19.9601689,301.401812 19.2253,301.637548 L19.2253,301.637548 L18.3416016,301.820166 C17.5303915,301.991744 16.6762487,302.183349 15.9359493,302.368457 L15.9359493,302.368457 L15.65181,302.403442 C15.7480057,302.403442 15.7268806,302.411366 15.6187937,302.465419 L15.6187937,302.465419 L15.3729608,302.58379 C15.2225839,302.652123 15.0949463,302.699877 14.9643421,302.730547 L14.9643421,302.730547 L14.8524865,302.7486 L14.5919726,302.855651 C14.4333401,302.913746 14.2634326,302.965438 14.0544445,303.021786 L14.0544445,303.021786 L13.4544309,303.176272 C13.1555593,303.255695 13.0013622,303.310165 12.8340773,303.393822 L12.8340773,303.393822 L12.5867125,303.517526 L12.4344354,303.517264 L12.0914863,303.765183 C6.54675779,306.538039 2.59685946,312.259517 2.35553228,318.084469 L2.35553228,318.084469 L2.34282115,318.685681 C2.34282115,324.925517 6.17393941,330.82059 12.066396,333.594002 L12.066396,333.594002 L11.9072441,333.513911 L12.0452355,333.544168 C12.2552785,333.60513 12.429142,333.710165 12.612509,333.865434 L12.612509,333.865434 L13.3872156,334.245947 C13.8702696,334.470153 14.1604069,334.567597 14.4136525,334.590863 L14.4136525,334.590863 L14.7629974,334.607185 C15.0429922,334.636107 15.2597086,334.726368 15.6187937,334.905943 L15.6187937,334.905943 L15.7119078,334.957201 C15.7186755,334.965938 15.6999078,334.967919 15.65181,334.967919 L15.65181,334.967919 L15.9359493,335.002904 C16.0031836,335.019716 16.0729371,335.036045 16.1454333,335.05197 L16.1454333,335.05197 L16.6151114,335.143307 L18.3448072,335.396208 C18.6195086,335.440394 18.825135,335.483155 19.0107571,335.537759 C19.1628107,335.582489 19.3042849,335.632964 19.4323728,335.693483 L19.4323728,335.693483 L19.4894274,335.72382 L20.2345045,335.77439 L23.6266328,336.076475 L24.6697445,336.063875 C26.4424342,336.006137 30.1809878,335.811775 35.6060398,335.499491 L35.6060398,335.499491 L72.853126,333.209551 L102.106172,331.327436 L102.106172,306.043544 L84.0472622,304.876283 L65.5638618,303.700892 L37.5097694,301.982181 C32.1350434,301.668436 28.1810076,301.454103 25.8685115,301.35399 L25.8685115,301.35399 L24.0075973,301.290685 Z M617.150548,301.66072 L613.717659,301.660951 C610.720047,301.675623 597.409083,302.386078 577.06967,303.580371 L577.06967,303.580371 L550.746976,305.157636 L536.265835,306.045887 L536.265835,331.322749 L550.746976,332.213726 L571.875385,333.484526 L588.513396,334.45407 C601.912957,335.218077 610.731868,335.668459 613.460654,335.707825 L613.460654,335.707825 L617.150548,335.710642 C627.336202,335.710642 635.31134,328.363818 635.657674,318.685681 C635.657674,309.112856 627.461776,301.66072 617.150548,301.66072 L617.150548,301.66072 Z M267.819116,304.51629 L267.819116,332.48371 L183.419734,332.48371 L183.419734,304.51629 L267.819116,304.51629 Z M454.952057,304.51629 L454.952057,332.48371 L370.181379,332.48371 L370.181379,304.51629 L454.952057,304.51629 Z M452.611109,306.859078 L372.524883,306.859078 L372.524883,330.139288 L452.611109,330.139288 L452.611109,306.859078 Z M265.476919,306.859078 L185.763241,306.859078 L185.763241,330.139288 L265.476919,330.139288 L265.476919,306.859078 Z M232.596922,212.82233 L292.538284,272.774317 L272.76601,292.550095 L212.824648,232.598108 L232.596922,212.82233 Z M405.211094,212.777173 L424.983367,232.552951 L365.042005,292.504938 L345.269732,272.729159 L405.211094,212.777173 Z M232.598922,216.135625 L216.138836,232.596285 L272.766218,289.233704 L289.223961,272.773044 L232.598922,216.135625 Z M405.21088,216.090273 L348.583023,272.728167 L365.041701,289.189762 L421.669557,232.551868 L405.21088,216.090273 Z M332.795831,182.709774 L332.795831,267.495477 L304.833368,267.495477 L304.833368,182.709774 L332.795831,182.709774 Z M330.455012,185.051599 L307.176584,185.051599 L307.176584,265.149677 L330.455012,265.149677 L330.455012,185.051599 Z M184.805248,156.756499 L198.801574,170.755306 L170.627923,198.933952 L156.631596,184.935144 L184.805248,156.756499 Z M453.168254,156.642454 L481.341906,184.821099 L467.345579,198.819907 L439.171927,170.641261 L453.168254,156.642454 Z M184.806533,160.069273 L159.94621,184.934003 L170.627616,195.617303 L195.48794,170.752573 L184.806533,160.069273 Z M453.168409,159.953656 L442.485345,170.638613 L467.345669,195.503343 L478.028732,184.818386 L453.168409,159.953656 Z M94.4101958,92.331732 C99.3398352,87.7963241 106.790353,86.4186805 113.633099,88.4316096 L113.633099,88.4316096 L113.919695,88.5159175 L114.130932,88.7271923 L114.17534,88.7576755 L114.326271,88.7639266 C114.964914,88.8045351 115.503429,88.9937899 116.392845,89.4229197 L116.392845,89.4229197 L116.796822,89.6217847 L117.178277,89.9004319 L117.563592,90.1014236 C117.816706,90.2371829 117.96544,90.3406475 118.036633,90.4375971 C118.499811,90.7464373 119.026382,91.1165112 119.555986,91.4991275 L119.555986,91.4991275 L120.890153,92.4731043 C121.246454,92.7346095 121.67022,93.0879577 122.1535,93.5198426 L122.1535,93.5198426 L122.922061,94.2249093 C123.513404,94.779391 124.008495,95.2642535 124.565672,95.8234054 C125.206713,96.5286756 127.177757,98.7488722 130.305288,102.286511 L130.305288,102.286511 L178.028381,156.45198 L156.794087,177.690037 L138.868309,161.831702 L122.53441,147.329281 C108.979445,135.26652 99.9929709,127.183378 97.3026582,124.592028 L97.3026582,124.592028 L96.5539073,123.847085 C95.9163878,123.187796 95.3509457,122.52851 94.6319922,121.558191 C86.7687349,113.300308 86.4014718,100.32138 93.9093538,92.8121669 L93.9093538,92.8121669 Z M516.092802,94.2776561 C524.349222,86.413005 537.32585,86.0456768 544.833732,93.5548896 C549.749662,98.4716908 551.295485,106.202173 549.213513,113.282131 L549.213513,113.282131 L549.12922,113.568778 L548.917983,113.780052 L548.887968,113.82128 L548.881255,113.975426 C548.840654,114.614182 548.651432,115.152793 548.222379,116.042366 L548.222379,116.042366 L548.023549,116.446415 L547.804096,116.750943 C547.783161,116.771882 547.766852,116.791699 547.744951,116.827937 L547.744951,116.827937 L547.543995,117.21332 C547.40826,117.466479 547.304814,117.61524 547.207881,117.686445 C547.15907,117.759675 547.108162,117.835285 547.055257,117.913156 L547.055257,117.913156 L546.156695,119.190854 L545.160145,120.558098 C544.531298,121.413511 543.417397,122.612244 542.104495,123.936117 L542.104495,123.936117 L541.823027,124.216642 C541.676072,124.350261 541.463391,124.541603 541.186788,124.789084 L541.186788,124.789084 L481.205204,177.688833 L459.970904,156.450769 L475.734784,138.644187 L486.883541,126.110728 L500.830376,110.545018 C507.096015,103.600125 511.324932,99.0085996 513.061742,97.2932586 L513.061742,97.2932586 L513.473288,96.8971415 Z M543.176929,95.2119858 C536.599426,88.633317 525.07324,88.9595876 517.708714,95.9746647 L517.708714,95.9746647 L515.098863,98.5843361 C513.246125,100.305041 505.726451,108.553203 494.216221,121.418277 L494.216221,121.418277 L479.759977,137.640209 L463.187739,156.350901 L481.309064,174.475438 L509.706156,149.466093 L540.205048,122.522594 L541.217808,121.491146 C542.215016,120.45485 543.045284,119.521634 543.439397,118.932962 L543.439397,118.932962 L544.255966,117.820491 L545.463848,116.130937 L545.692169,115.696513 C545.735644,115.618656 545.77841,115.548039 545.82354,115.481055 L545.82354,115.481055 L545.996616,115.257838 L546.214589,114.80532 C546.425723,114.345906 546.518441,114.064774 546.541056,113.81852 L546.541056,113.81852 L546.564193,113.439208 C546.609992,113.10838 546.743097,112.812776 546.929157,112.533638 L546.929157,112.533638 L547.029911,112.391752 L547.145765,111.967577 C548.663686,106.072864 547.400576,99.8038682 543.608649,95.663177 L543.608649,95.663177 Z M112.318778,90.499724 C106.206826,88.9253047 99.6924238,90.3422644 95.5661564,94.4692632 C88.9886534,101.047932 89.3148662,112.576162 96.4175752,120.047046 C97.2721394,121.186667 97.8304521,121.81488 98.5365205,122.521073 L98.5365205,122.521073 L98.6589333,122.642484 C100.398412,124.354985 106.421823,129.807989 115.716985,138.112253 L115.716985,138.112253 L137.844035,157.792403 L156.695081,174.475438 L174.818748,156.348558 L149.120673,127.162736 L122.870404,97.4401538 C121.459071,96.028571 120.0982,94.7525279 119.284831,94.2081731 L119.284831,94.2081731 L118.572288,93.6809995 C118.357367,93.5234967 118.137536,93.3636789 117.914756,93.2030323 L117.914756,93.2030323 L116.55838,92.2410952 C116.537445,92.2201558 116.517631,92.2038442 116.4814,92.1819396 L116.4814,92.1819396 L116.047053,91.9535777 C115.96921,91.9100954 115.898606,91.867322 115.831633,91.8221833 L115.831633,91.8221833 L115.611643,91.6495398 L115.156019,91.4310651 C114.696686,91.2198942 114.415604,91.1271598 114.169393,91.1045405 L114.169393,91.1045405 L113.790148,91.0813994 C113.459378,91.0355917 113.163828,90.9024631 112.884739,90.716371 L112.884739,90.716371 L112.750752,90.618405 Z M339.107855,109.180231 L339.107855,128.977701 L299.263935,128.977701 L299.263935,109.180231 L339.107855,109.180231 Z M336.764907,111.522318 L301.6071,111.522318 L301.6071,126.633129 L336.764907,126.633129 L336.764907,111.522318 Z M319.000247,-2.67874611e-12 C326.135631,-2.67874611e-12 332.597847,4.30890757 336.358333,10.9954006 L336.354,10.988 L336.291606,10.8765372 L336.380597,10.9882804 L336.497675,11.1519954 C336.637219,11.361349 336.746977,11.5799641 336.812456,11.8157553 L336.812456,11.8157553 L336.849257,11.9826636 L336.960915,12.2585251 C337.019,12.4171857 337.070683,12.5871234 337.12702,12.7961485 L337.12702,12.7961485 L337.337204,13.5957961 C337.389942,13.7731234 337.436259,13.8912461 337.498991,14.016732 L337.498991,14.016732 L337.622673,14.2641406 L337.624755,14.4901194 C337.626342,14.4802595 337.629022,14.4772589 337.633389,14.4806434 L337.633389,14.4806434 L337.802989,14.8196505 C337.939631,15.1204575 337.993969,15.3302914 337.993969,15.6548359 L337.987991,15.4838347 L338.281033,16.7366156 L338.654293,18.4833268 L338.67644,18.6265498 C338.988345,19.5624286 339.092473,21.2088793 339.106503,23.338802 L339.106503,23.338802 L339.103461,24.1916233 C339.062897,26.160388 338.739521,32.1767342 338.185357,41.4814175 L338.185357,41.4814175 L335.516768,84.2123123 L334.206029,104.482386 L303.789166,104.082093 L302.764561,87.4116305 C302.330219,80.2786131 301.899905,73.1306251 301.49376,66.2757119 L301.49376,66.2757119 L300.868567,55.618816 C299.911945,39.1268079 299.33592,28.1887178 299.270241,24.7603455 L299.270241,24.7603455 L299.263935,20.8538945 C299.263935,9.12092382 307.903279,-2.67874611e-12 319.000247,-2.67874611e-12 Z M319.000247,2.34348805 C309.226499,2.34348805 301.607008,10.3877101 301.607008,20.8538945 L301.607008,20.8538945 L301.607999,24.3924847 C301.634055,27.1705634 302.173024,37.5528586 303.090055,53.4486086 L303.090055,53.4486086 L304.431944,76.1747797 L305.993333,101.766378 L332.015498,102.108527 L332.936859,87.8249811 L334.353676,65.5757346 L336.23324,34.7267288 C336.56067,28.9929366 336.745516,25.2998591 336.763456,24.0121043 L336.763456,24.0121043 L336.763456,23.3463858 C336.751478,21.5313564 336.652349,19.9639585 336.416237,19.2268857 L336.416237,19.2268857 L336.252228,18.4332157 L335.865471,16.6844447 L335.685875,15.9390255 L335.650896,15.6548359 C335.650896,15.7510486 335.642974,15.7299198 335.588931,15.6218137 L335.588931,15.6218137 L335.47058,15.3759373 C335.402259,15.2255338 335.354514,15.0978735 335.323849,14.9672461 L335.323849,14.9672461 L335.305172,14.8534364 L335.198767,14.5948107 C335.140682,14.4361501 335.088999,14.2662124 335.032662,14.0571873 L335.032662,14.0571873 L334.878203,13.4570674 C334.798794,13.1581428 334.744334,13.0039183 334.660692,12.8366038 L334.660692,12.8366038 L334.537009,12.5891951 L334.538988,12.4373003 L334.316168,12.1443219 C330.94778,6.15501488 325.231503,2.34348805 319.000247,2.34348805 Z" id="形状结合" fill="url(#linearGradient-3)" fill-rule="nonzero" style="mix-blend-mode: overlay;" mask="url(#mask-2)"></path>
                            <path d="M333.835683,532.532146 L336.605959,575.820624 C337.948987,597.287857 338.73656,610.86178 338.73656,613.175215 L338.73656,613.175215 L338.728699,613.491148 L338.443402,616.682677 C338.410867,617.066175 338.386904,617.389107 338.36943,617.681121 L338.36943,617.681121 L338.342514,618.23271 L338.042722,619.6614 L337.775956,620.848065 L337.615442,621.519218 L337.612048,621.570278 C337.59036,621.780311 337.534175,621.954744 337.431694,622.18035 L337.431694,622.18035 L337.313343,622.426226 C337.259299,622.534332 337.251378,622.555461 337.251378,622.459248 L337.251,622.472 L337.249772,622.579947 C337.234192,623.136385 337.097017,623.60808 336.487309,624.449066 L336.349297,624.635094 L336.310351,624.68527 L336.508787,624.687416 C336.508787,625.141344 336.377227,625.436303 336.136998,625.718424 L336.136998,625.718424 L336.052613,625.807801 L336.025983,625.929064 C332.966374,632.431884 326.560361,636.733311 319.64953,636.988032 L319.64953,636.988032 L319.000247,637 C307.903279,637 299.263935,627.879076 299.263935,616.146106 L299.263935,616.146106 L299.263935,612.803854 C299.263935,610.813529 299.602957,603.832577 300.212426,592.894664 L300.212426,592.894664 L302.764561,549.58837 L303.712425,534.161348 L303.719481,532.532146 L333.835683,532.532146 Z M331.640607,534.873434 L306.016763,534.873434 L303.832729,570.862918 L302.974604,585.558312 C302.162197,599.722556 301.673607,609.159931 301.613333,612.250271 L301.613333,612.250271 L301.607008,616.146106 C301.607008,626.61229 309.226499,634.656512 319.000247,634.656512 C325.238978,634.656512 331.133006,630.824715 333.905927,624.931214 L333.829037,625.08835 L333.856102,624.952378 C333.917053,624.742298 334.022069,624.568403 334.166206,624.399131 L334.166206,624.399131 L334.298959,624.257704 L334.246104,624.347808 L335.33725,623.515672 L334.289396,624.163396 C334.761147,623.219727 334.908305,622.827237 334.908305,622.459248 L334.908305,622.459248 L334.91893,622.234134 C334.947847,621.95409 335.038092,621.737335 335.217635,621.378186 C335.271678,621.27008 335.2796,621.248951 335.2796,621.345164 L335.2796,621.345164 L335.31458,621.060974 L335.624007,619.74809 L335.998501,618.037285 C336.011026,617.993554 336.019287,617.978759 336.022191,618.002912 C336.022191,617.697275 336.04292,617.304968 336.085928,616.761657 L336.085928,616.761657 L336.339683,613.986846 C336.383287,613.499018 336.393487,613.324341 336.393487,613.175215 L336.393487,613.175215 L336.367436,612.093785 C336.258062,609.027866 335.808193,601.061949 335.092048,589.305122 L335.092048,589.305122 L333.285848,560.426654 L331.640607,534.873434 Z M156.372811,460.116687 C156.72394,460.245253 156.958026,460.330964 157.117778,460.425336 L157.117778,460.425336 L157.189469,460.472376 L157.201212,460.459883 L177.654524,480.91682 L157.284433,504.180809 L143.260341,520.144613 C132.767375,532.064586 126.048403,539.625023 124.345905,541.394043 L124.345905,541.394043 L123.758555,541.98447 C123.508987,542.232297 123.286429,542.451004 123.068927,542.661279 L123.068927,542.661279 L122.409629,543.287491 L121.64805,543.979381 C121.117766,544.446189 120.663514,544.810477 120.317477,545.039403 L120.317477,545.039403 L118.567117,546.312629 L117.97756,546.717502 C117.908762,546.760873 117.860328,546.787339 117.843887,546.787362 C117.576346,547.054951 117.366197,547.186318 116.98247,547.378215 L116.98247,547.378215 L116.806981,547.470929 L116.425527,547.749577 C116.015807,547.954473 115.709403,548.050241 115.071852,548.209657 L115.071852,548.209657 L114.818107,548.274749 C114.519235,548.354173 114.365038,548.408642 114.197753,548.492299 L114.197753,548.492299 L114.091618,548.60489 C113.842432,548.771044 113.580122,548.894975 113.291338,548.95223 L113.12,548.977 L112.551893,549.1359 C106.043789,550.818832 99.0879213,549.475269 94.3153825,545.285748 L94.0199655,545.020199 L93.5170964,544.537684 C86.0311721,536.656367 86.3984674,523.6763 94.2806493,515.792721 L94.2806493,515.792721 L96.9586076,513.114683 C98.1600408,511.924612 101.315686,509.03472 106.59893,504.278804 L106.59893,504.278804 L142.679275,472.058968 L153.14555,462.689619 L154.701126,461.271505 L153.544472,460.116687 Z M481.202636,459.685097 L509.534318,484.510745 L522.651979,496.04857 C532.55794,504.778878 539.077504,510.576454 541.260515,512.616558 L541.260515,512.616558 L542.11896,513.449204 C543.649974,514.986518 544.747864,516.179916 545.313855,517.032307 L545.313855,517.032307 L546.156695,518.180507 L546.915129,519.255601 C547.001948,519.385005 547.061471,519.48167 547.061505,519.506334 C547.329047,519.773923 547.46039,519.98411 547.652253,520.367905 L547.652253,520.367905 L547.706629,520.474559 C547.7517,520.560126 547.772693,520.589009 547.804096,520.620418 L547.804096,520.620418 L548.023549,520.924947 C548.228409,521.334739 548.32416,521.641198 548.483548,522.278861 L548.483548,522.278861 L548.578682,522.633396 C549.129361,522.871285 549.242705,523.425617 549.258859,524.464767 L549.258859,524.464767 L549.262859,524.632392 L549.409626,525.170628 C551.127315,531.815495 549.69165,538.92706 545.294655,543.70584 L545.294655,543.70584 L544.812226,544.208799 C536.932306,551.69605 523.954539,551.328689 516.072357,543.44511 L516.072357,543.44511 L513.296291,540.666584 C511.478909,538.811242 505.962471,532.713892 497.610194,523.360364 L497.610194,523.360364 L471.300981,493.738493 L459.970871,480.920625 L481.202636,459.685097 Z M156.360021,462.930695 L154.382719,464.729889 L106.243808,507.753871 C102.507364,511.127262 100.088086,513.346116 98.9172132,514.477053 L98.9172132,514.477053 L97.1888553,516.198192 L95.4907216,517.912419 C88.9316577,524.945042 88.7593392,536.126117 95.1948609,542.902098 C99.468495,547.17649 106.303891,548.543811 112.600667,546.69149 L112.600667,546.69149 L112.931235,546.643877 C112.893884,546.643877 112.866039,546.645055 112.845484,546.646644 L112.845484,546.646644 L112.791915,546.65499 L113.149899,546.39622 C113.559619,546.191324 113.866023,546.095555 114.503574,545.93614 L114.503574,545.93614 L114.699547,545.886245 L115.116841,545.76386 L115.246124,545.712066 L115.460338,545.549178 L115.675758,545.417784 L116.044041,545.225464 C116.075349,545.20815 116.103148,545.191224 116.132423,545.171122 L116.132423,545.171122 L116.365635,544.983864 C116.569261,544.848089 116.796028,544.692564 117.04169,544.520571 L117.04169,544.520571 L117.799359,543.981326 L118.800142,543.248468 L119.19201,542.966357 C119.517145,542.725335 119.928547,542.379137 120.402609,541.949909 L120.402609,541.949909 L120.60384,541.766206 L121.444089,540.972764 L122.499109,539.931208 C123.543221,538.88691 128.317501,533.54124 135.959587,524.883734 L135.959587,524.883734 L153.283928,505.187743 L174.448543,481.022422 L156.360021,462.930695 Z M481.311407,462.890855 L463.185396,481.020079 L484.932046,505.587175 L498.698968,521.061299 C507.387188,530.795282 513.135292,537.15356 514.962686,539.019171 L514.962686,539.019171 L517.729159,541.788014 C524.724032,548.784126 536.251599,549.110436 543.176929,542.530737 C547.450564,538.256345 548.817643,531.419737 546.96565,525.121845 L546.96565,525.121845 L546.918045,524.791218 L546.919787,524.695666 L546.670432,524.201154 C546.506544,523.87332 546.412486,523.61162 546.299811,523.19357 L546.299811,523.19357 L546.076564,522.350785 L545.989587,522.103768 L545.82354,521.890307 L545.692169,521.674849 L545.499883,521.306499 C545.44795,521.212561 545.399512,521.150194 545.258327,520.984849 C545.213076,520.916962 545.165632,520.846502 545.116115,520.773629 L545.116115,520.773629 L544.255966,519.550871 L543.239849,518.155129 C542.823181,517.589601 542.139264,516.827514 541.25988,515.918286 L541.25988,515.918286 L540.120209,514.764984 C539.113389,513.780744 535.370008,510.422574 529.39662,505.132081 L529.39662,505.132081 L502.91725,481.820412 L481.311407,462.890855 Z M339.107855,508.39366 L339.107855,528.19113 L299.263935,528.19113 L299.263935,508.39366 L339.107855,508.39366 Z M336.764907,510.735507 L301.6071,510.735507 L301.6071,525.846318 L336.764907,525.846318 L336.764907,510.735507 Z M319.000247,134.06144 C421.39447,134.06144 503.960752,216.29683 504.334352,318.689973 C503.960742,420.703713 421.022634,503.309921 319.000247,503.309921 C216.97786,503.309921 134.039753,420.703713 133.666142,318.681389 C134.040222,216.539633 216.734465,134.06144 319.000247,134.06144 Z M319.000247,136.404928 C218.025614,136.404928 136.378553,217.838675 136.009199,318.681389 C136.378081,419.403941 218.268279,500.966433 319.000247,500.966433 C419.732216,500.966433 501.622414,419.403941 501.991295,318.689957 C501.622407,217.596593 420.104049,136.404928 319.000247,136.404928 Z M467.319551,438.536117 L481.315878,452.534925 L453.142226,480.71357 L439.1459,466.714763 L467.319551,438.536117 Z M170.602637,438.428088 L198.776289,466.606734 L184.779963,480.605541 L156.606311,452.426896 L170.602637,438.428088 Z M319.000247,157.828565 C407.655673,157.828565 479.82618,229.664829 480.200141,318.319243 C479.82673,407.206798 407.784332,478.800074 319.000247,478.800074 C230.344822,478.800074 158.174315,406.963809 157.800354,318.309375 C158.174315,229.664829 230.344822,157.828565 319.000247,157.828565 Z M467.319698,441.848674 L442.459375,466.713404 L453.142438,477.398361 L478.002761,452.533631 L467.319698,441.848674 Z M170.601469,441.740692 L159.920063,452.423992 L184.780386,477.288722 L195.461793,466.605422 L170.601469,441.740692 Z M319.000247,160.172053 C231.634692,160.172053 160.511922,230.965433 160.143405,318.309375 C160.511922,405.663206 231.634692,476.456586 319.000247,476.456586 C406.495297,476.456586 477.489104,405.905364 477.857089,318.319263 C477.488573,230.965433 406.365803,160.172053 319.000247,160.172053 Z M319.000247,164.88443 C403.883883,164.88443 473.139443,233.689709 473.888082,318.696004 C473.139443,403.681652 403.883883,472.486931 319.000247,472.486931 C234.116612,472.486931 164.861052,403.681652 164.112412,318.675357 C164.861052,233.689709 234.116612,164.88443 319.000247,164.88443 Z M319.000247,167.227918 C235.403706,167.227918 167.192714,234.995421 166.455394,318.675357 C167.192714,402.37594 235.403706,470.143443 319.000247,470.143443 C402.596789,470.143443 470.807781,402.37594 471.545101,318.696004 C470.807781,234.995421 402.596789,167.227918 319.000247,167.227918 Z M319.000247,174.539825 C398.372568,174.539825 463.488859,239.31938 463.863136,318.691208 C463.488256,398.179749 398.616241,462.831537 319.000247,462.831537 C239.627927,462.831537 174.511636,398.051981 174.137359,318.680154 C174.511636,239.31938 239.627927,174.539825 319.000247,174.539825 Z M319.000247,176.883313 C240.917318,176.883313 176.848597,240.620716 176.480406,318.680154 C176.848597,396.750646 240.917318,460.488048 319.000247,460.488048 C397.325915,460.488048 461.15129,396.879348 461.520089,318.691208 C461.151897,240.620716 397.083177,176.883313 319.000247,176.883313 Z M332.795831,369.504523 L332.795831,454.290226 L304.833368,454.290226 L304.833368,369.504523 L332.795831,369.504523 Z M330.455012,371.846345 L307.176584,371.846345 L307.176584,451.944423 L330.455012,451.944423 L330.455012,371.846345 Z M272.90584,344.743429 L292.678113,364.519207 L232.736752,424.471194 L212.964478,404.695416 L272.90584,344.743429 Z M364.725068,344.548984 L424.66643,404.500971 L404.894156,424.276749 L344.952794,364.324763 L364.725068,344.548984 Z M272.906802,348.055254 L216.27942,404.695017 L232.737163,421.155677 L289.366888,364.518258 L272.906802,348.055254 Z M364.724794,347.863088 L348.267051,364.323748 L404.894433,420.961167 L421.354519,404.500507 L364.724794,347.863088 Z M319.371543,272.579216 C345.214355,272.579216 366.202069,293.101568 366.583202,318.720643 C365.82046,344.27703 344.840146,364.792146 319.371543,364.792146 C293.528731,364.792146 272.541017,344.269793 272.159884,318.650719 C272.926472,292.965477 293.658537,272.579216 319.371543,272.579216 Z M319.371543,274.922704 C294.932072,274.922704 275.2309,294.295267 274.502305,318.668194 C274.86466,342.950306 294.805153,362.448657 319.371543,362.448657 C343.56955,362.448657 363.516117,342.944367 364.240781,318.703167 C363.878426,294.421055 343.937932,274.922704 319.371543,274.922704 Z M319.000247,295.97498 C331.902752,295.97498 342.059001,305.778678 342.448977,318.721172 C342.062764,331.468454 331.658227,341.396382 319.000247,341.396382 C306.47375,341.396382 295.94223,331.226215 295.551518,318.65019 C295.93773,305.902907 306.342268,295.97498 319.000247,295.97498 Z M319.000247,298.318468 C307.600067,298.318468 298.241104,307.248716 297.893481,318.649082 C298.244568,329.885863 307.73731,339.052894 319.000247,339.052894 C330.400428,339.052894 339.759391,330.122645 340.10698,318.721172 C339.755443,307.118422 330.639035,298.318468 319.000247,298.318468 Z M528.839864,298.94587 L528.839864,338.425491 L508.674607,338.425491 L508.674607,298.94587 L528.839864,298.94587 Z M129.325888,298.94587 L129.325888,338.425491 L109.531926,338.425491 L109.531926,298.94587 L129.325888,298.94587 Z M24.0239224,298.947248 C25.9062519,298.973416 32.6075456,299.336205 43.1495009,299.968728 L43.1495009,299.968728 L76.708381,302.058794 L104.449088,303.847616 L104.449088,333.523745 L87.9595325,334.592059 L57.8453946,336.501957 C39.3929006,337.650927 27.4001569,338.345365 24.2785958,338.418979 L24.2785958,338.418979 L23.6689655,338.423912 C23.5924937,338.42214 23.5110775,338.418604 23.4078588,338.412 L23.4078588,338.412 L19.8087568,338.092484 C19.4521436,338.066759 19.1864987,338.05413 18.9934696,338.05413 L18.9934696,338.05413 L17.8219332,338.05413 L17.8235027,337.685319 L16.4627868,337.493528 L15.774914,337.369091 L15.4827731,337.300987 L15.4267359,337.30078 C15.2167398,337.279089 15.0423378,337.222894 14.8167726,337.120394 L14.8167726,337.120394 L14.5709397,337.002022 C14.4628527,336.947969 14.4417277,336.940046 14.5379234,336.940046 C13.6681953,336.940046 13.0704945,336.715868 11.7862233,336.073619 L11.964,336.161 L11.832474,336.135629 C11.6749418,336.089907 11.5377605,336.019395 11.4076164,335.926178 L11.2793248,335.825469 L11.1879207,335.737881 L11.0687225,335.714434 C4.56705452,332.654283 0.266390498,326.247134 0.0119439041,319.312937 L0.0119439041,319.312937 L-4.26325641e-14,318.661398 L0.0137135447,318.011725 C0.2922281,311.282207 4.75905662,304.811949 11.0436323,301.669104 L10.908,301.738 L10.9860815,301.673612 L11.1497675,301.556513 C11.359084,301.416944 11.5776603,301.307167 11.8134097,301.241676 L11.8134097,301.241676 L11.9822224,301.206585 L12.2561011,301.093191 C12.4147336,301.035096 12.5846411,300.983403 12.7936292,300.927056 L12.7936292,300.927056 L13.5931351,300.716835 C13.7704309,300.664088 13.8885327,300.617763 14.0139964,300.55502 L14.0139964,300.55502 L14.2613612,300.431315 L14.4872999,300.429233 C14.4577253,300.424471 14.4898745,300.409879 14.5709397,300.369339 L14.5709397,300.369339 L14.8167726,300.250967 C15.1175263,300.114301 15.327323,300.059954 15.65181,300.059954 L15.481,300.066 L16.1695354,299.901459 C16.5366967,299.815684 16.9149647,299.73073 17.2912893,299.648738 L17.8526872,299.528238 L18.6679077,299.359328 L18.6229973,299.377362 C19.5587102,299.065402 21.2048691,298.961255 23.3265313,298.947248 L23.3265313,298.947248 Z M617.150548,299.317231 C628.708625,299.317231 638,307.766112 638,318.727502 C637.607015,329.733042 628.574292,338.05413 617.150548,338.05413 L617.150548,338.05413 L613.641437,338.053427 C611.626603,338.037501 605.638981,337.751567 596.418843,337.244753 L596.418843,337.244753 L554.882991,334.81289 L533.922702,333.527202 L533.922702,303.844159 L550.604607,302.818478 C557.73636,302.384059 564.883081,301.953669 571.73678,301.547451 L571.73678,301.547451 L586.4799,300.686212 C601.018381,299.852031 610.544336,299.361148 613.453367,299.320039 L613.453367,299.320039 Z M126.984918,301.288607 L111.876785,301.288607 L111.876785,336.08003 L126.984918,336.08003 L126.984918,301.288607 Z M526.497565,301.288607 L511.019226,301.288607 L511.019226,336.08003 L526.497565,336.08003 L526.497565,301.288607 Z M24.0075973,301.290685 L23.3419968,301.290685 C21.527289,301.302665 19.9601689,301.401812 19.2253,301.637548 L19.2253,301.637548 L18.3416016,301.820166 C17.5303915,301.991744 16.6762487,302.183349 15.9359493,302.368457 L15.9359493,302.368457 L15.65181,302.403442 C15.7480057,302.403442 15.7268806,302.411366 15.6187937,302.465419 L15.6187937,302.465419 L15.3729608,302.58379 C15.2225839,302.652123 15.0949463,302.699877 14.9643421,302.730547 L14.9643421,302.730547 L14.8524865,302.7486 L14.5919726,302.855651 C14.4333401,302.913746 14.2634326,302.965438 14.0544445,303.021786 L14.0544445,303.021786 L13.4544309,303.176272 C13.1555593,303.255695 13.0013622,303.310165 12.8340773,303.393822 L12.8340773,303.393822 L12.5867125,303.517526 L12.4344354,303.517264 L12.0914863,303.765183 C6.54675779,306.538039 2.59685946,312.259517 2.35553228,318.084469 L2.35553228,318.084469 L2.34282115,318.685681 C2.34282115,324.925517 6.17393941,330.82059 12.066396,333.594002 L12.066396,333.594002 L11.9072441,333.513911 L12.0452355,333.544168 C12.2552785,333.60513 12.429142,333.710165 12.612509,333.865434 L12.612509,333.865434 L13.3872156,334.245947 C13.8702696,334.470153 14.1604069,334.567597 14.4136525,334.590863 L14.4136525,334.590863 L14.7629974,334.607185 C15.0429922,334.636107 15.2597086,334.726368 15.6187937,334.905943 L15.6187937,334.905943 L15.7119078,334.957201 C15.7186755,334.965938 15.6999078,334.967919 15.65181,334.967919 L15.65181,334.967919 L15.9359493,335.002904 C16.0031836,335.019716 16.0729371,335.036045 16.1454333,335.05197 L16.1454333,335.05197 L16.6151114,335.143307 L18.3448072,335.396208 C18.6195086,335.440394 18.825135,335.483155 19.0107571,335.537759 C19.1628107,335.582489 19.3042849,335.632964 19.4323728,335.693483 L19.4323728,335.693483 L19.4894274,335.72382 L20.2345045,335.77439 L23.6266328,336.076475 L24.6697445,336.063875 C26.4424342,336.006137 30.1809878,335.811775 35.6060398,335.499491 L35.6060398,335.499491 L72.853126,333.209551 L102.106172,331.327436 L102.106172,306.043544 L84.0472622,304.876283 L65.5638618,303.700892 L37.5097694,301.982181 C32.1350434,301.668436 28.1810076,301.454103 25.8685115,301.35399 L25.8685115,301.35399 L24.0075973,301.290685 Z M617.150548,301.66072 L613.717659,301.660951 C610.720047,301.675623 597.409083,302.386078 577.06967,303.580371 L577.06967,303.580371 L550.746976,305.157636 L536.265835,306.045887 L536.265835,331.322749 L550.746976,332.213726 L571.875385,333.484526 L588.513396,334.45407 C601.912957,335.218077 610.731868,335.668459 613.460654,335.707825 L613.460654,335.707825 L617.150548,335.710642 C627.336202,335.710642 635.31134,328.363818 635.657674,318.685681 C635.657674,309.112856 627.461776,301.66072 617.150548,301.66072 L617.150548,301.66072 Z M267.819116,304.51629 L267.819116,332.48371 L183.419734,332.48371 L183.419734,304.51629 L267.819116,304.51629 Z M454.952057,304.51629 L454.952057,332.48371 L370.181379,332.48371 L370.181379,304.51629 L454.952057,304.51629 Z M452.611109,306.859078 L372.524883,306.859078 L372.524883,330.139288 L452.611109,330.139288 L452.611109,306.859078 Z M265.476919,306.859078 L185.763241,306.859078 L185.763241,330.139288 L265.476919,330.139288 L265.476919,306.859078 Z M232.596922,212.82233 L292.538284,272.774317 L272.76601,292.550095 L212.824648,232.598108 L232.596922,212.82233 Z M405.211094,212.777173 L424.983367,232.552951 L365.042005,292.504938 L345.269732,272.729159 L405.211094,212.777173 Z M232.598922,216.135625 L216.138836,232.596285 L272.766218,289.233704 L289.223961,272.773044 L232.598922,216.135625 Z M405.21088,216.090273 L348.583023,272.728167 L365.041701,289.189762 L421.669557,232.551868 L405.21088,216.090273 Z M332.795831,182.709774 L332.795831,267.495477 L304.833368,267.495477 L304.833368,182.709774 L332.795831,182.709774 Z M330.455012,185.051599 L307.176584,185.051599 L307.176584,265.149677 L330.455012,265.149677 L330.455012,185.051599 Z M184.805248,156.756499 L198.801574,170.755306 L170.627923,198.933952 L156.631596,184.935144 L184.805248,156.756499 Z M453.168254,156.642454 L481.341906,184.821099 L467.345579,198.819907 L439.171927,170.641261 L453.168254,156.642454 Z M184.806533,160.069273 L159.94621,184.934003 L170.627616,195.617303 L195.48794,170.752573 L184.806533,160.069273 Z M453.168409,159.953656 L442.485345,170.638613 L467.345669,195.503343 L478.028732,184.818386 L453.168409,159.953656 Z M94.4101958,92.331732 C99.3398352,87.7963241 106.790353,86.4186805 113.633099,88.4316096 L113.633099,88.4316096 L113.919695,88.5159175 L114.130932,88.7271923 L114.17534,88.7576755 L114.326271,88.7639266 C114.964914,88.8045351 115.503429,88.9937899 116.392845,89.4229197 L116.392845,89.4229197 L116.796822,89.6217847 L117.178277,89.9004319 L117.563592,90.1014236 C117.816706,90.2371829 117.96544,90.3406475 118.036633,90.4375971 C118.499811,90.7464373 119.026382,91.1165112 119.555986,91.4991275 L119.555986,91.4991275 L120.890153,92.4731043 C121.246454,92.7346095 121.67022,93.0879577 122.1535,93.5198426 L122.1535,93.5198426 L122.922061,94.2249093 C123.513404,94.779391 124.008495,95.2642535 124.565672,95.8234054 C125.206713,96.5286756 127.177757,98.7488722 130.305288,102.286511 L130.305288,102.286511 L178.028381,156.45198 L156.794087,177.690037 L138.868309,161.831702 L122.53441,147.329281 C108.979445,135.26652 99.9929709,127.183378 97.3026582,124.592028 L97.3026582,124.592028 L96.5539073,123.847085 C95.9163878,123.187796 95.3509457,122.52851 94.6319922,121.558191 C86.7687349,113.300308 86.4014718,100.32138 93.9093538,92.8121669 L93.9093538,92.8121669 Z M516.092802,94.2776561 C524.349222,86.413005 537.32585,86.0456768 544.833732,93.5548896 C549.749662,98.4716908 551.295485,106.202173 549.213513,113.282131 L549.213513,113.282131 L549.12922,113.568778 L548.917983,113.780052 L548.887968,113.82128 L548.881255,113.975426 C548.840654,114.614182 548.651432,115.152793 548.222379,116.042366 L548.222379,116.042366 L548.023549,116.446415 L547.804096,116.750943 C547.783161,116.771882 547.766852,116.791699 547.744951,116.827937 L547.744951,116.827937 L547.543995,117.21332 C547.40826,117.466479 547.304814,117.61524 547.207881,117.686445 C547.15907,117.759675 547.108162,117.835285 547.055257,117.913156 L547.055257,117.913156 L546.156695,119.190854 L545.160145,120.558098 C544.531298,121.413511 543.417397,122.612244 542.104495,123.936117 L542.104495,123.936117 L541.823027,124.216642 C541.676072,124.350261 541.463391,124.541603 541.186788,124.789084 L541.186788,124.789084 L481.205204,177.688833 L459.970904,156.450769 L475.734784,138.644187 L486.883541,126.110728 L500.830376,110.545018 C507.096015,103.600125 511.324932,99.0085996 513.061742,97.2932586 L513.061742,97.2932586 L513.473288,96.8971415 Z M543.176929,95.2119858 C536.599426,88.633317 525.07324,88.9595876 517.708714,95.9746647 L517.708714,95.9746647 L515.098863,98.5843361 C513.246125,100.305041 505.726451,108.553203 494.216221,121.418277 L494.216221,121.418277 L479.759977,137.640209 L463.187739,156.350901 L481.309064,174.475438 L509.706156,149.466093 L540.205048,122.522594 L541.217808,121.491146 C542.215016,120.45485 543.045284,119.521634 543.439397,118.932962 L543.439397,118.932962 L544.255966,117.820491 L545.463848,116.130937 L545.692169,115.696513 C545.735644,115.618656 545.77841,115.548039 545.82354,115.481055 L545.82354,115.481055 L545.996616,115.257838 L546.214589,114.80532 C546.425723,114.345906 546.518441,114.064774 546.541056,113.81852 L546.541056,113.81852 L546.564193,113.439208 C546.609992,113.10838 546.743097,112.812776 546.929157,112.533638 L546.929157,112.533638 L547.029911,112.391752 L547.145765,111.967577 C548.663686,106.072864 547.400576,99.8038682 543.608649,95.663177 L543.608649,95.663177 Z M112.318778,90.499724 C106.206826,88.9253047 99.6924238,90.3422644 95.5661564,94.4692632 C88.9886534,101.047932 89.3148662,112.576162 96.4175752,120.047046 C97.2721394,121.186667 97.8304521,121.81488 98.5365205,122.521073 L98.5365205,122.521073 L98.6589333,122.642484 C100.398412,124.354985 106.421823,129.807989 115.716985,138.112253 L115.716985,138.112253 L137.844035,157.792403 L156.695081,174.475438 L174.818748,156.348558 L149.120673,127.162736 L122.870404,97.4401538 C121.459071,96.028571 120.0982,94.7525279 119.284831,94.2081731 L119.284831,94.2081731 L118.572288,93.6809995 C118.357367,93.5234967 118.137536,93.3636789 117.914756,93.2030323 L117.914756,93.2030323 L116.55838,92.2410952 C116.537445,92.2201558 116.517631,92.2038442 116.4814,92.1819396 L116.4814,92.1819396 L116.047053,91.9535777 C115.96921,91.9100954 115.898606,91.867322 115.831633,91.8221833 L115.831633,91.8221833 L115.611643,91.6495398 L115.156019,91.4310651 C114.696686,91.2198942 114.415604,91.1271598 114.169393,91.1045405 L114.169393,91.1045405 L113.790148,91.0813994 C113.459378,91.0355917 113.163828,90.9024631 112.884739,90.716371 L112.884739,90.716371 L112.750752,90.618405 Z M339.107855,109.180231 L339.107855,128.977701 L299.263935,128.977701 L299.263935,109.180231 L339.107855,109.180231 Z M336.764907,111.522318 L301.6071,111.522318 L301.6071,126.633129 L336.764907,126.633129 L336.764907,111.522318 Z M319.000247,-2.67874611e-12 C326.135631,-2.67874611e-12 332.597847,4.30890757 336.358333,10.9954006 L336.354,10.988 L336.291606,10.8765372 L336.380597,10.9882804 L336.497675,11.1519954 C336.637219,11.361349 336.746977,11.5799641 336.812456,11.8157553 L336.812456,11.8157553 L336.849257,11.9826636 L336.960915,12.2585251 C337.019,12.4171857 337.070683,12.5871234 337.12702,12.7961485 L337.12702,12.7961485 L337.337204,13.5957961 C337.389942,13.7731234 337.436259,13.8912461 337.498991,14.016732 L337.498991,14.016732 L337.622673,14.2641406 L337.624755,14.4901194 C337.626342,14.4802595 337.629022,14.4772589 337.633389,14.4806434 L337.633389,14.4806434 L337.802989,14.8196505 C337.939631,15.1204575 337.993969,15.3302914 337.993969,15.6548359 L337.987991,15.4838347 L338.281033,16.7366156 L338.654293,18.4833268 L338.67644,18.6265498 C338.988345,19.5624286 339.092473,21.2088793 339.106503,23.338802 L339.106503,23.338802 L339.103461,24.1916233 C339.062897,26.160388 338.739521,32.1767342 338.185357,41.4814175 L338.185357,41.4814175 L335.516768,84.2123123 L334.206029,104.482386 L303.789166,104.082093 L302.764561,87.4116305 C302.330219,80.2786131 301.899905,73.1306251 301.49376,66.2757119 L301.49376,66.2757119 L300.868567,55.618816 C299.911945,39.1268079 299.33592,28.1887178 299.270241,24.7603455 L299.270241,24.7603455 L299.263935,20.8538945 C299.263935,9.12092382 307.903279,-2.67874611e-12 319.000247,-2.67874611e-12 Z M319.000247,2.34348805 C309.226499,2.34348805 301.607008,10.3877101 301.607008,20.8538945 L301.607008,20.8538945 L301.607999,24.3924847 C301.634055,27.1705634 302.173024,37.5528586 303.090055,53.4486086 L303.090055,53.4486086 L304.431944,76.1747797 L305.993333,101.766378 L332.015498,102.108527 L332.936859,87.8249811 L334.353676,65.5757346 L336.23324,34.7267288 C336.56067,28.9929366 336.745516,25.2998591 336.763456,24.0121043 L336.763456,24.0121043 L336.763456,23.3463858 C336.751478,21.5313564 336.652349,19.9639585 336.416237,19.2268857 L336.416237,19.2268857 L336.252228,18.4332157 L335.865471,16.6844447 L335.685875,15.9390255 L335.650896,15.6548359 C335.650896,15.7510486 335.642974,15.7299198 335.588931,15.6218137 L335.588931,15.6218137 L335.47058,15.3759373 C335.402259,15.2255338 335.354514,15.0978735 335.323849,14.9672461 L335.323849,14.9672461 L335.305172,14.8534364 L335.198767,14.5948107 C335.140682,14.4361501 335.088999,14.2662124 335.032662,14.0571873 L335.032662,14.0571873 L334.878203,13.4570674 C334.798794,13.1581428 334.744334,13.0039183 334.660692,12.8366038 L334.660692,12.8366038 L334.537009,12.5891951 L334.538988,12.4373003 L334.316168,12.1443219 C330.94778,6.15501488 325.231503,2.34348805 319.000247,2.34348805 Z" id="形状结合" fill="url(#linearGradient-4)" fill-rule="nonzero" style="mix-blend-mode: overlay;" mask="url(#mask-2)"></path>
                        </g>
                    </g>
                </g>
            </g>
        </g>
    </g>
</svg>